<?xml version="1.0" encoding="utf-8"?>
<svg xmlns="http://www.w3.org/2000/svg" xmlns:xlink="http://www.w3.org/1999/xlink" width="600" height="400" viewBox="0 0 2400 1600">
<defs>
  <clipPath id="clip810">
    <rect x="0" y="0" width="2400" height="1600"/>
  </clipPath>
</defs>
<path clip-path="url(#clip810)" d="M0 1600 L2400 1600 L2400 0 L0 0  Z" fill="#ffffff" fill-rule="evenodd" fill-opacity="1"/>
<defs>
  <clipPath id="clip811">
    <rect x="480" y="0" width="1681" height="1600"/>
  </clipPath>
</defs>
<path clip-path="url(#clip810)" d="M219.866 1423.18 L2352.76 1423.18 L2352.76 123.472 L219.866 123.472  Z" fill="#ffffff" fill-rule="evenodd" fill-opacity="1"/>
<defs>
  <clipPath id="clip812">
    <rect x="219" y="123" width="2134" height="1301"/>
  </clipPath>
</defs>
<polyline clip-path="url(#clip812)" style="stroke:#000000; stroke-linecap:round; stroke-linejoin:round; stroke-width:2; stroke-opacity:0.1; fill:none" points="251.486,1423.18 251.486,123.472 "/>
<polyline clip-path="url(#clip812)" style="stroke:#000000; stroke-linecap:round; stroke-linejoin:round; stroke-width:2; stroke-opacity:0.1; fill:none" points="826.389,1423.18 826.389,123.472 "/>
<polyline clip-path="url(#clip812)" style="stroke:#000000; stroke-linecap:round; stroke-linejoin:round; stroke-width:2; stroke-opacity:0.1; fill:none" points="1401.29,1423.18 1401.29,123.472 "/>
<polyline clip-path="url(#clip812)" style="stroke:#000000; stroke-linecap:round; stroke-linejoin:round; stroke-width:2; stroke-opacity:0.1; fill:none" points="1976.19,1423.18 1976.19,123.472 "/>
<polyline clip-path="url(#clip812)" style="stroke:#000000; stroke-linecap:round; stroke-linejoin:round; stroke-width:2; stroke-opacity:0.1; fill:none" points="219.866,1157.14 2352.76,1157.14 "/>
<polyline clip-path="url(#clip812)" style="stroke:#000000; stroke-linecap:round; stroke-linejoin:round; stroke-width:2; stroke-opacity:0.1; fill:none" points="219.866,883.126 2352.76,883.126 "/>
<polyline clip-path="url(#clip812)" style="stroke:#000000; stroke-linecap:round; stroke-linejoin:round; stroke-width:2; stroke-opacity:0.1; fill:none" points="219.866,609.115 2352.76,609.115 "/>
<polyline clip-path="url(#clip812)" style="stroke:#000000; stroke-linecap:round; stroke-linejoin:round; stroke-width:2; stroke-opacity:0.1; fill:none" points="219.866,335.104 2352.76,335.104 "/>
<polyline clip-path="url(#clip810)" style="stroke:#000000; stroke-linecap:round; stroke-linejoin:round; stroke-width:4; stroke-opacity:1; fill:none" points="219.866,1423.18 2352.76,1423.18 "/>
<polyline clip-path="url(#clip810)" style="stroke:#000000; stroke-linecap:round; stroke-linejoin:round; stroke-width:4; stroke-opacity:1; fill:none" points="251.486,1423.18 251.486,1404.28 "/>
<polyline clip-path="url(#clip810)" style="stroke:#000000; stroke-linecap:round; stroke-linejoin:round; stroke-width:4; stroke-opacity:1; fill:none" points="826.389,1423.18 826.389,1404.28 "/>
<polyline clip-path="url(#clip810)" style="stroke:#000000; stroke-linecap:round; stroke-linejoin:round; stroke-width:4; stroke-opacity:1; fill:none" points="1401.29,1423.18 1401.29,1404.28 "/>
<polyline clip-path="url(#clip810)" style="stroke:#000000; stroke-linecap:round; stroke-linejoin:round; stroke-width:4; stroke-opacity:1; fill:none" points="1976.19,1423.18 1976.19,1404.28 "/>
<path clip-path="url(#clip810)" d="M251.486 1454.1 Q247.875 1454.1 246.046 1457.66 Q244.241 1461.2 244.241 1468.33 Q244.241 1475.44 246.046 1479.01 Q247.875 1482.55 251.486 1482.55 Q255.12 1482.55 256.926 1479.01 Q258.754 1475.44 258.754 1468.33 Q258.754 1461.2 256.926 1457.66 Q255.12 1454.1 251.486 1454.1 M251.486 1450.39 Q257.296 1450.39 260.352 1455 Q263.43 1459.58 263.43 1468.33 Q263.43 1477.06 260.352 1481.67 Q257.296 1486.25 251.486 1486.25 Q245.676 1486.25 242.597 1481.67 Q239.542 1477.06 239.542 1468.33 Q239.542 1459.58 242.597 1455 Q245.676 1450.39 251.486 1450.39 Z" fill="#000000" fill-rule="nonzero" fill-opacity="1" /><path clip-path="url(#clip810)" d="M805.162 1481.64 L821.481 1481.64 L821.481 1485.58 L799.537 1485.58 L799.537 1481.64 Q802.199 1478.89 806.782 1474.26 Q811.389 1469.61 812.569 1468.27 Q814.815 1465.74 815.694 1464.01 Q816.597 1462.25 816.597 1460.56 Q816.597 1457.8 814.653 1456.07 Q812.731 1454.33 809.63 1454.33 Q807.431 1454.33 804.977 1455.09 Q802.546 1455.86 799.769 1457.41 L799.769 1452.69 Q802.593 1451.55 805.046 1450.97 Q807.5 1450.39 809.537 1450.39 Q814.907 1450.39 818.102 1453.08 Q821.296 1455.77 821.296 1460.26 Q821.296 1462.39 820.486 1464.31 Q819.699 1466.2 817.593 1468.8 Q817.014 1469.47 813.912 1472.69 Q810.81 1475.88 805.162 1481.64 Z" fill="#000000" fill-rule="nonzero" fill-opacity="1" /><path clip-path="url(#clip810)" d="M841.296 1454.1 Q837.685 1454.1 835.856 1457.66 Q834.051 1461.2 834.051 1468.33 Q834.051 1475.44 835.856 1479.01 Q837.685 1482.55 841.296 1482.55 Q844.93 1482.55 846.736 1479.01 Q848.565 1475.44 848.565 1468.33 Q848.565 1461.2 846.736 1457.66 Q844.93 1454.1 841.296 1454.1 M841.296 1450.39 Q847.106 1450.39 850.162 1455 Q853.24 1459.58 853.24 1468.33 Q853.24 1477.06 850.162 1481.67 Q847.106 1486.25 841.296 1486.25 Q835.486 1486.25 832.407 1481.67 Q829.352 1477.06 829.352 1468.33 Q829.352 1459.58 832.407 1455 Q835.486 1450.39 841.296 1450.39 Z" fill="#000000" fill-rule="nonzero" fill-opacity="1" /><path clip-path="url(#clip810)" d="M1389.46 1455.09 L1377.66 1473.54 L1389.46 1473.54 L1389.46 1455.09 M1388.24 1451.02 L1394.12 1451.02 L1394.12 1473.54 L1399.05 1473.54 L1399.05 1477.43 L1394.12 1477.43 L1394.12 1485.58 L1389.46 1485.58 L1389.46 1477.43 L1373.86 1477.43 L1373.86 1472.92 L1388.24 1451.02 Z" fill="#000000" fill-rule="nonzero" fill-opacity="1" /><path clip-path="url(#clip810)" d="M1416.78 1454.1 Q1413.17 1454.1 1411.34 1457.66 Q1409.53 1461.2 1409.53 1468.33 Q1409.53 1475.44 1411.34 1479.01 Q1413.17 1482.55 1416.78 1482.55 Q1420.41 1482.55 1422.22 1479.01 Q1424.05 1475.44 1424.05 1468.33 Q1424.05 1461.2 1422.22 1457.66 Q1420.41 1454.1 1416.78 1454.1 M1416.78 1450.39 Q1422.59 1450.39 1425.64 1455 Q1428.72 1459.58 1428.72 1468.33 Q1428.72 1477.06 1425.64 1481.67 Q1422.59 1486.25 1416.78 1486.25 Q1410.97 1486.25 1407.89 1481.67 Q1404.83 1477.06 1404.83 1468.33 Q1404.83 1459.58 1407.89 1455 Q1410.97 1450.39 1416.78 1450.39 Z" fill="#000000" fill-rule="nonzero" fill-opacity="1" /><path clip-path="url(#clip810)" d="M1961.6 1466.44 Q1958.45 1466.44 1956.6 1468.59 Q1954.77 1470.74 1954.77 1474.49 Q1954.77 1478.22 1956.6 1480.39 Q1958.45 1482.55 1961.6 1482.55 Q1964.75 1482.55 1966.58 1480.39 Q1968.43 1478.22 1968.43 1474.49 Q1968.43 1470.74 1966.58 1468.59 Q1964.75 1466.44 1961.6 1466.44 M1970.88 1451.78 L1970.88 1456.04 Q1969.12 1455.21 1967.32 1454.77 Q1965.53 1454.33 1963.78 1454.33 Q1959.15 1454.33 1956.69 1457.45 Q1954.26 1460.58 1953.91 1466.9 Q1955.28 1464.89 1957.34 1463.82 Q1959.4 1462.73 1961.88 1462.73 Q1967.09 1462.73 1970.1 1465.9 Q1973.13 1469.05 1973.13 1474.49 Q1973.13 1479.82 1969.98 1483.03 Q1966.83 1486.25 1961.6 1486.25 Q1955.6 1486.25 1952.43 1481.67 Q1949.26 1477.06 1949.26 1468.33 Q1949.26 1460.14 1953.15 1455.28 Q1957.04 1450.39 1963.59 1450.39 Q1965.35 1450.39 1967.13 1450.74 Q1968.94 1451.09 1970.88 1451.78 Z" fill="#000000" fill-rule="nonzero" fill-opacity="1" /><path clip-path="url(#clip810)" d="M1991.18 1454.1 Q1987.57 1454.1 1985.74 1457.66 Q1983.94 1461.2 1983.94 1468.33 Q1983.94 1475.44 1985.74 1479.01 Q1987.57 1482.55 1991.18 1482.55 Q1994.82 1482.55 1996.62 1479.01 Q1998.45 1475.44 1998.45 1468.33 Q1998.45 1461.2 1996.62 1457.66 Q1994.82 1454.1 1991.18 1454.1 M1991.18 1450.39 Q1996.99 1450.39 2000.05 1455 Q2003.13 1459.58 2003.13 1468.33 Q2003.13 1477.06 2000.05 1481.67 Q1996.99 1486.25 1991.18 1486.25 Q1985.37 1486.25 1982.29 1481.67 Q1979.24 1477.06 1979.24 1468.33 Q1979.24 1459.58 1982.29 1455 Q1985.37 1450.39 1991.18 1450.39 Z" fill="#000000" fill-rule="nonzero" fill-opacity="1" /><path clip-path="url(#clip810)" d="M1049.78 1533.76 L1049.78 1539.24 Q1047.29 1537.87 1044.78 1537.2 Q1042.3 1536.5 1039.75 1536.5 Q1034.05 1536.5 1030.9 1540.13 Q1027.75 1543.73 1027.75 1550.25 Q1027.75 1556.78 1030.9 1560.4 Q1034.05 1564 1039.75 1564 Q1042.3 1564 1044.78 1563.33 Q1047.29 1562.63 1049.78 1561.26 L1049.78 1566.68 Q1047.33 1567.82 1044.68 1568.39 Q1042.07 1568.97 1039.11 1568.97 Q1031.06 1568.97 1026.32 1563.91 Q1021.58 1558.85 1021.58 1550.25 Q1021.58 1541.53 1026.35 1536.53 Q1031.16 1531.54 1039.5 1531.54 Q1042.2 1531.54 1044.78 1532.11 Q1047.36 1532.65 1049.78 1533.76 Z" fill="#000000" fill-rule="nonzero" fill-opacity="1" /><path clip-path="url(#clip810)" d="M1089.59 1546.53 L1089.59 1568.04 L1083.74 1568.04 L1083.74 1546.72 Q1083.74 1541.66 1081.77 1539.14 Q1079.79 1536.63 1075.84 1536.63 Q1071.1 1536.63 1068.37 1539.65 Q1065.63 1542.68 1065.63 1547.9 L1065.63 1568.04 L1059.74 1568.04 L1059.74 1518.52 L1065.63 1518.52 L1065.63 1537.93 Q1067.73 1534.72 1070.56 1533.13 Q1073.43 1531.54 1077.15 1531.54 Q1083.29 1531.54 1086.44 1535.36 Q1089.59 1539.14 1089.59 1546.53 Z" fill="#000000" fill-rule="nonzero" fill-opacity="1" /><path clip-path="url(#clip810)" d="M1117.48 1550.12 Q1110.38 1550.12 1107.64 1551.75 Q1104.9 1553.37 1104.9 1557.29 Q1104.9 1560.4 1106.94 1562.25 Q1109.01 1564.07 1112.54 1564.07 Q1117.41 1564.07 1120.34 1560.63 Q1123.3 1557.16 1123.3 1551.43 L1123.3 1550.12 L1117.48 1550.12 M1129.16 1547.71 L1129.16 1568.04 L1123.3 1568.04 L1123.3 1562.63 Q1121.3 1565.88 1118.3 1567.44 Q1115.31 1568.97 1110.98 1568.97 Q1105.51 1568.97 1102.26 1565.91 Q1099.05 1562.82 1099.05 1557.67 Q1099.05 1551.65 1103.06 1548.6 Q1107.1 1545.54 1115.09 1545.54 L1123.3 1545.54 L1123.3 1544.97 Q1123.3 1540.93 1120.63 1538.73 Q1117.99 1536.5 1113.18 1536.5 Q1110.12 1536.5 1107.23 1537.23 Q1104.33 1537.97 1101.66 1539.43 L1101.66 1534.02 Q1104.87 1532.78 1107.9 1532.17 Q1110.92 1531.54 1113.78 1531.54 Q1121.52 1531.54 1125.34 1535.55 Q1129.16 1539.56 1129.16 1547.71 Z" fill="#000000" fill-rule="nonzero" fill-opacity="1" /><path clip-path="url(#clip810)" d="M1170.85 1546.53 L1170.85 1568.04 L1165 1568.04 L1165 1546.72 Q1165 1541.66 1163.02 1539.14 Q1161.05 1536.63 1157.1 1536.63 Q1152.36 1536.63 1149.62 1539.65 Q1146.89 1542.68 1146.89 1547.9 L1146.89 1568.04 L1141 1568.04 L1141 1532.4 L1146.89 1532.4 L1146.89 1537.93 Q1148.99 1534.72 1151.82 1533.13 Q1154.68 1531.54 1158.41 1531.54 Q1164.55 1531.54 1167.7 1535.36 Q1170.85 1539.14 1170.85 1546.53 Z" fill="#000000" fill-rule="nonzero" fill-opacity="1" /><path clip-path="url(#clip810)" d="M1212.17 1546.53 L1212.17 1568.04 L1206.31 1568.04 L1206.31 1546.72 Q1206.31 1541.66 1204.34 1539.14 Q1202.36 1536.63 1198.42 1536.63 Q1193.67 1536.63 1190.94 1539.65 Q1188.2 1542.68 1188.2 1547.9 L1188.2 1568.04 L1182.31 1568.04 L1182.31 1532.4 L1188.2 1532.4 L1188.2 1537.93 Q1190.3 1534.72 1193.13 1533.13 Q1196 1531.54 1199.72 1531.54 Q1205.86 1531.54 1209.02 1535.36 Q1212.17 1539.14 1212.17 1546.53 Z" fill="#000000" fill-rule="nonzero" fill-opacity="1" /><path clip-path="url(#clip810)" d="M1254.34 1548.76 L1254.34 1551.62 L1227.41 1551.62 Q1227.79 1557.67 1231.04 1560.85 Q1234.32 1564 1240.14 1564 Q1243.52 1564 1246.67 1563.17 Q1249.85 1562.35 1252.97 1560.69 L1252.97 1566.23 Q1249.82 1567.57 1246.51 1568.27 Q1243.2 1568.97 1239.79 1568.97 Q1231.26 1568.97 1226.27 1564 Q1221.3 1559.04 1221.3 1550.57 Q1221.3 1541.82 1226.01 1536.69 Q1230.75 1531.54 1238.78 1531.54 Q1245.97 1531.54 1250.14 1536.18 Q1254.34 1540.8 1254.34 1548.76 M1248.48 1547.04 Q1248.42 1542.23 1245.78 1539.37 Q1243.17 1536.5 1238.84 1536.5 Q1233.94 1536.5 1230.98 1539.27 Q1228.05 1542.04 1227.6 1547.07 L1248.48 1547.04 Z" fill="#000000" fill-rule="nonzero" fill-opacity="1" /><path clip-path="url(#clip810)" d="M1263.95 1518.52 L1269.81 1518.52 L1269.81 1568.04 L1263.95 1568.04 L1263.95 1518.52 Z" fill="#000000" fill-rule="nonzero" fill-opacity="1" /><path clip-path="url(#clip810)" d="M1332.41 1546.53 L1332.41 1568.04 L1326.56 1568.04 L1326.56 1546.72 Q1326.56 1541.66 1324.58 1539.14 Q1322.61 1536.63 1318.66 1536.63 Q1313.92 1536.63 1311.19 1539.65 Q1308.45 1542.68 1308.45 1547.9 L1308.45 1568.04 L1302.56 1568.04 L1302.56 1532.4 L1308.45 1532.4 L1308.45 1537.93 Q1310.55 1534.72 1313.38 1533.13 Q1316.25 1531.54 1319.97 1531.54 Q1326.11 1531.54 1329.26 1535.36 Q1332.41 1539.14 1332.41 1546.53 Z" fill="#000000" fill-rule="nonzero" fill-opacity="1" /><path clip-path="url(#clip810)" d="M1343.49 1553.98 L1343.49 1532.4 L1349.35 1532.4 L1349.35 1553.75 Q1349.35 1558.81 1351.32 1561.36 Q1353.29 1563.87 1357.24 1563.87 Q1361.98 1563.87 1364.72 1560.85 Q1367.49 1557.83 1367.49 1552.61 L1367.49 1532.4 L1373.35 1532.4 L1373.35 1568.04 L1367.49 1568.04 L1367.49 1562.57 Q1365.36 1565.82 1362.52 1567.41 Q1359.72 1568.97 1356 1568.97 Q1349.86 1568.97 1346.67 1565.15 Q1343.49 1561.33 1343.49 1553.98 M1358.23 1531.54 L1358.23 1531.54 Z" fill="#000000" fill-rule="nonzero" fill-opacity="1" /><path clip-path="url(#clip810)" d="M1413.16 1539.24 Q1415.36 1535.29 1418.42 1533.41 Q1421.47 1531.54 1425.61 1531.54 Q1431.18 1531.54 1434.2 1535.45 Q1437.23 1539.33 1437.23 1546.53 L1437.23 1568.04 L1431.34 1568.04 L1431.34 1546.72 Q1431.34 1541.59 1429.52 1539.11 Q1427.71 1536.63 1423.99 1536.63 Q1419.43 1536.63 1416.79 1539.65 Q1414.15 1542.68 1414.15 1547.9 L1414.15 1568.04 L1408.26 1568.04 L1408.26 1546.72 Q1408.26 1541.56 1406.45 1539.11 Q1404.63 1536.63 1400.85 1536.63 Q1396.36 1536.63 1393.72 1539.68 Q1391.07 1542.71 1391.07 1547.9 L1391.07 1568.04 L1385.19 1568.04 L1385.19 1532.4 L1391.07 1532.4 L1391.07 1537.93 Q1393.08 1534.66 1395.88 1533.1 Q1398.68 1531.54 1402.53 1531.54 Q1406.42 1531.54 1409.12 1533.51 Q1411.86 1535.48 1413.16 1539.24 Z" fill="#000000" fill-rule="nonzero" fill-opacity="1" /><path clip-path="url(#clip810)" d="M1474.5 1550.25 Q1474.5 1543.79 1471.82 1540.13 Q1469.18 1536.44 1464.53 1536.44 Q1459.89 1536.44 1457.21 1540.13 Q1454.57 1543.79 1454.57 1550.25 Q1454.57 1556.71 1457.21 1560.4 Q1459.89 1564.07 1464.53 1564.07 Q1469.18 1564.07 1471.82 1560.4 Q1474.5 1556.71 1474.5 1550.25 M1454.57 1537.81 Q1456.42 1534.62 1459.22 1533.1 Q1462.05 1531.54 1465.97 1531.54 Q1472.46 1531.54 1476.5 1536.69 Q1480.58 1541.85 1480.58 1550.25 Q1480.58 1558.65 1476.5 1563.81 Q1472.46 1568.97 1465.97 1568.97 Q1462.05 1568.97 1459.22 1567.44 Q1456.42 1565.88 1454.57 1562.7 L1454.57 1568.04 L1448.68 1568.04 L1448.68 1518.52 L1454.57 1518.52 L1454.57 1537.81 Z" fill="#000000" fill-rule="nonzero" fill-opacity="1" /><path clip-path="url(#clip810)" d="M1520.78 1548.76 L1520.78 1551.62 L1493.85 1551.62 Q1494.23 1557.67 1497.48 1560.85 Q1500.76 1564 1506.58 1564 Q1509.95 1564 1513.11 1563.17 Q1516.29 1562.35 1519.41 1560.69 L1519.41 1566.23 Q1516.26 1567.57 1512.95 1568.27 Q1509.64 1568.97 1506.23 1568.97 Q1497.7 1568.97 1492.7 1564 Q1487.74 1559.04 1487.74 1550.57 Q1487.74 1541.82 1492.45 1536.69 Q1497.19 1531.54 1505.21 1531.54 Q1512.41 1531.54 1516.57 1536.18 Q1520.78 1540.8 1520.78 1548.76 M1514.92 1547.04 Q1514.86 1542.23 1512.21 1539.37 Q1509.6 1536.5 1505.28 1536.5 Q1500.37 1536.5 1497.41 1539.27 Q1494.49 1542.04 1494.04 1547.07 L1514.92 1547.04 Z" fill="#000000" fill-rule="nonzero" fill-opacity="1" /><path clip-path="url(#clip810)" d="M1551.04 1537.87 Q1550.06 1537.3 1548.88 1537.04 Q1547.73 1536.76 1546.33 1536.76 Q1541.37 1536.76 1538.7 1540 Q1536.05 1543.22 1536.05 1549.27 L1536.05 1568.04 L1530.17 1568.04 L1530.17 1532.4 L1536.05 1532.4 L1536.05 1537.93 Q1537.9 1534.69 1540.86 1533.13 Q1543.82 1531.54 1548.05 1531.54 Q1548.66 1531.54 1549.39 1531.63 Q1550.12 1531.7 1551.01 1531.85 L1551.04 1537.87 Z" fill="#000000" fill-rule="nonzero" fill-opacity="1" /><polyline clip-path="url(#clip810)" style="stroke:#000000; stroke-linecap:round; stroke-linejoin:round; stroke-width:4; stroke-opacity:1; fill:none" points="219.866,1423.18 219.866,123.472 "/>
<polyline clip-path="url(#clip810)" style="stroke:#000000; stroke-linecap:round; stroke-linejoin:round; stroke-width:4; stroke-opacity:1; fill:none" points="219.866,1157.14 238.764,1157.14 "/>
<polyline clip-path="url(#clip810)" style="stroke:#000000; stroke-linecap:round; stroke-linejoin:round; stroke-width:4; stroke-opacity:1; fill:none" points="219.866,883.126 238.764,883.126 "/>
<polyline clip-path="url(#clip810)" style="stroke:#000000; stroke-linecap:round; stroke-linejoin:round; stroke-width:4; stroke-opacity:1; fill:none" points="219.866,609.115 238.764,609.115 "/>
<polyline clip-path="url(#clip810)" style="stroke:#000000; stroke-linecap:round; stroke-linejoin:round; stroke-width:4; stroke-opacity:1; fill:none" points="219.866,335.104 238.764,335.104 "/>
<path clip-path="url(#clip810)" d="M128.288 1142.94 Q124.677 1142.94 122.848 1146.5 Q121.043 1150.04 121.043 1157.17 Q121.043 1164.28 122.848 1167.84 Q124.677 1171.38 128.288 1171.38 Q131.922 1171.38 133.728 1167.84 Q135.556 1164.28 135.556 1157.17 Q135.556 1150.04 133.728 1146.5 Q131.922 1142.94 128.288 1142.94 M128.288 1139.23 Q134.098 1139.23 137.154 1143.84 Q140.232 1148.42 140.232 1157.17 Q140.232 1165.9 137.154 1170.5 Q134.098 1175.09 128.288 1175.09 Q122.478 1175.09 119.399 1170.5 Q116.343 1165.9 116.343 1157.17 Q116.343 1148.42 119.399 1143.84 Q122.478 1139.23 128.288 1139.23 Z" fill="#000000" fill-rule="nonzero" fill-opacity="1" /><path clip-path="url(#clip810)" d="M148.45 1168.54 L153.334 1168.54 L153.334 1174.42 L148.45 1174.42 L148.45 1168.54 Z" fill="#000000" fill-rule="nonzero" fill-opacity="1" /><path clip-path="url(#clip810)" d="M167.547 1170.48 L183.866 1170.48 L183.866 1174.42 L161.922 1174.42 L161.922 1170.48 Q164.584 1167.73 169.167 1163.1 Q173.774 1158.44 174.954 1157.1 Q177.2 1154.58 178.079 1152.84 Q178.982 1151.08 178.982 1149.39 Q178.982 1146.64 177.038 1144.9 Q175.116 1143.17 172.014 1143.17 Q169.815 1143.17 167.362 1143.93 Q164.931 1144.69 162.153 1146.25 L162.153 1141.52 Q164.977 1140.39 167.431 1139.81 Q169.885 1139.23 171.922 1139.23 Q177.292 1139.23 180.487 1141.92 Q183.681 1144.6 183.681 1149.09 Q183.681 1151.22 182.871 1153.14 Q182.084 1155.04 179.977 1157.63 Q179.399 1158.31 176.297 1161.52 Q173.195 1164.72 167.547 1170.48 Z" fill="#000000" fill-rule="nonzero" fill-opacity="1" /><path clip-path="url(#clip810)" d="M126.205 868.924 Q122.593 868.924 120.765 872.489 Q118.959 876.031 118.959 883.16 Q118.959 890.267 120.765 893.832 Q122.593 897.373 126.205 897.373 Q129.839 897.373 131.644 893.832 Q133.473 890.267 133.473 883.16 Q133.473 876.031 131.644 872.489 Q129.839 868.924 126.205 868.924 M126.205 865.221 Q132.015 865.221 135.07 869.827 Q138.149 874.41 138.149 883.16 Q138.149 891.887 135.07 896.494 Q132.015 901.077 126.205 901.077 Q120.394 901.077 117.316 896.494 Q114.26 891.887 114.26 883.16 Q114.26 874.41 117.316 869.827 Q120.394 865.221 126.205 865.221 Z" fill="#000000" fill-rule="nonzero" fill-opacity="1" /><path clip-path="url(#clip810)" d="M146.366 894.526 L151.251 894.526 L151.251 900.406 L146.366 900.406 L146.366 894.526 Z" fill="#000000" fill-rule="nonzero" fill-opacity="1" /><path clip-path="url(#clip810)" d="M174.283 869.92 L162.477 888.369 L174.283 888.369 L174.283 869.92 M173.056 865.846 L178.936 865.846 L178.936 888.369 L183.866 888.369 L183.866 892.258 L178.936 892.258 L178.936 900.406 L174.283 900.406 L174.283 892.258 L158.681 892.258 L158.681 887.744 L173.056 865.846 Z" fill="#000000" fill-rule="nonzero" fill-opacity="1" /><path clip-path="url(#clip810)" d="M126.529 594.914 Q122.918 594.914 121.089 598.478 Q119.283 602.02 119.283 609.15 Q119.283 616.256 121.089 619.821 Q122.918 623.363 126.529 623.363 Q130.163 623.363 131.968 619.821 Q133.797 616.256 133.797 609.15 Q133.797 602.02 131.968 598.478 Q130.163 594.914 126.529 594.914 M126.529 591.21 Q132.339 591.21 135.394 595.816 Q138.473 600.4 138.473 609.15 Q138.473 617.877 135.394 622.483 Q132.339 627.066 126.529 627.066 Q120.718 627.066 117.64 622.483 Q114.584 617.877 114.584 609.15 Q114.584 600.4 117.64 595.816 Q120.718 591.21 126.529 591.21 Z" fill="#000000" fill-rule="nonzero" fill-opacity="1" /><path clip-path="url(#clip810)" d="M146.691 620.515 L151.575 620.515 L151.575 626.395 L146.691 626.395 L146.691 620.515 Z" fill="#000000" fill-rule="nonzero" fill-opacity="1" /><path clip-path="url(#clip810)" d="M172.339 607.252 Q169.19 607.252 167.339 609.404 Q165.51 611.557 165.51 615.307 Q165.51 619.034 167.339 621.21 Q169.19 623.363 172.339 623.363 Q175.487 623.363 177.315 621.21 Q179.167 619.034 179.167 615.307 Q179.167 611.557 177.315 609.404 Q175.487 607.252 172.339 607.252 M181.621 592.599 L181.621 596.858 Q179.862 596.025 178.056 595.585 Q176.274 595.145 174.514 595.145 Q169.885 595.145 167.431 598.27 Q165.001 601.395 164.653 607.715 Q166.019 605.701 168.079 604.636 Q170.139 603.548 172.616 603.548 Q177.825 603.548 180.834 606.719 Q183.866 609.867 183.866 615.307 Q183.866 620.631 180.718 623.849 Q177.57 627.066 172.339 627.066 Q166.343 627.066 163.172 622.483 Q160.001 617.877 160.001 609.15 Q160.001 600.955 163.89 596.094 Q167.778 591.21 174.329 591.21 Q176.089 591.21 177.871 591.557 Q179.676 591.904 181.621 592.599 Z" fill="#000000" fill-rule="nonzero" fill-opacity="1" /><path clip-path="url(#clip810)" d="M126.783 320.903 Q123.172 320.903 121.343 324.468 Q119.538 328.009 119.538 335.139 Q119.538 342.246 121.343 345.81 Q123.172 349.352 126.783 349.352 Q130.417 349.352 132.223 345.81 Q134.052 342.246 134.052 335.139 Q134.052 328.009 132.223 324.468 Q130.417 320.903 126.783 320.903 M126.783 317.199 Q132.593 317.199 135.649 321.806 Q138.728 326.389 138.728 335.139 Q138.728 343.866 135.649 348.472 Q132.593 353.056 126.783 353.056 Q120.973 353.056 117.894 348.472 Q114.839 343.866 114.839 335.139 Q114.839 326.389 117.894 321.806 Q120.973 317.199 126.783 317.199 Z" fill="#000000" fill-rule="nonzero" fill-opacity="1" /><path clip-path="url(#clip810)" d="M146.945 346.505 L151.829 346.505 L151.829 352.384 L146.945 352.384 L146.945 346.505 Z" fill="#000000" fill-rule="nonzero" fill-opacity="1" /><path clip-path="url(#clip810)" d="M172.014 335.972 Q168.681 335.972 166.76 337.755 Q164.862 339.537 164.862 342.662 Q164.862 345.787 166.76 347.57 Q168.681 349.352 172.014 349.352 Q175.348 349.352 177.269 347.57 Q179.19 345.764 179.19 342.662 Q179.19 339.537 177.269 337.755 Q175.371 335.972 172.014 335.972 M167.339 333.982 Q164.329 333.241 162.64 331.181 Q160.973 329.121 160.973 326.158 Q160.973 322.014 163.913 319.607 Q166.876 317.199 172.014 317.199 Q177.176 317.199 180.116 319.607 Q183.056 322.014 183.056 326.158 Q183.056 329.121 181.366 331.181 Q179.7 333.241 176.714 333.982 Q180.093 334.769 181.968 337.06 Q183.866 339.352 183.866 342.662 Q183.866 347.685 180.788 350.37 Q177.732 353.056 172.014 353.056 Q166.297 353.056 163.218 350.37 Q160.163 347.685 160.163 342.662 Q160.163 339.352 162.061 337.06 Q163.959 334.769 167.339 333.982 M165.626 326.597 Q165.626 329.283 167.292 330.787 Q168.982 332.292 172.014 332.292 Q175.024 332.292 176.714 330.787 Q178.426 329.283 178.426 326.597 Q178.426 323.912 176.714 322.408 Q175.024 320.903 172.014 320.903 Q168.982 320.903 167.292 322.408 Q165.626 323.912 165.626 326.597 Z" fill="#000000" fill-rule="nonzero" fill-opacity="1" /><path clip-path="url(#clip810)" d="M18.2347 876.18 L28.3562 876.18 L28.3562 864.117 L32.9077 864.117 L32.9077 876.18 L52.2594 876.18 Q56.6199 876.18 57.8613 875.002 Q59.1026 873.793 59.1026 870.132 L59.1026 864.117 L64.0042 864.117 L64.0042 870.132 Q64.0042 876.912 61.4897 879.49 Q58.9434 882.068 52.2594 882.068 L32.9077 882.068 L32.9077 886.365 L28.3562 886.365 L28.3562 882.068 L18.2347 882.068 L18.2347 876.18 Z" fill="#000000" fill-rule="nonzero" fill-opacity="1" /><path clip-path="url(#clip810)" d="M14.479 838.368 L19.3487 838.368 L19.3487 843.969 Q19.3487 847.12 20.6219 848.362 Q21.895 849.571 25.2052 849.571 L28.3562 849.571 L28.3562 839.927 L32.9077 839.927 L32.9077 849.571 L64.0042 849.571 L64.0042 855.46 L32.9077 855.46 L32.9077 861.061 L28.3562 861.061 L28.3562 855.46 L25.8736 855.46 Q19.9216 855.46 17.2162 852.69 Q14.479 849.921 14.479 843.906 L14.479 838.368 Z" fill="#000000" fill-rule="nonzero" fill-opacity="1" /><path clip-path="url(#clip810)" d="M74.8259 806.38 L79.3773 806.38 L79.3773 840.245 L74.8259 840.245 L74.8259 806.38 Z" fill="#000000" fill-rule="nonzero" fill-opacity="1" /><path clip-path="url(#clip810)" d="M33.8307 780.217 Q33.2578 781.204 33.0032 782.381 Q32.7167 783.527 32.7167 784.927 Q32.7167 789.893 35.9632 792.566 Q39.1779 795.208 45.2253 795.208 L64.0042 795.208 L64.0042 801.096 L28.3562 801.096 L28.3562 795.208 L33.8944 795.208 Q30.6479 793.362 29.0883 790.402 Q27.4968 787.442 27.4968 783.209 Q27.4968 782.604 27.5923 781.872 Q27.656 781.14 27.8151 780.249 L33.8307 780.217 Z" fill="#000000" fill-rule="nonzero" fill-opacity="1" /><path clip-path="url(#clip810)" d="M46.0847 757.873 Q46.0847 764.971 47.7079 767.708 Q49.3312 770.446 53.2461 770.446 Q56.3653 770.446 58.2114 768.408 Q60.0256 766.34 60.0256 762.807 Q60.0256 757.937 56.5881 755.009 Q53.1188 752.049 47.3897 752.049 L46.0847 752.049 L46.0847 757.873 M43.6657 746.192 L64.0042 746.192 L64.0042 752.049 L58.5933 752.049 Q61.8398 754.054 63.3994 757.046 Q64.9272 760.038 64.9272 764.366 Q64.9272 769.841 61.8716 773.087 Q58.7843 776.302 53.6281 776.302 Q47.6125 776.302 44.5569 772.292 Q41.5014 768.249 41.5014 760.26 L41.5014 752.049 L40.9285 752.049 Q36.8862 752.049 34.6901 754.722 Q32.4621 757.364 32.4621 762.17 Q32.4621 765.226 33.1941 768.122 Q33.9262 771.018 35.3903 773.692 L29.9795 773.692 Q28.7381 770.477 28.1334 767.454 Q27.4968 764.43 27.4968 761.565 Q27.4968 753.831 31.5072 750.012 Q35.5176 746.192 43.6657 746.192 Z" fill="#000000" fill-rule="nonzero" fill-opacity="1" /><path clip-path="url(#clip810)" d="M18.2347 728.336 L28.3562 728.336 L28.3562 716.273 L32.9077 716.273 L32.9077 728.336 L52.2594 728.336 Q56.6199 728.336 57.8613 727.159 Q59.1026 725.949 59.1026 722.289 L59.1026 716.273 L64.0042 716.273 L64.0042 722.289 Q64.0042 729.068 61.4897 731.647 Q58.9434 734.225 52.2594 734.225 L32.9077 734.225 L32.9077 738.521 L28.3562 738.521 L28.3562 734.225 L18.2347 734.225 L18.2347 728.336 Z" fill="#000000" fill-rule="nonzero" fill-opacity="1" /><path clip-path="url(#clip810)" d="M28.3562 708.571 L28.3562 702.714 L64.0042 702.714 L64.0042 708.571 L28.3562 708.571 M14.479 708.571 L14.479 702.714 L21.895 702.714 L21.895 708.571 L14.479 708.571 Z" fill="#000000" fill-rule="nonzero" fill-opacity="1" /><path clip-path="url(#clip810)" d="M32.4621 676.647 Q32.4621 681.357 36.1542 684.095 Q39.8145 686.832 46.212 686.832 Q52.6095 686.832 56.3017 684.127 Q59.9619 681.389 59.9619 676.647 Q59.9619 671.968 56.2698 669.231 Q52.5777 666.494 46.212 666.494 Q39.8781 666.494 36.186 669.231 Q32.4621 671.968 32.4621 676.647 M27.4968 676.647 Q27.4968 669.008 32.4621 664.647 Q37.4273 660.287 46.212 660.287 Q54.9649 660.287 59.9619 664.647 Q64.9272 669.008 64.9272 676.647 Q64.9272 684.317 59.9619 688.678 Q54.9649 693.007 46.212 693.007 Q37.4273 693.007 32.4621 688.678 Q27.4968 684.317 27.4968 676.647 Z" fill="#000000" fill-rule="nonzero" fill-opacity="1" /><path clip-path="url(#clip810)" d="M331.614 54.671 L331.614 27.2059 L339.068 27.2059 L339.068 54.3874 Q339.068 60.8284 341.579 64.0691 Q344.091 67.2693 349.114 67.2693 Q355.15 67.2693 358.634 63.421 Q362.158 59.5726 362.158 52.9291 L362.158 27.2059 L369.612 27.2059 L369.612 72.576 L362.158 72.576 L362.158 65.6084 Q359.444 69.7404 355.839 71.7658 Q352.274 73.7508 347.534 73.7508 Q339.716 73.7508 335.665 68.8897 Q331.614 64.0286 331.614 54.671 M350.37 26.1121 L350.37 26.1121 Z" fill="#000000" fill-rule="nonzero" fill-opacity="1" /><path clip-path="url(#clip810)" d="M422.679 45.1919 L422.679 72.576 L415.225 72.576 L415.225 45.4349 Q415.225 38.994 412.713 35.7938 Q410.202 32.5936 405.179 32.5936 Q399.143 32.5936 395.659 36.4419 Q392.175 40.2903 392.175 46.9338 L392.175 72.576 L384.681 72.576 L384.681 27.2059 L392.175 27.2059 L392.175 34.2544 Q394.849 30.163 398.454 28.1376 Q402.1 26.1121 406.84 26.1121 Q414.658 26.1121 418.668 30.9732 Q422.679 35.7938 422.679 45.1919 Z" fill="#000000" fill-rule="nonzero" fill-opacity="1" /><path clip-path="url(#clip810)" d="M475.259 45.1919 L475.259 72.576 L467.806 72.576 L467.806 45.4349 Q467.806 38.994 465.294 35.7938 Q462.783 32.5936 457.759 32.5936 Q451.724 32.5936 448.24 36.4419 Q444.756 40.2903 444.756 46.9338 L444.756 72.576 L437.262 72.576 L437.262 9.54393 L444.756 9.54393 L444.756 34.2544 Q447.43 30.163 451.035 28.1376 Q454.681 26.1121 459.42 26.1121 Q467.239 26.1121 471.249 30.9732 Q475.259 35.7938 475.259 45.1919 Z" fill="#000000" fill-rule="nonzero" fill-opacity="1" /><path clip-path="url(#clip810)" d="M528.934 48.0275 L528.934 51.6733 L494.663 51.6733 Q495.149 59.3701 499.281 63.421 Q503.454 67.4314 510.867 67.4314 Q515.161 67.4314 519.171 66.3781 Q523.222 65.3249 527.192 63.2184 L527.192 70.267 Q523.181 71.9684 518.969 72.8596 Q514.756 73.7508 510.421 73.7508 Q499.565 73.7508 493.205 67.4314 Q486.885 61.1119 486.885 50.3365 Q486.885 39.1965 492.881 32.6746 Q498.917 26.1121 509.125 26.1121 Q518.28 26.1121 523.587 32.0264 Q528.934 37.9003 528.934 48.0275 M521.48 45.84 Q521.399 39.7232 518.037 36.0774 Q514.715 32.4315 509.206 32.4315 Q502.967 32.4315 499.2 35.9558 Q495.473 39.4801 494.906 45.8805 L521.48 45.84 Z" fill="#000000" fill-rule="nonzero" fill-opacity="1" /><path clip-path="url(#clip810)" d="M561.787 49.7694 Q552.753 49.7694 549.269 51.8354 Q545.786 53.9013 545.786 58.8839 Q545.786 62.8538 548.378 65.2034 Q551.011 67.5124 555.508 67.5124 Q561.706 67.5124 565.432 63.1374 Q569.2 58.7219 569.2 51.4303 L569.2 49.7694 L561.787 49.7694 M576.653 46.6907 L576.653 72.576 L569.2 72.576 L569.2 65.6895 Q566.648 69.8214 562.84 71.8063 Q559.032 73.7508 553.523 73.7508 Q546.555 73.7508 542.423 69.8619 Q538.332 65.9325 538.332 59.3701 Q538.332 51.7138 543.436 47.825 Q548.581 43.9361 558.748 43.9361 L569.2 43.9361 L569.2 43.2069 Q569.2 38.0623 565.797 35.2672 Q562.435 32.4315 556.318 32.4315 Q552.429 32.4315 548.743 33.3632 Q545.056 34.295 541.654 36.1584 L541.654 29.2718 Q545.745 27.692 549.593 26.9223 Q553.442 26.1121 557.088 26.1121 Q566.931 26.1121 571.792 31.2163 Q576.653 36.3204 576.653 46.6907 Z" fill="#000000" fill-rule="nonzero" fill-opacity="1" /><path clip-path="url(#clip810)" d="M592.006 9.54393 L599.46 9.54393 L599.46 72.576 L592.006 72.576 L592.006 9.54393 Z" fill="#000000" fill-rule="nonzero" fill-opacity="1" /><path clip-path="url(#clip810)" d="M622.429 14.324 L622.429 27.2059 L637.782 27.2059 L637.782 32.9987 L622.429 32.9987 L622.429 57.6282 Q622.429 63.1779 623.927 64.7578 Q625.467 66.3376 630.125 66.3376 L637.782 66.3376 L637.782 72.576 L630.125 72.576 Q621.497 72.576 618.216 69.3758 Q614.934 66.1351 614.934 57.6282 L614.934 32.9987 L609.466 32.9987 L609.466 27.2059 L614.934 27.2059 L614.934 14.324 L622.429 14.324 Z" fill="#000000" fill-rule="nonzero" fill-opacity="1" /><path clip-path="url(#clip810)" d="M685.299 45.1919 L685.299 72.576 L677.845 72.576 L677.845 45.4349 Q677.845 38.994 675.333 35.7938 Q672.822 32.5936 667.799 32.5936 Q661.763 32.5936 658.279 36.4419 Q654.795 40.2903 654.795 46.9338 L654.795 72.576 L647.301 72.576 L647.301 9.54393 L654.795 9.54393 L654.795 34.2544 Q657.469 30.163 661.074 28.1376 Q664.72 26.1121 669.46 26.1121 Q677.278 26.1121 681.288 30.9732 Q685.299 35.7938 685.299 45.1919 Z" fill="#000000" fill-rule="nonzero" fill-opacity="1" /><path clip-path="url(#clip810)" d="M719.043 76.7889 Q715.883 84.8907 712.885 87.3618 Q709.888 89.8329 704.865 89.8329 L698.91 89.8329 L698.91 83.5945 L703.285 83.5945 Q706.363 83.5945 708.065 82.1361 Q709.766 80.6778 711.832 75.2496 L713.169 71.8468 L694.818 27.2059 L702.718 27.2059 L716.896 62.6918 L731.074 27.2059 L738.973 27.2059 L719.043 76.7889 Z" fill="#000000" fill-rule="nonzero" fill-opacity="1" /><path clip-path="url(#clip810)" d="M813.348 45.1919 L813.348 72.576 L805.894 72.576 L805.894 45.4349 Q805.894 38.994 803.383 35.7938 Q800.871 32.5936 795.848 32.5936 Q789.812 32.5936 786.328 36.4419 Q782.844 40.2903 782.844 46.9338 L782.844 72.576 L775.35 72.576 L775.35 9.54393 L782.844 9.54393 L782.844 34.2544 Q785.518 30.163 789.123 28.1376 Q792.769 26.1121 797.509 26.1121 Q805.327 26.1121 809.337 30.9732 Q813.348 35.7938 813.348 45.1919 Z" fill="#000000" fill-rule="nonzero" fill-opacity="1" /><path clip-path="url(#clip810)" d="M851.183 9.54393 L851.183 15.7418 L844.054 15.7418 Q840.043 15.7418 838.463 17.3622 Q836.924 18.9825 836.924 23.1955 L836.924 27.2059 L849.198 27.2059 L849.198 32.9987 L836.924 32.9987 L836.924 72.576 L829.43 72.576 L829.43 32.9987 L822.3 32.9987 L822.3 27.2059 L829.43 27.2059 L829.43 24.0462 Q829.43 16.471 832.954 13.0277 Q836.478 9.54393 844.135 9.54393 L851.183 9.54393 Z" fill="#000000" fill-rule="nonzero" fill-opacity="1" /><path clip-path="url(#clip810)" d="M908.666 17.6457 Q899.754 17.6457 894.487 24.2892 Q889.262 30.9327 889.262 42.3968 Q889.262 53.8203 894.487 60.4638 Q899.754 67.1073 908.666 67.1073 Q917.578 67.1073 922.763 60.4638 Q927.988 53.8203 927.988 42.3968 Q927.988 30.9327 922.763 24.2892 Q917.578 17.6457 908.666 17.6457 M908.666 11.0023 Q921.385 11.0023 929.001 19.5497 Q936.617 28.0566 936.617 42.3968 Q936.617 56.6965 929.001 65.2439 Q921.385 73.7508 908.666 73.7508 Q895.905 73.7508 888.249 65.2439 Q880.633 56.737 880.633 42.3968 Q880.633 28.0566 888.249 19.5497 Q895.905 11.0023 908.666 11.0023 Z" fill="#000000" fill-rule="nonzero" fill-opacity="1" /><path clip-path="url(#clip810)" d="M949.418 12.096 L957.6 12.096 L957.6 36.8875 L987.334 36.8875 L987.334 12.096 L995.517 12.096 L995.517 72.576 L987.334 72.576 L987.334 43.7741 L957.6 43.7741 L957.6 72.576 L949.418 72.576 L949.418 12.096 Z" fill="#000000" fill-rule="nonzero" fill-opacity="1" /><path clip-path="url(#clip810)" d="M1057.09 16.7545 L1057.09 25.383 Q1052.96 21.5346 1048.26 19.6307 Q1043.6 17.7268 1038.33 17.7268 Q1027.96 17.7268 1022.46 24.0867 Q1016.95 30.4061 1016.95 42.3968 Q1016.95 54.3469 1022.46 60.7069 Q1027.96 67.0263 1038.33 67.0263 Q1043.6 67.0263 1048.26 65.1223 Q1052.96 63.2184 1057.09 59.3701 L1057.09 67.9175 Q1052.8 70.8341 1047.98 72.2924 Q1043.2 73.7508 1037.85 73.7508 Q1024.12 73.7508 1016.22 65.3654 Q1008.32 56.9395 1008.32 42.3968 Q1008.32 27.8135 1016.22 19.4281 Q1024.12 11.0023 1037.85 11.0023 Q1043.28 11.0023 1048.06 12.4606 Q1052.88 13.8784 1057.09 16.7545 Z" fill="#000000" fill-rule="nonzero" fill-opacity="1" /><path clip-path="url(#clip810)" d="M1133.49 45.1919 L1133.49 72.576 L1126.04 72.576 L1126.04 45.4349 Q1126.04 38.994 1123.53 35.7938 Q1121.01 32.5936 1115.99 32.5936 Q1109.95 32.5936 1106.47 36.4419 Q1102.99 40.2903 1102.99 46.9338 L1102.99 72.576 L1095.49 72.576 L1095.49 27.2059 L1102.99 27.2059 L1102.99 34.2544 Q1105.66 30.163 1109.27 28.1376 Q1112.91 26.1121 1117.65 26.1121 Q1125.47 26.1121 1129.48 30.9732 Q1133.49 35.7938 1133.49 45.1919 Z" fill="#000000" fill-rule="nonzero" fill-opacity="1" /><path clip-path="url(#clip810)" d="M1165.94 32.4315 Q1159.94 32.4315 1156.46 37.1306 Q1152.98 41.7891 1152.98 49.9314 Q1152.98 58.0738 1156.42 62.7728 Q1159.9 67.4314 1165.94 67.4314 Q1171.89 67.4314 1175.38 62.7323 Q1178.86 58.0333 1178.86 49.9314 Q1178.86 41.8701 1175.38 37.1711 Q1171.89 32.4315 1165.94 32.4315 M1165.94 26.1121 Q1175.66 26.1121 1181.21 32.4315 Q1186.76 38.7509 1186.76 49.9314 Q1186.76 61.0714 1181.21 67.4314 Q1175.66 73.7508 1165.94 73.7508 Q1156.18 73.7508 1150.63 67.4314 Q1145.12 61.0714 1145.12 49.9314 Q1145.12 38.7509 1150.63 32.4315 Q1156.18 26.1121 1165.94 26.1121 Z" fill="#000000" fill-rule="nonzero" fill-opacity="1" /><path clip-path="url(#clip810)" d="M1199.12 27.2059 L1206.57 27.2059 L1206.57 72.576 L1199.12 72.576 L1199.12 27.2059 M1199.12 9.54393 L1206.57 9.54393 L1206.57 18.9825 L1199.12 18.9825 L1199.12 9.54393 Z" fill="#000000" fill-rule="nonzero" fill-opacity="1" /><path clip-path="url(#clip810)" d="M1251.09 28.5427 L1251.09 35.5912 Q1247.93 33.9709 1244.53 33.1607 Q1241.12 32.3505 1237.48 32.3505 Q1231.93 32.3505 1229.13 34.0519 Q1226.38 35.7533 1226.38 39.156 Q1226.38 41.7486 1228.36 43.2475 Q1230.35 44.7058 1236.34 46.0426 L1238.9 46.6097 Q1246.84 48.3111 1250.16 51.4303 Q1253.52 54.509 1253.52 60.0587 Q1253.52 66.3781 1248.5 70.0644 Q1243.51 73.7508 1234.76 73.7508 Q1231.12 73.7508 1227.15 73.0216 Q1223.22 72.3329 1218.84 70.9151 L1218.84 63.2184 Q1222.98 65.3654 1226.99 66.4591 Q1231 67.5124 1234.93 67.5124 Q1240.19 67.5124 1243.03 65.73 Q1245.86 63.9071 1245.86 60.6258 Q1245.86 57.5877 1243.8 55.9673 Q1241.77 54.3469 1234.84 52.8481 L1232.25 52.2405 Q1225.32 50.7821 1222.25 47.7845 Q1219.17 44.7463 1219.17 39.4801 Q1219.17 33.0797 1223.7 29.5959 Q1228.24 26.1121 1236.59 26.1121 Q1240.72 26.1121 1244.36 26.7198 Q1248.01 27.3274 1251.09 28.5427 Z" fill="#000000" fill-rule="nonzero" fill-opacity="1" /><path clip-path="url(#clip810)" d="M1304.2 48.0275 L1304.2 51.6733 L1269.93 51.6733 Q1270.41 59.3701 1274.54 63.421 Q1278.72 67.4314 1286.13 67.4314 Q1290.42 67.4314 1294.43 66.3781 Q1298.48 65.3249 1302.45 63.2184 L1302.45 70.267 Q1298.44 71.9684 1294.23 72.8596 Q1290.02 73.7508 1285.68 73.7508 Q1274.83 73.7508 1268.47 67.4314 Q1262.15 61.1119 1262.15 50.3365 Q1262.15 39.1965 1268.14 32.6746 Q1274.18 26.1121 1284.39 26.1121 Q1293.54 26.1121 1298.85 32.0264 Q1304.2 37.9003 1304.2 48.0275 M1296.74 45.84 Q1296.66 39.7232 1293.3 36.0774 Q1289.98 32.4315 1284.47 32.4315 Q1278.23 32.4315 1274.46 35.9558 Q1270.74 39.4801 1270.17 45.8805 L1296.74 45.84 Z" fill="#000000" fill-rule="nonzero" fill-opacity="1" /><path clip-path="url(#clip810)" d="M1350.17 14.324 L1350.17 27.2059 L1365.53 27.2059 L1365.53 32.9987 L1350.17 32.9987 L1350.17 57.6282 Q1350.17 63.1779 1351.67 64.7578 Q1353.21 66.3376 1357.87 66.3376 L1365.53 66.3376 L1365.53 72.576 L1357.87 72.576 Q1349.24 72.576 1345.96 69.3758 Q1342.68 66.1351 1342.68 57.6282 L1342.68 32.9987 L1337.21 32.9987 L1337.21 27.2059 L1342.68 27.2059 L1342.68 14.324 L1350.17 14.324 Z" fill="#000000" fill-rule="nonzero" fill-opacity="1" /><path clip-path="url(#clip810)" d="M1401.62 34.1734 Q1400.36 33.4443 1398.87 33.1202 Q1397.41 32.7556 1395.62 32.7556 Q1389.31 32.7556 1385.9 36.8875 Q1382.54 40.9789 1382.54 48.6757 L1382.54 72.576 L1375.05 72.576 L1375.05 27.2059 L1382.54 27.2059 L1382.54 34.2544 Q1384.89 30.1225 1388.66 28.1376 Q1392.42 26.1121 1397.81 26.1121 Q1398.58 26.1121 1399.51 26.2337 Q1400.45 26.3147 1401.58 26.5172 L1401.62 34.1734 Z" fill="#000000" fill-rule="nonzero" fill-opacity="1" /><path clip-path="url(#clip810)" d="M1430.06 49.7694 Q1421.02 49.7694 1417.54 51.8354 Q1414.06 53.9013 1414.06 58.8839 Q1414.06 62.8538 1416.65 65.2034 Q1419.28 67.5124 1423.78 67.5124 Q1429.98 67.5124 1433.7 63.1374 Q1437.47 58.7219 1437.47 51.4303 L1437.47 49.7694 L1430.06 49.7694 M1444.92 46.6907 L1444.92 72.576 L1437.47 72.576 L1437.47 65.6895 Q1434.92 69.8214 1431.11 71.8063 Q1427.3 73.7508 1421.79 73.7508 Q1414.83 73.7508 1410.69 69.8619 Q1406.6 65.9325 1406.6 59.3701 Q1406.6 51.7138 1411.71 47.825 Q1416.85 43.9361 1427.02 43.9361 L1437.47 43.9361 L1437.47 43.2069 Q1437.47 38.0623 1434.07 35.2672 Q1430.71 32.4315 1424.59 32.4315 Q1420.7 32.4315 1417.01 33.3632 Q1413.33 34.295 1409.92 36.1584 L1409.92 29.2718 Q1414.02 27.692 1417.86 26.9223 Q1421.71 26.1121 1425.36 26.1121 Q1435.2 26.1121 1440.06 31.2163 Q1444.92 36.3204 1444.92 46.6907 Z" fill="#000000" fill-rule="nonzero" fill-opacity="1" /><path clip-path="url(#clip810)" d="M1497.99 45.1919 L1497.99 72.576 L1490.54 72.576 L1490.54 45.4349 Q1490.54 38.994 1488.03 35.7938 Q1485.51 32.5936 1480.49 32.5936 Q1474.46 32.5936 1470.97 36.4419 Q1467.49 40.2903 1467.49 46.9338 L1467.49 72.576 L1459.99 72.576 L1459.99 27.2059 L1467.49 27.2059 L1467.49 34.2544 Q1470.16 30.163 1473.77 28.1376 Q1477.41 26.1121 1482.15 26.1121 Q1489.97 26.1121 1493.98 30.9732 Q1497.99 35.7938 1497.99 45.1919 Z" fill="#000000" fill-rule="nonzero" fill-opacity="1" /><path clip-path="url(#clip810)" d="M1541.78 28.5427 L1541.78 35.5912 Q1538.62 33.9709 1535.22 33.1607 Q1531.82 32.3505 1528.17 32.3505 Q1522.62 32.3505 1519.83 34.0519 Q1517.07 35.7533 1517.07 39.156 Q1517.07 41.7486 1519.06 43.2475 Q1521.04 44.7058 1527.04 46.0426 L1529.59 46.6097 Q1537.53 48.3111 1540.85 51.4303 Q1544.21 54.509 1544.21 60.0587 Q1544.21 66.3781 1539.19 70.0644 Q1534.21 73.7508 1525.46 73.7508 Q1521.81 73.7508 1517.84 73.0216 Q1513.91 72.3329 1509.54 70.9151 L1509.54 63.2184 Q1513.67 65.3654 1517.68 66.4591 Q1521.69 67.5124 1525.62 67.5124 Q1530.88 67.5124 1533.72 65.73 Q1536.56 63.9071 1536.56 60.6258 Q1536.56 57.5877 1534.49 55.9673 Q1532.46 54.3469 1525.54 52.8481 L1522.94 52.2405 Q1516.02 50.7821 1512.94 47.7845 Q1509.86 44.7463 1509.86 39.4801 Q1509.86 33.0797 1514.4 29.5959 Q1518.93 26.1121 1527.28 26.1121 Q1531.41 26.1121 1535.06 26.7198 Q1538.7 27.3274 1541.78 28.5427 Z" fill="#000000" fill-rule="nonzero" fill-opacity="1" /><path clip-path="url(#clip810)" d="M1579.05 9.54393 L1579.05 15.7418 L1571.92 15.7418 Q1567.91 15.7418 1566.33 17.3622 Q1564.79 18.9825 1564.79 23.1955 L1564.79 27.2059 L1577.06 27.2059 L1577.06 32.9987 L1564.79 32.9987 L1564.79 72.576 L1557.3 72.576 L1557.3 32.9987 L1550.17 32.9987 L1550.17 27.2059 L1557.3 27.2059 L1557.3 24.0462 Q1557.3 16.471 1560.82 13.0277 Q1564.34 9.54393 1572 9.54393 L1579.05 9.54393 Z" fill="#000000" fill-rule="nonzero" fill-opacity="1" /><path clip-path="url(#clip810)" d="M1624.1 48.0275 L1624.1 51.6733 L1589.83 51.6733 Q1590.31 59.3701 1594.44 63.421 Q1598.62 67.4314 1606.03 67.4314 Q1610.32 67.4314 1614.33 66.3781 Q1618.38 65.3249 1622.35 63.2184 L1622.35 70.267 Q1618.34 71.9684 1614.13 72.8596 Q1609.92 73.7508 1605.58 73.7508 Q1594.73 73.7508 1588.37 67.4314 Q1582.05 61.1119 1582.05 50.3365 Q1582.05 39.1965 1588.04 32.6746 Q1594.08 26.1121 1604.29 26.1121 Q1613.44 26.1121 1618.75 32.0264 Q1624.1 37.9003 1624.1 48.0275 M1616.64 45.84 Q1616.56 39.7232 1613.2 36.0774 Q1609.88 32.4315 1604.37 32.4315 Q1598.13 32.4315 1594.36 35.9558 Q1590.64 39.4801 1590.07 45.8805 L1616.64 45.84 Z" fill="#000000" fill-rule="nonzero" fill-opacity="1" /><path clip-path="url(#clip810)" d="M1662.62 34.1734 Q1661.36 33.4443 1659.87 33.1202 Q1658.41 32.7556 1656.62 32.7556 Q1650.31 32.7556 1646.9 36.8875 Q1643.54 40.9789 1643.54 48.6757 L1643.54 72.576 L1636.05 72.576 L1636.05 27.2059 L1643.54 27.2059 L1643.54 34.2544 Q1645.89 30.1225 1649.66 28.1376 Q1653.42 26.1121 1658.81 26.1121 Q1659.58 26.1121 1660.51 26.2337 Q1661.45 26.3147 1662.58 26.5172 L1662.62 34.1734 Z" fill="#000000" fill-rule="nonzero" fill-opacity="1" /><path clip-path="url(#clip810)" d="M1719.78 9.54393 L1719.78 15.7418 L1712.65 15.7418 Q1708.64 15.7418 1707.06 17.3622 Q1705.52 18.9825 1705.52 23.1955 L1705.52 27.2059 L1717.79 27.2059 L1717.79 32.9987 L1705.52 32.9987 L1705.52 72.576 L1698.02 72.576 L1698.02 32.9987 L1690.9 32.9987 L1690.9 27.2059 L1698.02 27.2059 L1698.02 24.0462 Q1698.02 16.471 1701.55 13.0277 Q1705.07 9.54393 1712.73 9.54393 L1719.78 9.54393 Z" fill="#000000" fill-rule="nonzero" fill-opacity="1" /><path clip-path="url(#clip810)" d="M1725.25 54.671 L1725.25 27.2059 L1732.7 27.2059 L1732.7 54.3874 Q1732.7 60.8284 1735.21 64.0691 Q1737.72 67.2693 1742.75 67.2693 Q1748.78 67.2693 1752.27 63.421 Q1755.79 59.5726 1755.79 52.9291 L1755.79 27.2059 L1763.24 27.2059 L1763.24 72.576 L1755.79 72.576 L1755.79 65.6084 Q1753.08 69.7404 1749.47 71.7658 Q1745.91 73.7508 1741.17 73.7508 Q1733.35 73.7508 1729.3 68.8897 Q1725.25 64.0286 1725.25 54.671 M1744 26.1121 L1744 26.1121 Z" fill="#000000" fill-rule="nonzero" fill-opacity="1" /><path clip-path="url(#clip810)" d="M1816.31 45.1919 L1816.31 72.576 L1808.86 72.576 L1808.86 45.4349 Q1808.86 38.994 1806.35 35.7938 Q1803.83 32.5936 1798.81 32.5936 Q1792.78 32.5936 1789.29 36.4419 Q1785.81 40.2903 1785.81 46.9338 L1785.81 72.576 L1778.31 72.576 L1778.31 27.2059 L1785.81 27.2059 L1785.81 34.2544 Q1788.48 30.163 1792.09 28.1376 Q1795.73 26.1121 1800.47 26.1121 Q1808.29 26.1121 1812.3 30.9732 Q1816.31 35.7938 1816.31 45.1919 Z" fill="#000000" fill-rule="nonzero" fill-opacity="1" /><path clip-path="url(#clip810)" d="M1863.83 28.9478 L1863.83 35.9153 Q1860.67 34.1734 1857.47 33.3227 Q1854.31 32.4315 1851.07 32.4315 Q1843.82 32.4315 1839.81 37.0496 Q1835.8 41.6271 1835.8 49.9314 Q1835.8 58.2358 1839.81 62.8538 Q1843.82 67.4314 1851.07 67.4314 Q1854.31 67.4314 1857.47 66.5807 Q1860.67 65.6895 1863.83 63.9476 L1863.83 70.8341 Q1860.71 72.2924 1857.35 73.0216 Q1854.03 73.7508 1850.26 73.7508 Q1840.01 73.7508 1833.97 67.3098 Q1827.94 60.8689 1827.94 49.9314 Q1827.94 38.832 1834.01 32.472 Q1840.13 26.1121 1850.74 26.1121 Q1854.19 26.1121 1857.47 26.8413 Q1860.75 27.5299 1863.83 28.9478 Z" fill="#000000" fill-rule="nonzero" fill-opacity="1" /><path clip-path="url(#clip810)" d="M1884.16 14.324 L1884.16 27.2059 L1899.52 27.2059 L1899.52 32.9987 L1884.16 32.9987 L1884.16 57.6282 Q1884.16 63.1779 1885.66 64.7578 Q1887.2 66.3376 1891.86 66.3376 L1899.52 66.3376 L1899.52 72.576 L1891.86 72.576 Q1883.23 72.576 1879.95 69.3758 Q1876.67 66.1351 1876.67 57.6282 L1876.67 32.9987 L1871.2 32.9987 L1871.2 27.2059 L1876.67 27.2059 L1876.67 14.324 L1884.16 14.324 Z" fill="#000000" fill-rule="nonzero" fill-opacity="1" /><path clip-path="url(#clip810)" d="M1909.32 27.2059 L1916.77 27.2059 L1916.77 72.576 L1909.32 72.576 L1909.32 27.2059 M1909.32 9.54393 L1916.77 9.54393 L1916.77 18.9825 L1909.32 18.9825 L1909.32 9.54393 Z" fill="#000000" fill-rule="nonzero" fill-opacity="1" /><path clip-path="url(#clip810)" d="M1949.95 32.4315 Q1943.96 32.4315 1940.47 37.1306 Q1936.99 41.7891 1936.99 49.9314 Q1936.99 58.0738 1940.43 62.7728 Q1943.91 67.4314 1949.95 67.4314 Q1955.91 67.4314 1959.39 62.7323 Q1962.87 58.0333 1962.87 49.9314 Q1962.87 41.8701 1959.39 37.1711 Q1955.91 32.4315 1949.95 32.4315 M1949.95 26.1121 Q1959.67 26.1121 1965.22 32.4315 Q1970.77 38.7509 1970.77 49.9314 Q1970.77 61.0714 1965.22 67.4314 Q1959.67 73.7508 1949.95 73.7508 Q1940.19 73.7508 1934.64 67.4314 Q1929.13 61.0714 1929.13 49.9314 Q1929.13 38.7509 1934.64 32.4315 Q1940.19 26.1121 1949.95 26.1121 Z" fill="#000000" fill-rule="nonzero" fill-opacity="1" /><path clip-path="url(#clip810)" d="M2020.84 45.1919 L2020.84 72.576 L2013.39 72.576 L2013.39 45.4349 Q2013.39 38.994 2010.88 35.7938 Q2008.36 32.5936 2003.34 32.5936 Q1997.31 32.5936 1993.82 36.4419 Q1990.34 40.2903 1990.34 46.9338 L1990.34 72.576 L1982.84 72.576 L1982.84 27.2059 L1990.34 27.2059 L1990.34 34.2544 Q1993.01 30.163 1996.62 28.1376 Q2000.26 26.1121 2005 26.1121 Q2012.82 26.1121 2016.83 30.9732 Q2020.84 35.7938 2020.84 45.1919 Z" fill="#000000" fill-rule="nonzero" fill-opacity="1" /><path clip-path="url(#clip810)" d="M2088.37 34.1734 Q2087.11 33.4443 2085.62 33.1202 Q2084.16 32.7556 2082.37 32.7556 Q2076.06 32.7556 2072.65 36.8875 Q2069.29 40.9789 2069.29 48.6757 L2069.29 72.576 L2061.8 72.576 L2061.8 27.2059 L2069.29 27.2059 L2069.29 34.2544 Q2071.64 30.1225 2075.41 28.1376 Q2079.17 26.1121 2084.56 26.1121 Q2085.33 26.1121 2086.26 26.2337 Q2087.2 26.3147 2088.33 26.5172 L2088.37 34.1734 Z" fill="#000000" fill-rule="nonzero" fill-opacity="1" /><path clip-path="url(#clip810)" d="M2116.81 49.7694 Q2107.77 49.7694 2104.29 51.8354 Q2100.81 53.9013 2100.81 58.8839 Q2100.81 62.8538 2103.4 65.2034 Q2106.03 67.5124 2110.53 67.5124 Q2116.73 67.5124 2120.45 63.1374 Q2124.22 58.7219 2124.22 51.4303 L2124.22 49.7694 L2116.81 49.7694 M2131.67 46.6907 L2131.67 72.576 L2124.22 72.576 L2124.22 65.6895 Q2121.67 69.8214 2117.86 71.8063 Q2114.05 73.7508 2108.54 73.7508 Q2101.58 73.7508 2097.44 69.8619 Q2093.35 65.9325 2093.35 59.3701 Q2093.35 51.7138 2098.46 47.825 Q2103.6 43.9361 2113.77 43.9361 L2124.22 43.9361 L2124.22 43.2069 Q2124.22 38.0623 2120.82 35.2672 Q2117.46 32.4315 2111.34 32.4315 Q2107.45 32.4315 2103.76 33.3632 Q2100.08 34.295 2096.67 36.1584 L2096.67 29.2718 Q2100.77 27.692 2104.61 26.9223 Q2108.46 26.1121 2112.11 26.1121 Q2121.95 26.1121 2126.81 31.2163 Q2131.67 36.3204 2131.67 46.6907 Z" fill="#000000" fill-rule="nonzero" fill-opacity="1" /><path clip-path="url(#clip810)" d="M2154.4 14.324 L2154.4 27.2059 L2169.75 27.2059 L2169.75 32.9987 L2154.4 32.9987 L2154.4 57.6282 Q2154.4 63.1779 2155.9 64.7578 Q2157.44 66.3376 2162.1 66.3376 L2169.75 66.3376 L2169.75 72.576 L2162.1 72.576 Q2153.47 72.576 2150.19 69.3758 Q2146.91 66.1351 2146.91 57.6282 L2146.91 32.9987 L2141.44 32.9987 L2141.44 27.2059 L2146.91 27.2059 L2146.91 14.324 L2154.4 14.324 Z" fill="#000000" fill-rule="nonzero" fill-opacity="1" /><path clip-path="url(#clip810)" d="M2179.56 27.2059 L2187.01 27.2059 L2187.01 72.576 L2179.56 72.576 L2179.56 27.2059 M2179.56 9.54393 L2187.01 9.54393 L2187.01 18.9825 L2179.56 18.9825 L2179.56 9.54393 Z" fill="#000000" fill-rule="nonzero" fill-opacity="1" /><path clip-path="url(#clip810)" d="M2220.19 32.4315 Q2214.19 32.4315 2210.71 37.1306 Q2207.22 41.7891 2207.22 49.9314 Q2207.22 58.0738 2210.67 62.7728 Q2214.15 67.4314 2220.19 67.4314 Q2226.14 67.4314 2229.62 62.7323 Q2233.11 58.0333 2233.11 49.9314 Q2233.11 41.8701 2229.62 37.1711 Q2226.14 32.4315 2220.19 32.4315 M2220.19 26.1121 Q2229.91 26.1121 2235.46 32.4315 Q2241.01 38.7509 2241.01 49.9314 Q2241.01 61.0714 2235.46 67.4314 Q2229.91 73.7508 2220.19 73.7508 Q2210.42 73.7508 2204.87 67.4314 Q2199.36 61.0714 2199.36 49.9314 Q2199.36 38.7509 2204.87 32.4315 Q2210.42 26.1121 2220.19 26.1121 Z" fill="#000000" fill-rule="nonzero" fill-opacity="1" /><polyline clip-path="url(#clip812)" style="stroke:#009af9; stroke-linecap:round; stroke-linejoin:round; stroke-width:4; stroke-opacity:1; fill:none" points="280.231,160.256 308.976,354.141 337.721,583.484 366.466,796.102 395.212,957.916 423.957,1077.84 452.702,1165.01 481.447,1223.2 510.192,1263.44 538.937,1294.49 567.683,1317.07 596.428,1333.06 625.173,1344.82 653.918,1354.1 682.663,1361.47 711.408,1367.52 740.153,1372.6 768.899,1375.96 797.644,1378.19 826.389,1380.23 855.134,1381.79 883.879,1383.54 912.624,1385.39 941.369,1386.21 970.115,1386.4 998.86,1385.95 1027.6,1385.27 1056.35,1385.38 1085.1,1385.53 1113.84,1385.44 1142.59,1385.3 1171.33,1384.64 1200.08,1383.86 1228.82,1383.24 1257.57,1382.23 1286.31,1350.92 1315.06,1291.64 1343.8,1202.19 1372.55,1085.69 1401.29,960.125 1430.04,843.931 1458.78,730.873 1487.53,629.953 1516.27,541.88 1545.02,466.18 1573.76,407.193 1602.51,357.901 1631.25,318.491 1660,280.371 1688.74,247.376 1717.49,226.414 1746.23,198.504 1774.98,180.161 1803.72,175.526 1832.47,182.502 1861.21,209.997 1889.96,230.894 1918.7,213.657 1947.45,230.557 1976.19,293.449 2004.94,325.671 2033.68,302.334 2062.43,302.102 2091.18,336.903 2119.92,392.209 2148.67,466.218 2177.41,510.074 2206.16,462.823 2234.9,488.276 2263.65,569.363 2292.39,572.286 "/>
<path clip-path="url(#clip810)" d="M2015.94 1379.86 L2281.66 1379.86 L2281.66 1276.18 L2015.94 1276.18  Z" fill="#ffffff" fill-rule="evenodd" fill-opacity="1"/>
<polyline clip-path="url(#clip810)" style="stroke:#000000; stroke-linecap:round; stroke-linejoin:round; stroke-width:4; stroke-opacity:1; fill:none" points="2015.94,1379.86 2281.66,1379.86 2281.66,1276.18 2015.94,1276.18 2015.94,1379.86 "/>
<polyline clip-path="url(#clip810)" style="stroke:#009af9; stroke-linecap:round; stroke-linejoin:round; stroke-width:4; stroke-opacity:1; fill:none" points="2039.64,1328.02 2181.83,1328.02 "/>
<path clip-path="url(#clip810)" d="M2219.37 1347.7 Q2217.57 1352.33 2215.85 1353.75 Q2214.14 1355.16 2211.27 1355.16 L2207.87 1355.16 L2207.87 1351.59 L2210.37 1351.59 Q2212.13 1351.59 2213.1 1350.76 Q2214.07 1349.93 2215.25 1346.82 L2216.02 1344.88 L2205.53 1319.37 L2210.04 1319.37 L2218.15 1339.65 L2226.25 1319.37 L2230.76 1319.37 L2219.37 1347.7 Z" fill="#000000" fill-rule="nonzero" fill-opacity="1" /><path clip-path="url(#clip810)" d="M2238.05 1341.36 L2245.69 1341.36 L2245.69 1315 L2237.38 1316.66 L2237.38 1312.4 L2245.65 1310.74 L2250.32 1310.74 L2250.32 1341.36 L2257.96 1341.36 L2257.96 1345.3 L2238.05 1345.3 L2238.05 1341.36 Z" fill="#000000" fill-rule="nonzero" fill-opacity="1" /></svg>
