<?xml version="1.0" encoding="utf-8"?>
<svg xmlns="http://www.w3.org/2000/svg" xmlns:xlink="http://www.w3.org/1999/xlink" width="600" height="400" viewBox="0 0 2400 1600">
<defs>
  <clipPath id="clip600">
    <rect x="0" y="0" width="2400" height="1600"/>
  </clipPath>
</defs>
<path clip-path="url(#clip600)" d="M0 1600 L2400 1600 L2400 0 L0 0  Z" fill="#ffffff" fill-rule="evenodd" fill-opacity="1"/>
<defs>
  <clipPath id="clip601">
    <rect x="480" y="0" width="1681" height="1600"/>
  </clipPath>
</defs>
<path clip-path="url(#clip600)" d="M156.598 1486.45 L2352.76 1486.45 L2352.76 123.472 L156.598 123.472  Z" fill="#ffffff" fill-rule="evenodd" fill-opacity="1"/>
<defs>
  <clipPath id="clip602">
    <rect x="156" y="123" width="2197" height="1364"/>
  </clipPath>
</defs>
<polyline clip-path="url(#clip602)" style="stroke:#000000; stroke-linecap:round; stroke-linejoin:round; stroke-width:2; stroke-opacity:0.1; fill:none" points="189.156,1486.45 189.156,123.472 "/>
<polyline clip-path="url(#clip602)" style="stroke:#000000; stroke-linecap:round; stroke-linejoin:round; stroke-width:2; stroke-opacity:0.1; fill:none" points="781.112,1486.45 781.112,123.472 "/>
<polyline clip-path="url(#clip602)" style="stroke:#000000; stroke-linecap:round; stroke-linejoin:round; stroke-width:2; stroke-opacity:0.1; fill:none" points="1373.07,1486.45 1373.07,123.472 "/>
<polyline clip-path="url(#clip602)" style="stroke:#000000; stroke-linecap:round; stroke-linejoin:round; stroke-width:2; stroke-opacity:0.1; fill:none" points="1965.02,1486.45 1965.02,123.472 "/>
<polyline clip-path="url(#clip602)" style="stroke:#000000; stroke-linecap:round; stroke-linejoin:round; stroke-width:2; stroke-opacity:0.1; fill:none" points="156.598,1486.45 2352.76,1486.45 "/>
<polyline clip-path="url(#clip602)" style="stroke:#000000; stroke-linecap:round; stroke-linejoin:round; stroke-width:2; stroke-opacity:0.1; fill:none" points="156.598,1213.85 2352.76,1213.85 "/>
<polyline clip-path="url(#clip602)" style="stroke:#000000; stroke-linecap:round; stroke-linejoin:round; stroke-width:2; stroke-opacity:0.1; fill:none" points="156.598,941.258 2352.76,941.258 "/>
<polyline clip-path="url(#clip602)" style="stroke:#000000; stroke-linecap:round; stroke-linejoin:round; stroke-width:2; stroke-opacity:0.1; fill:none" points="156.598,668.662 2352.76,668.662 "/>
<polyline clip-path="url(#clip602)" style="stroke:#000000; stroke-linecap:round; stroke-linejoin:round; stroke-width:2; stroke-opacity:0.1; fill:none" points="156.598,396.067 2352.76,396.067 "/>
<polyline clip-path="url(#clip602)" style="stroke:#000000; stroke-linecap:round; stroke-linejoin:round; stroke-width:2; stroke-opacity:0.1; fill:none" points="156.598,123.472 2352.76,123.472 "/>
<polyline clip-path="url(#clip600)" style="stroke:#000000; stroke-linecap:round; stroke-linejoin:round; stroke-width:4; stroke-opacity:1; fill:none" points="156.598,1486.45 2352.76,1486.45 "/>
<polyline clip-path="url(#clip600)" style="stroke:#000000; stroke-linecap:round; stroke-linejoin:round; stroke-width:4; stroke-opacity:1; fill:none" points="189.156,1486.45 189.156,1467.55 "/>
<polyline clip-path="url(#clip600)" style="stroke:#000000; stroke-linecap:round; stroke-linejoin:round; stroke-width:4; stroke-opacity:1; fill:none" points="781.112,1486.45 781.112,1467.55 "/>
<polyline clip-path="url(#clip600)" style="stroke:#000000; stroke-linecap:round; stroke-linejoin:round; stroke-width:4; stroke-opacity:1; fill:none" points="1373.07,1486.45 1373.07,1467.55 "/>
<polyline clip-path="url(#clip600)" style="stroke:#000000; stroke-linecap:round; stroke-linejoin:round; stroke-width:4; stroke-opacity:1; fill:none" points="1965.02,1486.45 1965.02,1467.55 "/>
<path clip-path="url(#clip600)" d="M189.156 1517.37 Q185.545 1517.37 183.716 1520.93 Q181.91 1524.47 181.91 1531.6 Q181.91 1538.71 183.716 1542.27 Q185.545 1545.82 189.156 1545.82 Q192.79 1545.82 194.596 1542.27 Q196.424 1538.71 196.424 1531.6 Q196.424 1524.47 194.596 1520.93 Q192.79 1517.37 189.156 1517.37 M189.156 1513.66 Q194.966 1513.66 198.022 1518.27 Q201.1 1522.85 201.1 1531.6 Q201.1 1540.33 198.022 1544.94 Q194.966 1549.52 189.156 1549.52 Q183.346 1549.52 180.267 1544.94 Q177.211 1540.33 177.211 1531.6 Q177.211 1522.85 180.267 1518.27 Q183.346 1513.66 189.156 1513.66 Z" fill="#000000" fill-rule="nonzero" fill-opacity="1" /><path clip-path="url(#clip600)" d="M759.885 1544.91 L776.205 1544.91 L776.205 1548.85 L754.26 1548.85 L754.26 1544.91 Q756.922 1542.16 761.506 1537.53 Q766.112 1532.88 767.293 1531.53 Q769.538 1529.01 770.418 1527.27 Q771.32 1525.51 771.32 1523.82 Q771.32 1521.07 769.376 1519.33 Q767.455 1517.6 764.353 1517.6 Q762.154 1517.6 759.7 1518.36 Q757.27 1519.13 754.492 1520.68 L754.492 1515.95 Q757.316 1514.82 759.77 1514.24 Q762.223 1513.66 764.26 1513.66 Q769.631 1513.66 772.825 1516.35 Q776.02 1519.03 776.02 1523.52 Q776.02 1525.65 775.209 1527.57 Q774.422 1529.47 772.316 1532.07 Q771.737 1532.74 768.635 1535.95 Q765.533 1539.15 759.885 1544.91 Z" fill="#000000" fill-rule="nonzero" fill-opacity="1" /><path clip-path="url(#clip600)" d="M796.019 1517.37 Q792.408 1517.37 790.58 1520.93 Q788.774 1524.47 788.774 1531.6 Q788.774 1538.71 790.58 1542.27 Q792.408 1545.82 796.019 1545.82 Q799.654 1545.82 801.459 1542.27 Q803.288 1538.71 803.288 1531.6 Q803.288 1524.47 801.459 1520.93 Q799.654 1517.37 796.019 1517.37 M796.019 1513.66 Q801.83 1513.66 804.885 1518.27 Q807.964 1522.85 807.964 1531.6 Q807.964 1540.33 804.885 1544.94 Q801.83 1549.52 796.019 1549.52 Q790.209 1549.52 787.131 1544.94 Q784.075 1540.33 784.075 1531.6 Q784.075 1522.85 787.131 1518.27 Q790.209 1513.66 796.019 1513.66 Z" fill="#000000" fill-rule="nonzero" fill-opacity="1" /><path clip-path="url(#clip600)" d="M1361.24 1518.36 L1349.43 1536.81 L1361.24 1536.81 L1361.24 1518.36 M1360.01 1514.29 L1365.89 1514.29 L1365.89 1536.81 L1370.82 1536.81 L1370.82 1540.7 L1365.89 1540.7 L1365.89 1548.85 L1361.24 1548.85 L1361.24 1540.7 L1345.64 1540.7 L1345.64 1536.19 L1360.01 1514.29 Z" fill="#000000" fill-rule="nonzero" fill-opacity="1" /><path clip-path="url(#clip600)" d="M1388.55 1517.37 Q1384.94 1517.37 1383.11 1520.93 Q1381.31 1524.47 1381.31 1531.6 Q1381.31 1538.71 1383.11 1542.27 Q1384.94 1545.82 1388.55 1545.82 Q1392.19 1545.82 1393.99 1542.27 Q1395.82 1538.71 1395.82 1531.6 Q1395.82 1524.47 1393.99 1520.93 Q1392.19 1517.37 1388.55 1517.37 M1388.55 1513.66 Q1394.36 1513.66 1397.42 1518.27 Q1400.5 1522.85 1400.5 1531.6 Q1400.5 1540.33 1397.42 1544.94 Q1394.36 1549.52 1388.55 1549.52 Q1382.74 1549.52 1379.67 1544.94 Q1376.61 1540.33 1376.61 1531.6 Q1376.61 1522.85 1379.67 1518.27 Q1382.74 1513.66 1388.55 1513.66 Z" fill="#000000" fill-rule="nonzero" fill-opacity="1" /><path clip-path="url(#clip600)" d="M1950.43 1529.7 Q1947.28 1529.7 1945.43 1531.86 Q1943.6 1534.01 1943.6 1537.76 Q1943.6 1541.49 1945.43 1543.66 Q1947.28 1545.82 1950.43 1545.82 Q1953.58 1545.82 1955.41 1543.66 Q1957.26 1541.49 1957.26 1537.76 Q1957.26 1534.01 1955.41 1531.86 Q1953.58 1529.7 1950.43 1529.7 M1959.71 1515.05 L1959.71 1519.31 Q1957.95 1518.48 1956.15 1518.04 Q1954.36 1517.6 1952.61 1517.6 Q1947.98 1517.6 1945.52 1520.72 Q1943.09 1523.85 1942.74 1530.17 Q1944.11 1528.15 1946.17 1527.09 Q1948.23 1526 1950.71 1526 Q1955.92 1526 1958.93 1529.17 Q1961.96 1532.32 1961.96 1537.76 Q1961.96 1543.08 1958.81 1546.3 Q1955.66 1549.52 1950.43 1549.52 Q1944.43 1549.52 1941.26 1544.94 Q1938.09 1540.33 1938.09 1531.6 Q1938.09 1523.41 1941.98 1518.55 Q1945.87 1513.66 1952.42 1513.66 Q1954.18 1513.66 1955.96 1514.01 Q1957.77 1514.36 1959.71 1515.05 Z" fill="#000000" fill-rule="nonzero" fill-opacity="1" /><path clip-path="url(#clip600)" d="M1980.01 1517.37 Q1976.4 1517.37 1974.57 1520.93 Q1972.77 1524.47 1972.77 1531.6 Q1972.77 1538.71 1974.57 1542.27 Q1976.4 1545.82 1980.01 1545.82 Q1983.65 1545.82 1985.45 1542.27 Q1987.28 1538.71 1987.28 1531.6 Q1987.28 1524.47 1985.45 1520.93 Q1983.65 1517.37 1980.01 1517.37 M1980.01 1513.66 Q1985.82 1513.66 1988.88 1518.27 Q1991.96 1522.85 1991.96 1531.6 Q1991.96 1540.33 1988.88 1544.94 Q1985.82 1549.52 1980.01 1549.52 Q1974.2 1549.52 1971.12 1544.94 Q1968.07 1540.33 1968.07 1531.6 Q1968.07 1522.85 1971.12 1518.27 Q1974.2 1513.66 1980.01 1513.66 Z" fill="#000000" fill-rule="nonzero" fill-opacity="1" /><polyline clip-path="url(#clip600)" style="stroke:#000000; stroke-linecap:round; stroke-linejoin:round; stroke-width:4; stroke-opacity:1; fill:none" points="156.598,1486.45 156.598,123.472 "/>
<polyline clip-path="url(#clip600)" style="stroke:#000000; stroke-linecap:round; stroke-linejoin:round; stroke-width:4; stroke-opacity:1; fill:none" points="156.598,1486.45 175.496,1486.45 "/>
<polyline clip-path="url(#clip600)" style="stroke:#000000; stroke-linecap:round; stroke-linejoin:round; stroke-width:4; stroke-opacity:1; fill:none" points="156.598,1213.85 175.496,1213.85 "/>
<polyline clip-path="url(#clip600)" style="stroke:#000000; stroke-linecap:round; stroke-linejoin:round; stroke-width:4; stroke-opacity:1; fill:none" points="156.598,941.258 175.496,941.258 "/>
<polyline clip-path="url(#clip600)" style="stroke:#000000; stroke-linecap:round; stroke-linejoin:round; stroke-width:4; stroke-opacity:1; fill:none" points="156.598,668.662 175.496,668.662 "/>
<polyline clip-path="url(#clip600)" style="stroke:#000000; stroke-linecap:round; stroke-linejoin:round; stroke-width:4; stroke-opacity:1; fill:none" points="156.598,396.067 175.496,396.067 "/>
<polyline clip-path="url(#clip600)" style="stroke:#000000; stroke-linecap:round; stroke-linejoin:round; stroke-width:4; stroke-opacity:1; fill:none" points="156.598,123.472 175.496,123.472 "/>
<path clip-path="url(#clip600)" d="M63.4226 1472.25 Q59.8115 1472.25 57.9828 1475.81 Q56.1773 1479.35 56.1773 1486.48 Q56.1773 1493.59 57.9828 1497.15 Q59.8115 1500.7 63.4226 1500.7 Q67.0569 1500.7 68.8624 1497.15 Q70.6911 1493.59 70.6911 1486.48 Q70.6911 1479.35 68.8624 1475.81 Q67.0569 1472.25 63.4226 1472.25 M63.4226 1468.54 Q69.2328 1468.54 72.2883 1473.15 Q75.367 1477.73 75.367 1486.48 Q75.367 1495.21 72.2883 1499.82 Q69.2328 1504.4 63.4226 1504.4 Q57.6125 1504.4 54.5338 1499.82 Q51.4782 1495.21 51.4782 1486.48 Q51.4782 1477.73 54.5338 1473.15 Q57.6125 1468.54 63.4226 1468.54 Z" fill="#000000" fill-rule="nonzero" fill-opacity="1" /><path clip-path="url(#clip600)" d="M83.5845 1497.85 L88.4688 1497.85 L88.4688 1503.73 L83.5845 1503.73 L83.5845 1497.85 Z" fill="#000000" fill-rule="nonzero" fill-opacity="1" /><path clip-path="url(#clip600)" d="M108.654 1472.25 Q105.043 1472.25 103.214 1475.81 Q101.409 1479.35 101.409 1486.48 Q101.409 1493.59 103.214 1497.15 Q105.043 1500.7 108.654 1500.7 Q112.288 1500.7 114.094 1497.15 Q115.922 1493.59 115.922 1486.48 Q115.922 1479.35 114.094 1475.81 Q112.288 1472.25 108.654 1472.25 M108.654 1468.54 Q114.464 1468.54 117.52 1473.15 Q120.598 1477.73 120.598 1486.48 Q120.598 1495.21 117.52 1499.82 Q114.464 1504.4 108.654 1504.4 Q102.844 1504.4 99.765 1499.82 Q96.7095 1495.21 96.7095 1486.48 Q96.7095 1477.73 99.765 1473.15 Q102.844 1468.54 108.654 1468.54 Z" fill="#000000" fill-rule="nonzero" fill-opacity="1" /><path clip-path="url(#clip600)" d="M65.0198 1199.65 Q61.4087 1199.65 59.58 1203.22 Q57.7745 1206.76 57.7745 1213.89 Q57.7745 1220.99 59.58 1224.56 Q61.4087 1228.1 65.0198 1228.1 Q68.6541 1228.1 70.4596 1224.56 Q72.2883 1220.99 72.2883 1213.89 Q72.2883 1206.76 70.4596 1203.22 Q68.6541 1199.65 65.0198 1199.65 M65.0198 1195.95 Q70.83 1195.95 73.8855 1200.55 Q76.9642 1205.14 76.9642 1213.89 Q76.9642 1222.61 73.8855 1227.22 Q70.83 1231.8 65.0198 1231.8 Q59.2097 1231.8 56.131 1227.22 Q53.0754 1222.61 53.0754 1213.89 Q53.0754 1205.14 56.131 1200.55 Q59.2097 1195.95 65.0198 1195.95 Z" fill="#000000" fill-rule="nonzero" fill-opacity="1" /><path clip-path="url(#clip600)" d="M85.1818 1225.25 L90.066 1225.25 L90.066 1231.13 L85.1818 1231.13 L85.1818 1225.25 Z" fill="#000000" fill-rule="nonzero" fill-opacity="1" /><path clip-path="url(#clip600)" d="M104.279 1227.2 L120.598 1227.2 L120.598 1231.13 L98.6539 1231.13 L98.6539 1227.2 Q101.316 1224.44 105.899 1219.81 Q110.506 1215.16 111.686 1213.82 Q113.932 1211.29 114.811 1209.56 Q115.714 1207.8 115.714 1206.11 Q115.714 1203.36 113.77 1201.62 Q111.848 1199.88 108.746 1199.88 Q106.547 1199.88 104.094 1200.65 Q101.663 1201.41 98.8854 1202.96 L98.8854 1198.24 Q101.709 1197.11 104.163 1196.53 Q106.617 1195.95 108.654 1195.95 Q114.024 1195.95 117.219 1198.63 Q120.413 1201.32 120.413 1205.81 Q120.413 1207.94 119.603 1209.86 Q118.816 1211.76 116.709 1214.35 Q116.131 1215.02 113.029 1218.24 Q109.927 1221.43 104.279 1227.2 Z" fill="#000000" fill-rule="nonzero" fill-opacity="1" /><path clip-path="url(#clip600)" d="M62.9365 927.056 Q59.3254 927.056 57.4967 930.621 Q55.6912 934.163 55.6912 941.292 Q55.6912 948.399 57.4967 951.964 Q59.3254 955.505 62.9365 955.505 Q66.5707 955.505 68.3763 951.964 Q70.205 948.399 70.205 941.292 Q70.205 934.163 68.3763 930.621 Q66.5707 927.056 62.9365 927.056 M62.9365 923.353 Q68.7467 923.353 71.8022 927.959 Q74.8809 932.542 74.8809 941.292 Q74.8809 950.019 71.8022 954.626 Q68.7467 959.209 62.9365 959.209 Q57.1264 959.209 54.0477 954.626 Q50.9921 950.019 50.9921 941.292 Q50.9921 932.542 54.0477 927.959 Q57.1264 923.353 62.9365 923.353 Z" fill="#000000" fill-rule="nonzero" fill-opacity="1" /><path clip-path="url(#clip600)" d="M83.0984 952.658 L87.9827 952.658 L87.9827 958.538 L83.0984 958.538 L83.0984 952.658 Z" fill="#000000" fill-rule="nonzero" fill-opacity="1" /><path clip-path="url(#clip600)" d="M111.015 928.052 L99.2095 946.501 L111.015 946.501 L111.015 928.052 M109.788 923.978 L115.668 923.978 L115.668 946.501 L120.598 946.501 L120.598 950.389 L115.668 950.389 L115.668 958.538 L111.015 958.538 L111.015 950.389 L95.4132 950.389 L95.4132 945.876 L109.788 923.978 Z" fill="#000000" fill-rule="nonzero" fill-opacity="1" /><path clip-path="url(#clip600)" d="M63.2606 654.461 Q59.6495 654.461 57.8208 658.026 Q56.0152 661.568 56.0152 668.697 Q56.0152 675.804 57.8208 679.368 Q59.6495 682.91 63.2606 682.91 Q66.8948 682.91 68.7004 679.368 Q70.5291 675.804 70.5291 668.697 Q70.5291 661.568 68.7004 658.026 Q66.8948 654.461 63.2606 654.461 M63.2606 650.757 Q69.0707 650.757 72.1263 655.364 Q75.205 659.947 75.205 668.697 Q75.205 677.424 72.1263 682.03 Q69.0707 686.614 63.2606 686.614 Q57.4504 686.614 54.3717 682.03 Q51.3162 677.424 51.3162 668.697 Q51.3162 659.947 54.3717 655.364 Q57.4504 650.757 63.2606 650.757 Z" fill="#000000" fill-rule="nonzero" fill-opacity="1" /><path clip-path="url(#clip600)" d="M83.4225 680.063 L88.3067 680.063 L88.3067 685.942 L83.4225 685.942 L83.4225 680.063 Z" fill="#000000" fill-rule="nonzero" fill-opacity="1" /><path clip-path="url(#clip600)" d="M109.071 666.799 Q105.922 666.799 104.071 668.952 Q102.242 671.105 102.242 674.855 Q102.242 678.581 104.071 680.757 Q105.922 682.91 109.071 682.91 Q112.219 682.91 114.047 680.757 Q115.899 678.581 115.899 674.855 Q115.899 671.105 114.047 668.952 Q112.219 666.799 109.071 666.799 M118.353 652.146 L118.353 656.406 Q116.594 655.572 114.788 655.132 Q113.006 654.693 111.246 654.693 Q106.617 654.693 104.163 657.818 Q101.733 660.943 101.385 667.262 Q102.751 665.248 104.811 664.183 Q106.871 663.095 109.348 663.095 Q114.557 663.095 117.566 666.267 Q120.598 669.415 120.598 674.855 Q120.598 680.179 117.45 683.396 Q114.302 686.614 109.071 686.614 Q103.075 686.614 99.9039 682.03 Q96.7326 677.424 96.7326 668.697 Q96.7326 660.503 100.621 655.642 Q104.51 650.757 111.061 650.757 Q112.82 650.757 114.603 651.105 Q116.408 651.452 118.353 652.146 Z" fill="#000000" fill-rule="nonzero" fill-opacity="1" /><path clip-path="url(#clip600)" d="M63.5152 381.866 Q59.9041 381.866 58.0754 385.431 Q56.2699 388.972 56.2699 396.102 Q56.2699 403.208 58.0754 406.773 Q59.9041 410.315 63.5152 410.315 Q67.1494 410.315 68.955 406.773 Q70.7837 403.208 70.7837 396.102 Q70.7837 388.972 68.955 385.431 Q67.1494 381.866 63.5152 381.866 M63.5152 378.162 Q69.3254 378.162 72.3809 382.769 Q75.4596 387.352 75.4596 396.102 Q75.4596 404.829 72.3809 409.435 Q69.3254 414.019 63.5152 414.019 Q57.7051 414.019 54.6264 409.435 Q51.5708 404.829 51.5708 396.102 Q51.5708 387.352 54.6264 382.769 Q57.7051 378.162 63.5152 378.162 Z" fill="#000000" fill-rule="nonzero" fill-opacity="1" /><path clip-path="url(#clip600)" d="M83.6771 407.468 L88.5614 407.468 L88.5614 413.347 L83.6771 413.347 L83.6771 407.468 Z" fill="#000000" fill-rule="nonzero" fill-opacity="1" /><path clip-path="url(#clip600)" d="M108.746 396.935 Q105.413 396.935 103.492 398.718 Q101.594 400.5 101.594 403.625 Q101.594 406.75 103.492 408.532 Q105.413 410.315 108.746 410.315 Q112.08 410.315 114.001 408.532 Q115.922 406.727 115.922 403.625 Q115.922 400.5 114.001 398.718 Q112.103 396.935 108.746 396.935 M104.071 394.945 Q101.061 394.204 99.3715 392.144 Q97.7048 390.084 97.7048 387.121 Q97.7048 382.977 100.645 380.57 Q103.608 378.162 108.746 378.162 Q113.908 378.162 116.848 380.57 Q119.788 382.977 119.788 387.121 Q119.788 390.084 118.098 392.144 Q116.432 394.204 113.445 394.945 Q116.825 395.732 118.7 398.023 Q120.598 400.315 120.598 403.625 Q120.598 408.648 117.52 411.333 Q114.464 414.019 108.746 414.019 Q103.029 414.019 99.9502 411.333 Q96.8947 408.648 96.8947 403.625 Q96.8947 400.315 98.7928 398.023 Q100.691 395.732 104.071 394.945 M102.358 387.56 Q102.358 390.246 104.024 391.75 Q105.714 393.255 108.746 393.255 Q111.756 393.255 113.445 391.75 Q115.158 390.246 115.158 387.56 Q115.158 384.875 113.445 383.371 Q111.756 381.866 108.746 381.866 Q105.714 381.866 104.024 383.371 Q102.358 384.875 102.358 387.56 Z" fill="#000000" fill-rule="nonzero" fill-opacity="1" /><path clip-path="url(#clip600)" d="M54.2328 136.817 L61.8717 136.817 L61.8717 110.451 L53.5616 112.118 L53.5616 107.859 L61.8254 106.192 L66.5013 106.192 L66.5013 136.817 L74.1402 136.817 L74.1402 140.752 L54.2328 140.752 L54.2328 136.817 Z" fill="#000000" fill-rule="nonzero" fill-opacity="1" /><path clip-path="url(#clip600)" d="M83.5845 134.873 L88.4688 134.873 L88.4688 140.752 L83.5845 140.752 L83.5845 134.873 Z" fill="#000000" fill-rule="nonzero" fill-opacity="1" /><path clip-path="url(#clip600)" d="M108.654 109.271 Q105.043 109.271 103.214 112.836 Q101.409 116.377 101.409 123.507 Q101.409 130.613 103.214 134.178 Q105.043 137.72 108.654 137.72 Q112.288 137.72 114.094 134.178 Q115.922 130.613 115.922 123.507 Q115.922 116.377 114.094 112.836 Q112.288 109.271 108.654 109.271 M108.654 105.567 Q114.464 105.567 117.52 110.174 Q120.598 114.757 120.598 123.507 Q120.598 132.234 117.52 136.84 Q114.464 141.423 108.654 141.423 Q102.844 141.423 99.765 136.84 Q96.7095 132.234 96.7095 123.507 Q96.7095 114.757 99.765 110.174 Q102.844 105.567 108.654 105.567 Z" fill="#000000" fill-rule="nonzero" fill-opacity="1" /><path clip-path="url(#clip600)" d="M376.826 14.0809 L376.826 22.0612 Q372.167 19.8332 368.035 18.7395 Q363.903 17.6457 360.055 17.6457 Q353.371 17.6457 349.725 20.2383 Q346.12 22.8309 346.12 27.611 Q346.12 31.6214 348.51 33.6873 Q350.941 35.7128 357.665 36.9686 L362.607 37.9813 Q371.762 39.7232 376.097 44.1387 Q380.472 48.5136 380.472 55.8863 Q380.472 64.6767 374.557 69.2137 Q368.684 73.7508 357.301 73.7508 Q353.007 73.7508 348.145 72.7785 Q343.325 71.8063 338.14 69.9024 L338.14 61.4765 Q343.122 64.2716 347.902 65.6895 Q352.682 67.1073 357.301 67.1073 Q364.309 67.1073 368.116 64.3527 Q371.924 61.598 371.924 56.4939 Q371.924 52.0379 369.17 49.5264 Q366.456 47.0148 360.217 45.759 L355.235 44.7868 Q346.08 42.9639 341.988 39.075 Q337.897 35.1862 337.897 28.2591 Q337.897 20.2383 343.527 15.6203 Q349.199 11.0023 359.123 11.0023 Q363.377 11.0023 367.792 11.7719 Q372.208 12.5416 376.826 14.0809 Z" fill="#000000" fill-rule="nonzero" fill-opacity="1" /><path clip-path="url(#clip600)" d="M400.281 14.324 L400.281 27.2059 L415.634 27.2059 L415.634 32.9987 L400.281 32.9987 L400.281 57.6282 Q400.281 63.1779 401.779 64.7578 Q403.319 66.3376 407.977 66.3376 L415.634 66.3376 L415.634 72.576 L407.977 72.576 Q399.349 72.576 396.068 69.3758 Q392.786 66.1351 392.786 57.6282 L392.786 32.9987 L387.318 32.9987 L387.318 27.2059 L392.786 27.2059 L392.786 14.324 L400.281 14.324 Z" fill="#000000" fill-rule="nonzero" fill-opacity="1" /><path clip-path="url(#clip600)" d="M464.244 48.0275 L464.244 51.6733 L429.974 51.6733 Q430.46 59.3701 434.592 63.421 Q438.764 67.4314 446.177 67.4314 Q450.471 67.4314 454.482 66.3781 Q458.533 65.3249 462.502 63.2184 L462.502 70.267 Q458.492 71.9684 454.279 72.8596 Q450.066 73.7508 445.732 73.7508 Q434.875 73.7508 428.515 67.4314 Q422.196 61.1119 422.196 50.3365 Q422.196 39.1965 428.191 32.6746 Q434.227 26.1121 444.435 26.1121 Q453.591 26.1121 458.897 32.0264 Q464.244 37.9003 464.244 48.0275 M456.791 45.84 Q456.71 39.7232 453.347 36.0774 Q450.026 32.4315 444.516 32.4315 Q438.278 32.4315 434.511 35.9558 Q430.784 39.4801 430.217 45.8805 L456.791 45.84 Z" fill="#000000" fill-rule="nonzero" fill-opacity="1" /><path clip-path="url(#clip600)" d="M497.097 49.7694 Q488.064 49.7694 484.58 51.8354 Q481.096 53.9013 481.096 58.8839 Q481.096 62.8538 483.689 65.2034 Q486.322 67.5124 490.818 67.5124 Q497.016 67.5124 500.743 63.1374 Q504.51 58.7219 504.51 51.4303 L504.51 49.7694 L497.097 49.7694 M511.964 46.6907 L511.964 72.576 L504.51 72.576 L504.51 65.6895 Q501.958 69.8214 498.15 71.8063 Q494.343 73.7508 488.833 73.7508 Q481.866 73.7508 477.734 69.8619 Q473.642 65.9325 473.642 59.3701 Q473.642 51.7138 478.747 47.825 Q483.891 43.9361 494.059 43.9361 L504.51 43.9361 L504.51 43.2069 Q504.51 38.0623 501.108 35.2672 Q497.745 32.4315 491.628 32.4315 Q487.74 32.4315 484.053 33.3632 Q480.367 34.295 476.964 36.1584 L476.964 29.2718 Q481.056 27.692 484.904 26.9223 Q488.752 26.1121 492.398 26.1121 Q502.242 26.1121 507.103 31.2163 Q511.964 36.3204 511.964 46.6907 Z" fill="#000000" fill-rule="nonzero" fill-opacity="1" /><path clip-path="url(#clip600)" d="M557.172 34.0924 L557.172 9.54393 L564.626 9.54393 L564.626 72.576 L557.172 72.576 L557.172 65.7705 Q554.823 69.8214 551.217 71.8063 Q547.653 73.7508 542.629 73.7508 Q534.406 73.7508 529.221 67.1883 Q524.076 60.6258 524.076 49.9314 Q524.076 39.2371 529.221 32.6746 Q534.406 26.1121 542.629 26.1121 Q547.653 26.1121 551.217 28.0971 Q554.823 30.0415 557.172 34.0924 M531.773 49.9314 Q531.773 58.1548 535.135 62.8538 Q538.538 67.5124 544.452 67.5124 Q550.367 67.5124 553.769 62.8538 Q557.172 58.1548 557.172 49.9314 Q557.172 41.7081 553.769 37.0496 Q550.367 32.3505 544.452 32.3505 Q538.538 32.3505 535.135 37.0496 Q531.773 41.7081 531.773 49.9314 Z" fill="#000000" fill-rule="nonzero" fill-opacity="1" /><path clip-path="url(#clip600)" d="M598.856 76.7889 Q595.696 84.8907 592.699 87.3618 Q589.701 89.8329 584.678 89.8329 L578.723 89.8329 L578.723 83.5945 L583.098 83.5945 Q586.177 83.5945 587.878 82.1361 Q589.579 80.6778 591.645 75.2496 L592.982 71.8468 L574.632 27.2059 L582.531 27.2059 L596.709 62.6918 L610.887 27.2059 L618.786 27.2059 L598.856 76.7889 Z" fill="#000000" fill-rule="nonzero" fill-opacity="1" /><path clip-path="url(#clip600)" d="M684.371 28.5427 L684.371 35.5912 Q681.211 33.9709 677.808 33.1607 Q674.405 32.3505 670.759 32.3505 Q665.21 32.3505 662.415 34.0519 Q659.66 35.7533 659.66 39.156 Q659.66 41.7486 661.645 43.2475 Q663.63 44.7058 669.625 46.0426 L672.177 46.6097 Q680.117 48.3111 683.439 51.4303 Q686.801 54.509 686.801 60.0587 Q686.801 66.3781 681.778 70.0644 Q676.795 73.7508 668.045 73.7508 Q664.4 73.7508 660.43 73.0216 Q656.5 72.3329 652.125 70.9151 L652.125 63.2184 Q656.257 65.3654 660.268 66.4591 Q664.278 67.5124 668.207 67.5124 Q673.474 67.5124 676.309 65.73 Q679.145 63.9071 679.145 60.6258 Q679.145 57.5877 677.079 55.9673 Q675.053 54.3469 668.126 52.8481 L665.534 52.2405 Q658.607 50.7821 655.528 47.7845 Q652.449 44.7463 652.449 39.4801 Q652.449 33.0797 656.986 29.5959 Q661.523 26.1121 669.868 26.1121 Q674 26.1121 677.646 26.7198 Q681.292 27.3274 684.371 28.5427 Z" fill="#000000" fill-rule="nonzero" fill-opacity="1" /><path clip-path="url(#clip600)" d="M706.043 14.324 L706.043 27.2059 L721.396 27.2059 L721.396 32.9987 L706.043 32.9987 L706.043 57.6282 Q706.043 63.1779 707.542 64.7578 Q709.081 66.3376 713.74 66.3376 L721.396 66.3376 L721.396 72.576 L713.74 72.576 Q705.111 72.576 701.83 69.3758 Q698.549 66.1351 698.549 57.6282 L698.549 32.9987 L693.08 32.9987 L693.08 27.2059 L698.549 27.2059 L698.549 14.324 L706.043 14.324 Z" fill="#000000" fill-rule="nonzero" fill-opacity="1" /><path clip-path="url(#clip600)" d="M751.818 49.7694 Q742.785 49.7694 739.301 51.8354 Q735.817 53.9013 735.817 58.8839 Q735.817 62.8538 738.41 65.2034 Q741.043 67.5124 745.539 67.5124 Q751.737 67.5124 755.464 63.1374 Q759.231 58.7219 759.231 51.4303 L759.231 49.7694 L751.818 49.7694 M766.685 46.6907 L766.685 72.576 L759.231 72.576 L759.231 65.6895 Q756.679 69.8214 752.871 71.8063 Q749.063 73.7508 743.554 73.7508 Q736.587 73.7508 732.455 69.8619 Q728.363 65.9325 728.363 59.3701 Q728.363 51.7138 733.467 47.825 Q738.612 43.9361 748.78 43.9361 L759.231 43.9361 L759.231 43.2069 Q759.231 38.0623 755.828 35.2672 Q752.466 32.4315 746.349 32.4315 Q742.46 32.4315 738.774 33.3632 Q735.088 34.295 731.685 36.1584 L731.685 29.2718 Q735.776 27.692 739.625 26.9223 Q743.473 26.1121 747.119 26.1121 Q756.963 26.1121 761.824 31.2163 Q766.685 36.3204 766.685 46.6907 Z" fill="#000000" fill-rule="nonzero" fill-opacity="1" /><path clip-path="url(#clip600)" d="M789.41 14.324 L789.41 27.2059 L804.763 27.2059 L804.763 32.9987 L789.41 32.9987 L789.41 57.6282 Q789.41 63.1779 790.909 64.7578 Q792.449 66.3376 797.107 66.3376 L804.763 66.3376 L804.763 72.576 L797.107 72.576 Q788.479 72.576 785.198 69.3758 Q781.916 66.1351 781.916 57.6282 L781.916 32.9987 L776.448 32.9987 L776.448 27.2059 L781.916 27.2059 L781.916 14.324 L789.41 14.324 Z" fill="#000000" fill-rule="nonzero" fill-opacity="1" /><path clip-path="url(#clip600)" d="M853.374 48.0275 L853.374 51.6733 L819.104 51.6733 Q819.59 59.3701 823.722 63.421 Q827.894 67.4314 835.307 67.4314 Q839.601 67.4314 843.612 66.3781 Q847.662 65.3249 851.632 63.2184 L851.632 70.267 Q847.622 71.9684 843.409 72.8596 Q839.196 73.7508 834.862 73.7508 Q824.005 73.7508 817.645 67.4314 Q811.326 61.1119 811.326 50.3365 Q811.326 39.1965 817.321 32.6746 Q823.357 26.1121 833.565 26.1121 Q842.72 26.1121 848.027 32.0264 Q853.374 37.9003 853.374 48.0275 M845.921 45.84 Q845.84 39.7232 842.477 36.0774 Q839.156 32.4315 833.646 32.4315 Q827.408 32.4315 823.641 35.9558 Q819.914 39.4801 819.347 45.8805 L845.921 45.84 Z" fill="#000000" fill-rule="nonzero" fill-opacity="1" /><path clip-path="url(#clip600)" d="M920.903 28.5427 L920.903 35.5912 Q917.743 33.9709 914.34 33.1607 Q910.938 32.3505 907.292 32.3505 Q901.742 32.3505 898.947 34.0519 Q896.192 35.7533 896.192 39.156 Q896.192 41.7486 898.177 43.2475 Q900.162 44.7058 906.158 46.0426 L908.71 46.6097 Q916.649 48.3111 919.971 51.4303 Q923.333 54.509 923.333 60.0587 Q923.333 66.3781 918.31 70.0644 Q913.328 73.7508 904.578 73.7508 Q900.932 73.7508 896.962 73.0216 Q893.033 72.3329 888.658 70.9151 L888.658 63.2184 Q892.79 65.3654 896.8 66.4591 Q900.81 67.5124 904.74 67.5124 Q910.006 67.5124 912.842 65.73 Q915.677 63.9071 915.677 60.6258 Q915.677 57.5877 913.611 55.9673 Q911.586 54.3469 904.659 52.8481 L902.066 52.2405 Q895.139 50.7821 892.06 47.7845 Q888.982 44.7463 888.982 39.4801 Q888.982 33.0797 893.519 29.5959 Q898.056 26.1121 906.401 26.1121 Q910.533 26.1121 914.178 26.7198 Q917.824 27.3274 920.903 28.5427 Z" fill="#000000" fill-rule="nonzero" fill-opacity="1" /><path clip-path="url(#clip600)" d="M942.413 65.7705 L942.413 89.8329 L934.919 89.8329 L934.919 27.2059 L942.413 27.2059 L942.413 34.0924 Q944.763 30.0415 948.327 28.0971 Q951.933 26.1121 956.915 26.1121 Q965.179 26.1121 970.324 32.6746 Q975.509 39.2371 975.509 49.9314 Q975.509 60.6258 970.324 67.1883 Q965.179 73.7508 956.915 73.7508 Q951.933 73.7508 948.327 71.8063 Q944.763 69.8214 942.413 65.7705 M967.772 49.9314 Q967.772 41.7081 964.369 37.0496 Q961.007 32.3505 955.092 32.3505 Q949.178 32.3505 945.775 37.0496 Q942.413 41.7081 942.413 49.9314 Q942.413 58.1548 945.775 62.8538 Q949.178 67.5124 955.092 67.5124 Q961.007 67.5124 964.369 62.8538 Q967.772 58.1548 967.772 49.9314 Z" fill="#000000" fill-rule="nonzero" fill-opacity="1" /><path clip-path="url(#clip600)" d="M1008.48 49.7694 Q999.45 49.7694 995.966 51.8354 Q992.482 53.9013 992.482 58.8839 Q992.482 62.8538 995.075 65.2034 Q997.708 67.5124 1002.2 67.5124 Q1008.4 67.5124 1012.13 63.1374 Q1015.9 58.7219 1015.9 51.4303 L1015.9 49.7694 L1008.48 49.7694 M1023.35 46.6907 L1023.35 72.576 L1015.9 72.576 L1015.9 65.6895 Q1013.34 69.8214 1009.54 71.8063 Q1005.73 73.7508 1000.22 73.7508 Q993.252 73.7508 989.12 69.8619 Q985.029 65.9325 985.029 59.3701 Q985.029 51.7138 990.133 47.825 Q995.277 43.9361 1005.45 43.9361 L1015.9 43.9361 L1015.9 43.2069 Q1015.9 38.0623 1012.49 35.2672 Q1009.13 32.4315 1003.01 32.4315 Q999.126 32.4315 995.439 33.3632 Q991.753 34.295 988.35 36.1584 L988.35 29.2718 Q992.442 27.692 996.29 26.9223 Q1000.14 26.1121 1003.78 26.1121 Q1013.63 26.1121 1018.49 31.2163 Q1023.35 36.3204 1023.35 46.6907 Z" fill="#000000" fill-rule="nonzero" fill-opacity="1" /><path clip-path="url(#clip600)" d="M1046.08 14.324 L1046.08 27.2059 L1061.43 27.2059 L1061.43 32.9987 L1046.08 32.9987 L1046.08 57.6282 Q1046.08 63.1779 1047.57 64.7578 Q1049.11 66.3376 1053.77 66.3376 L1061.43 66.3376 L1061.43 72.576 L1053.77 72.576 Q1045.14 72.576 1041.86 69.3758 Q1038.58 66.1351 1038.58 57.6282 L1038.58 32.9987 L1033.11 32.9987 L1033.11 27.2059 L1038.58 27.2059 L1038.58 14.324 L1046.08 14.324 Z" fill="#000000" fill-rule="nonzero" fill-opacity="1" /><path clip-path="url(#clip600)" d="M1071.23 27.2059 L1078.69 27.2059 L1078.69 72.576 L1071.23 72.576 L1071.23 27.2059 M1071.23 9.54393 L1078.69 9.54393 L1078.69 18.9825 L1071.23 18.9825 L1071.23 9.54393 Z" fill="#000000" fill-rule="nonzero" fill-opacity="1" /><path clip-path="url(#clip600)" d="M1114.9 49.7694 Q1105.87 49.7694 1102.38 51.8354 Q1098.9 53.9013 1098.9 58.8839 Q1098.9 62.8538 1101.49 65.2034 Q1104.13 67.5124 1108.62 67.5124 Q1114.82 67.5124 1118.55 63.1374 Q1122.31 58.7219 1122.31 51.4303 L1122.31 49.7694 L1114.9 49.7694 M1129.77 46.6907 L1129.77 72.576 L1122.31 72.576 L1122.31 65.6895 Q1119.76 69.8214 1115.95 71.8063 Q1112.15 73.7508 1106.64 73.7508 Q1099.67 73.7508 1095.54 69.8619 Q1091.45 65.9325 1091.45 59.3701 Q1091.45 51.7138 1096.55 47.825 Q1101.69 43.9361 1111.86 43.9361 L1122.31 43.9361 L1122.31 43.2069 Q1122.31 38.0623 1118.91 35.2672 Q1115.55 32.4315 1109.43 32.4315 Q1105.54 32.4315 1101.86 33.3632 Q1098.17 34.295 1094.77 36.1584 L1094.77 29.2718 Q1098.86 27.692 1102.71 26.9223 Q1106.56 26.1121 1110.2 26.1121 Q1120.05 26.1121 1124.91 31.2163 Q1129.77 36.3204 1129.77 46.6907 Z" fill="#000000" fill-rule="nonzero" fill-opacity="1" /><path clip-path="url(#clip600)" d="M1145.12 9.54393 L1152.57 9.54393 L1152.57 72.576 L1145.12 72.576 L1145.12 9.54393 Z" fill="#000000" fill-rule="nonzero" fill-opacity="1" /><path clip-path="url(#clip600)" d="M1220.83 34.1734 Q1219.58 33.4443 1218.08 33.1202 Q1216.62 32.7556 1214.84 32.7556 Q1208.52 32.7556 1205.11 36.8875 Q1201.75 40.9789 1201.75 48.6757 L1201.75 72.576 L1194.26 72.576 L1194.26 27.2059 L1201.75 27.2059 L1201.75 34.2544 Q1204.1 30.1225 1207.87 28.1376 Q1211.64 26.1121 1217.02 26.1121 Q1217.79 26.1121 1218.73 26.2337 Q1219.66 26.3147 1220.79 26.5172 L1220.83 34.1734 Z" fill="#000000" fill-rule="nonzero" fill-opacity="1" /><path clip-path="url(#clip600)" d="M1265.63 48.0275 L1265.63 51.6733 L1231.36 51.6733 Q1231.85 59.3701 1235.98 63.421 Q1240.15 67.4314 1247.57 67.4314 Q1251.86 67.4314 1255.87 66.3781 Q1259.92 65.3249 1263.89 63.2184 L1263.89 70.267 Q1259.88 71.9684 1255.67 72.8596 Q1251.46 73.7508 1247.12 73.7508 Q1236.27 73.7508 1229.91 67.4314 Q1223.59 61.1119 1223.59 50.3365 Q1223.59 39.1965 1229.58 32.6746 Q1235.62 26.1121 1245.83 26.1121 Q1254.98 26.1121 1260.29 32.0264 Q1265.63 37.9003 1265.63 48.0275 M1258.18 45.84 Q1258.1 39.7232 1254.74 36.0774 Q1251.42 32.4315 1245.91 32.4315 Q1239.67 32.4315 1235.9 35.9558 Q1232.17 39.4801 1231.61 45.8805 L1258.18 45.84 Z" fill="#000000" fill-rule="nonzero" fill-opacity="1" /><path clip-path="url(#clip600)" d="M1306.79 28.5427 L1306.79 35.5912 Q1303.63 33.9709 1300.23 33.1607 Q1296.83 32.3505 1293.18 32.3505 Q1287.63 32.3505 1284.84 34.0519 Q1282.08 35.7533 1282.08 39.156 Q1282.08 41.7486 1284.07 43.2475 Q1286.05 44.7058 1292.05 46.0426 L1294.6 46.6097 Q1302.54 48.3111 1305.86 51.4303 Q1309.22 54.509 1309.22 60.0587 Q1309.22 66.3781 1304.2 70.0644 Q1299.22 73.7508 1290.47 73.7508 Q1286.82 73.7508 1282.85 73.0216 Q1278.92 72.3329 1274.55 70.9151 L1274.55 63.2184 Q1278.68 65.3654 1282.69 66.4591 Q1286.7 67.5124 1290.63 67.5124 Q1295.9 67.5124 1298.73 65.73 Q1301.57 63.9071 1301.57 60.6258 Q1301.57 57.5877 1299.5 55.9673 Q1297.47 54.3469 1290.55 52.8481 L1287.96 52.2405 Q1281.03 50.7821 1277.95 47.7845 Q1274.87 44.7463 1274.87 39.4801 Q1274.87 33.0797 1279.41 29.5959 Q1283.94 26.1121 1292.29 26.1121 Q1296.42 26.1121 1300.07 26.7198 Q1303.71 27.3274 1306.79 28.5427 Z" fill="#000000" fill-rule="nonzero" fill-opacity="1" /><path clip-path="url(#clip600)" d="M1328.3 65.7705 L1328.3 89.8329 L1320.81 89.8329 L1320.81 27.2059 L1328.3 27.2059 L1328.3 34.0924 Q1330.65 30.0415 1334.22 28.0971 Q1337.82 26.1121 1342.8 26.1121 Q1351.07 26.1121 1356.21 32.6746 Q1361.4 39.2371 1361.4 49.9314 Q1361.4 60.6258 1356.21 67.1883 Q1351.07 73.7508 1342.8 73.7508 Q1337.82 73.7508 1334.22 71.8063 Q1330.65 69.8214 1328.3 65.7705 M1353.66 49.9314 Q1353.66 41.7081 1350.26 37.0496 Q1346.9 32.3505 1340.98 32.3505 Q1335.07 32.3505 1331.66 37.0496 Q1328.3 41.7081 1328.3 49.9314 Q1328.3 58.1548 1331.66 62.8538 Q1335.07 67.5124 1340.98 67.5124 Q1346.9 67.5124 1350.26 62.8538 Q1353.66 58.1548 1353.66 49.9314 Z" fill="#000000" fill-rule="nonzero" fill-opacity="1" /><path clip-path="url(#clip600)" d="M1391.33 32.4315 Q1385.34 32.4315 1381.86 37.1306 Q1378.37 41.7891 1378.37 49.9314 Q1378.37 58.0738 1381.81 62.7728 Q1385.3 67.4314 1391.33 67.4314 Q1397.29 67.4314 1400.77 62.7323 Q1404.26 58.0333 1404.26 49.9314 Q1404.26 41.8701 1400.77 37.1711 Q1397.29 32.4315 1391.33 32.4315 M1391.33 26.1121 Q1401.06 26.1121 1406.61 32.4315 Q1412.16 38.7509 1412.16 49.9314 Q1412.16 61.0714 1406.61 67.4314 Q1401.06 73.7508 1391.33 73.7508 Q1381.57 73.7508 1376.02 67.4314 Q1370.51 61.0714 1370.51 49.9314 Q1370.51 38.7509 1376.02 32.4315 Q1381.57 26.1121 1391.33 26.1121 Z" fill="#000000" fill-rule="nonzero" fill-opacity="1" /><path clip-path="url(#clip600)" d="M1462.23 45.1919 L1462.23 72.576 L1454.77 72.576 L1454.77 45.4349 Q1454.77 38.994 1452.26 35.7938 Q1449.75 32.5936 1444.73 32.5936 Q1438.69 32.5936 1435.21 36.4419 Q1431.72 40.2903 1431.72 46.9338 L1431.72 72.576 L1424.23 72.576 L1424.23 27.2059 L1431.72 27.2059 L1431.72 34.2544 Q1434.4 30.163 1438 28.1376 Q1441.65 26.1121 1446.39 26.1121 Q1454.2 26.1121 1458.21 30.9732 Q1462.23 35.7938 1462.23 45.1919 Z" fill="#000000" fill-rule="nonzero" fill-opacity="1" /><path clip-path="url(#clip600)" d="M1506.02 28.5427 L1506.02 35.5912 Q1502.86 33.9709 1499.45 33.1607 Q1496.05 32.3505 1492.4 32.3505 Q1486.85 32.3505 1484.06 34.0519 Q1481.3 35.7533 1481.3 39.156 Q1481.3 41.7486 1483.29 43.2475 Q1485.27 44.7058 1491.27 46.0426 L1493.82 46.6097 Q1501.76 48.3111 1505.08 51.4303 Q1508.45 54.509 1508.45 60.0587 Q1508.45 66.3781 1503.42 70.0644 Q1498.44 73.7508 1489.69 73.7508 Q1486.04 73.7508 1482.07 73.0216 Q1478.15 72.3329 1473.77 70.9151 L1473.77 63.2184 Q1477.9 65.3654 1481.91 66.4591 Q1485.92 67.5124 1489.85 67.5124 Q1495.12 67.5124 1497.95 65.73 Q1500.79 63.9071 1500.79 60.6258 Q1500.79 57.5877 1498.72 55.9673 Q1496.7 54.3469 1489.77 52.8481 L1487.18 52.2405 Q1480.25 50.7821 1477.17 47.7845 Q1474.09 44.7463 1474.09 39.4801 Q1474.09 33.0797 1478.63 29.5959 Q1483.17 26.1121 1491.51 26.1121 Q1495.65 26.1121 1499.29 26.7198 Q1502.94 27.3274 1506.02 28.5427 Z" fill="#000000" fill-rule="nonzero" fill-opacity="1" /><path clip-path="url(#clip600)" d="M1559.12 48.0275 L1559.12 51.6733 L1524.85 51.6733 Q1525.34 59.3701 1529.47 63.421 Q1533.64 67.4314 1541.06 67.4314 Q1545.35 67.4314 1549.36 66.3781 Q1553.41 65.3249 1557.38 63.2184 L1557.38 70.267 Q1553.37 71.9684 1549.16 72.8596 Q1544.94 73.7508 1540.61 73.7508 Q1529.75 73.7508 1523.39 67.4314 Q1517.07 61.1119 1517.07 50.3365 Q1517.07 39.1965 1523.07 32.6746 Q1529.11 26.1121 1539.31 26.1121 Q1548.47 26.1121 1553.78 32.0264 Q1559.12 37.9003 1559.12 48.0275 M1551.67 45.84 Q1551.59 39.7232 1548.23 36.0774 Q1544.9 32.4315 1539.39 32.4315 Q1533.16 32.4315 1529.39 35.9558 Q1525.66 39.4801 1525.1 45.8805 L1551.67 45.84 Z" fill="#000000" fill-rule="nonzero" fill-opacity="1" /><path clip-path="url(#clip600)" d="M1600.28 28.5427 L1600.28 35.5912 Q1597.12 33.9709 1593.72 33.1607 Q1590.31 32.3505 1586.67 32.3505 Q1581.12 32.3505 1578.32 34.0519 Q1575.57 35.7533 1575.57 39.156 Q1575.57 41.7486 1577.55 43.2475 Q1579.54 44.7058 1585.53 46.0426 L1588.09 46.6097 Q1596.03 48.3111 1599.35 51.4303 Q1602.71 54.509 1602.71 60.0587 Q1602.71 66.3781 1597.69 70.0644 Q1592.7 73.7508 1583.95 73.7508 Q1580.31 73.7508 1576.34 73.0216 Q1572.41 72.3329 1568.03 70.9151 L1568.03 63.2184 Q1572.17 65.3654 1576.18 66.4591 Q1580.19 67.5124 1584.12 67.5124 Q1589.38 67.5124 1592.22 65.73 Q1595.05 63.9071 1595.05 60.6258 Q1595.05 57.5877 1592.99 55.9673 Q1590.96 54.3469 1584.04 52.8481 L1581.44 52.2405 Q1574.52 50.7821 1571.44 47.7845 Q1568.36 44.7463 1568.36 39.4801 Q1568.36 33.0797 1572.9 29.5959 Q1577.43 26.1121 1585.78 26.1121 Q1589.91 26.1121 1593.56 26.7198 Q1597.2 27.3274 1600.28 28.5427 Z" fill="#000000" fill-rule="nonzero" fill-opacity="1" /><path clip-path="url(#clip600)" d="M1658.53 32.4315 Q1652.54 32.4315 1649.05 37.1306 Q1645.57 41.7891 1645.57 49.9314 Q1645.57 58.0738 1649.01 62.7728 Q1652.5 67.4314 1658.53 67.4314 Q1664.49 67.4314 1667.97 62.7323 Q1671.45 58.0333 1671.45 49.9314 Q1671.45 41.8701 1667.97 37.1711 Q1664.49 32.4315 1658.53 32.4315 M1658.53 26.1121 Q1668.25 26.1121 1673.8 32.4315 Q1679.35 38.7509 1679.35 49.9314 Q1679.35 61.0714 1673.8 67.4314 Q1668.25 73.7508 1658.53 73.7508 Q1648.77 73.7508 1643.22 67.4314 Q1637.71 61.0714 1637.71 49.9314 Q1637.71 38.7509 1643.22 32.4315 Q1648.77 26.1121 1658.53 26.1121 Z" fill="#000000" fill-rule="nonzero" fill-opacity="1" /><path clip-path="url(#clip600)" d="M1714.68 9.54393 L1714.68 15.7418 L1707.55 15.7418 Q1703.54 15.7418 1701.96 17.3622 Q1700.42 18.9825 1700.42 23.1955 L1700.42 27.2059 L1712.69 27.2059 L1712.69 32.9987 L1700.42 32.9987 L1700.42 72.576 L1692.92 72.576 L1692.92 32.9987 L1685.79 32.9987 L1685.79 27.2059 L1692.92 27.2059 L1692.92 24.0462 Q1692.92 16.471 1696.45 13.0277 Q1699.97 9.54393 1707.63 9.54393 L1714.68 9.54393 Z" fill="#000000" fill-rule="nonzero" fill-opacity="1" /><path clip-path="url(#clip600)" d="M1754.66 14.324 L1754.66 27.2059 L1770.01 27.2059 L1770.01 32.9987 L1754.66 32.9987 L1754.66 57.6282 Q1754.66 63.1779 1756.16 64.7578 Q1757.7 66.3376 1762.36 66.3376 L1770.01 66.3376 L1770.01 72.576 L1762.36 72.576 Q1753.73 72.576 1750.45 69.3758 Q1747.17 66.1351 1747.17 57.6282 L1747.17 32.9987 L1741.7 32.9987 L1741.7 27.2059 L1747.17 27.2059 L1747.17 14.324 L1754.66 14.324 Z" fill="#000000" fill-rule="nonzero" fill-opacity="1" /><path clip-path="url(#clip600)" d="M1817.53 45.1919 L1817.53 72.576 L1810.08 72.576 L1810.08 45.4349 Q1810.08 38.994 1807.56 35.7938 Q1805.05 32.5936 1800.03 32.5936 Q1793.99 32.5936 1790.51 36.4419 Q1787.03 40.2903 1787.03 46.9338 L1787.03 72.576 L1779.53 72.576 L1779.53 9.54393 L1787.03 9.54393 L1787.03 34.2544 Q1789.7 30.163 1793.31 28.1376 Q1796.95 26.1121 1801.69 26.1121 Q1809.51 26.1121 1813.52 30.9732 Q1817.53 35.7938 1817.53 45.1919 Z" fill="#000000" fill-rule="nonzero" fill-opacity="1" /><path clip-path="url(#clip600)" d="M1871.2 48.0275 L1871.2 51.6733 L1836.93 51.6733 Q1837.42 59.3701 1841.55 63.421 Q1845.72 67.4314 1853.14 67.4314 Q1857.43 67.4314 1861.44 66.3781 Q1865.49 65.3249 1869.46 63.2184 L1869.46 70.267 Q1865.45 71.9684 1861.24 72.8596 Q1857.03 73.7508 1852.69 73.7508 Q1841.84 73.7508 1835.48 67.4314 Q1829.16 61.1119 1829.16 50.3365 Q1829.16 39.1965 1835.15 32.6746 Q1841.19 26.1121 1851.4 26.1121 Q1860.55 26.1121 1865.86 32.0264 Q1871.2 37.9003 1871.2 48.0275 M1863.75 45.84 Q1863.67 39.7232 1860.31 36.0774 Q1856.99 32.4315 1851.48 32.4315 Q1845.24 32.4315 1841.47 35.9558 Q1837.74 39.4801 1837.18 45.8805 L1863.75 45.84 Z" fill="#000000" fill-rule="nonzero" fill-opacity="1" /><path clip-path="url(#clip600)" d="M1938.73 28.5427 L1938.73 35.5912 Q1935.57 33.9709 1932.17 33.1607 Q1928.77 32.3505 1925.12 32.3505 Q1919.57 32.3505 1916.78 34.0519 Q1914.02 35.7533 1914.02 39.156 Q1914.02 41.7486 1916.01 43.2475 Q1917.99 44.7058 1923.99 46.0426 L1926.54 46.6097 Q1934.48 48.3111 1937.8 51.4303 Q1941.16 54.509 1941.16 60.0587 Q1941.16 66.3781 1936.14 70.0644 Q1931.16 73.7508 1922.41 73.7508 Q1918.76 73.7508 1914.79 73.0216 Q1910.86 72.3329 1906.49 70.9151 L1906.49 63.2184 Q1910.62 65.3654 1914.63 66.4591 Q1918.64 67.5124 1922.57 67.5124 Q1927.84 67.5124 1930.67 65.73 Q1933.51 63.9071 1933.51 60.6258 Q1933.51 57.5877 1931.44 55.9673 Q1929.42 54.3469 1922.49 52.8481 L1919.9 52.2405 Q1912.97 50.7821 1909.89 47.7845 Q1906.81 44.7463 1906.81 39.4801 Q1906.81 33.0797 1911.35 29.5959 Q1915.89 26.1121 1924.23 26.1121 Q1928.36 26.1121 1932.01 26.7198 Q1935.65 27.3274 1938.73 28.5427 Z" fill="#000000" fill-rule="nonzero" fill-opacity="1" /><path clip-path="url(#clip600)" d="M1960.41 14.324 L1960.41 27.2059 L1975.76 27.2059 L1975.76 32.9987 L1960.41 32.9987 L1960.41 57.6282 Q1960.41 63.1779 1961.9 64.7578 Q1963.44 66.3376 1968.1 66.3376 L1975.76 66.3376 L1975.76 72.576 L1968.1 72.576 Q1959.47 72.576 1956.19 69.3758 Q1952.91 66.1351 1952.91 57.6282 L1952.91 32.9987 L1947.44 32.9987 L1947.44 27.2059 L1952.91 27.2059 L1952.91 14.324 L1960.41 14.324 Z" fill="#000000" fill-rule="nonzero" fill-opacity="1" /><path clip-path="url(#clip600)" d="M2006.18 49.7694 Q1997.15 49.7694 1993.66 51.8354 Q1990.18 53.9013 1990.18 58.8839 Q1990.18 62.8538 1992.77 65.2034 Q1995.41 67.5124 1999.9 67.5124 Q2006.1 67.5124 2009.83 63.1374 Q2013.59 58.7219 2013.59 51.4303 L2013.59 49.7694 L2006.18 49.7694 M2021.05 46.6907 L2021.05 72.576 L2013.59 72.576 L2013.59 65.6895 Q2011.04 69.8214 2007.23 71.8063 Q2003.43 73.7508 1997.92 73.7508 Q1990.95 73.7508 1986.82 69.8619 Q1982.73 65.9325 1982.73 59.3701 Q1982.73 51.7138 1987.83 47.825 Q1992.97 43.9361 2003.14 43.9361 L2013.59 43.9361 L2013.59 43.2069 Q2013.59 38.0623 2010.19 35.2672 Q2006.83 32.4315 2000.71 32.4315 Q1996.82 32.4315 1993.14 33.3632 Q1989.45 34.295 1986.05 36.1584 L1986.05 29.2718 Q1990.14 27.692 1993.99 26.9223 Q1997.84 26.1121 2001.48 26.1121 Q2011.33 26.1121 2016.19 31.2163 Q2021.05 36.3204 2021.05 46.6907 Z" fill="#000000" fill-rule="nonzero" fill-opacity="1" /><path clip-path="url(#clip600)" d="M2066.26 49.3643 Q2066.26 41.2625 2062.89 36.8065 Q2059.57 32.3505 2053.54 32.3505 Q2047.54 32.3505 2044.18 36.8065 Q2040.86 41.2625 2040.86 49.3643 Q2040.86 57.4256 2044.18 61.8816 Q2047.54 66.3376 2053.54 66.3376 Q2059.57 66.3376 2062.89 61.8816 Q2066.26 57.4256 2066.26 49.3643 M2073.71 66.9452 Q2073.71 78.5308 2068.56 84.1616 Q2063.42 89.8329 2052.81 89.8329 Q2048.88 89.8329 2045.39 89.2252 Q2041.91 88.6581 2038.63 87.4428 L2038.63 80.1917 Q2041.91 81.9741 2045.11 82.8248 Q2048.31 83.6755 2051.63 83.6755 Q2058.96 83.6755 2062.61 79.8271 Q2066.26 76.0193 2066.26 68.282 L2066.26 64.5957 Q2063.95 68.6061 2060.34 70.5911 Q2056.74 72.576 2051.71 72.576 Q2043.37 72.576 2038.26 66.2161 Q2033.16 59.8562 2033.16 49.3643 Q2033.16 38.832 2038.26 32.472 Q2043.37 26.1121 2051.71 26.1121 Q2056.74 26.1121 2060.34 28.0971 Q2063.95 30.082 2066.26 34.0924 L2066.26 27.2059 L2073.71 27.2059 L2073.71 66.9452 Z" fill="#000000" fill-rule="nonzero" fill-opacity="1" /><path clip-path="url(#clip600)" d="M2127.87 48.0275 L2127.87 51.6733 L2093.6 51.6733 Q2094.09 59.3701 2098.22 63.421 Q2102.39 67.4314 2109.8 67.4314 Q2114.1 67.4314 2118.11 66.3781 Q2122.16 65.3249 2126.13 63.2184 L2126.13 70.267 Q2122.12 71.9684 2117.9 72.8596 Q2113.69 73.7508 2109.36 73.7508 Q2098.5 73.7508 2092.14 67.4314 Q2085.82 61.1119 2085.82 50.3365 Q2085.82 39.1965 2091.82 32.6746 Q2097.85 26.1121 2108.06 26.1121 Q2117.22 26.1121 2122.52 32.0264 Q2127.87 37.9003 2127.87 48.0275 M2120.42 45.84 Q2120.34 39.7232 2116.97 36.0774 Q2113.65 32.4315 2108.14 32.4315 Q2101.9 32.4315 2098.14 35.9558 Q2094.41 39.4801 2093.84 45.8805 L2120.42 45.84 Z" fill="#000000" fill-rule="nonzero" fill-opacity="1" /><path clip-path="url(#clip600)" d="M2169.03 28.5427 L2169.03 35.5912 Q2165.87 33.9709 2162.46 33.1607 Q2159.06 32.3505 2155.42 32.3505 Q2149.87 32.3505 2147.07 34.0519 Q2144.32 35.7533 2144.32 39.156 Q2144.32 41.7486 2146.3 43.2475 Q2148.29 44.7058 2154.28 46.0426 L2156.83 46.6097 Q2164.77 48.3111 2168.1 51.4303 Q2171.46 54.509 2171.46 60.0587 Q2171.46 66.3781 2166.43 70.0644 Q2161.45 73.7508 2152.7 73.7508 Q2149.06 73.7508 2145.09 73.0216 Q2141.16 72.3329 2136.78 70.9151 L2136.78 63.2184 Q2140.91 65.3654 2144.92 66.4591 Q2148.93 67.5124 2152.86 67.5124 Q2158.13 67.5124 2160.97 65.73 Q2163.8 63.9071 2163.8 60.6258 Q2163.8 57.5877 2161.74 55.9673 Q2159.71 54.3469 2152.78 52.8481 L2150.19 52.2405 Q2143.26 50.7821 2140.18 47.7845 Q2137.11 44.7463 2137.11 39.4801 Q2137.11 33.0797 2141.64 29.5959 Q2146.18 26.1121 2154.52 26.1121 Q2158.66 26.1121 2162.3 26.7198 Q2165.95 27.3274 2169.03 28.5427 Z" fill="#000000" fill-rule="nonzero" fill-opacity="1" /><polyline clip-path="url(#clip602)" style="stroke:#009af9; stroke-linecap:round; stroke-linejoin:round; stroke-width:4; stroke-opacity:1; fill:none" points="218.754,1331.87 248.351,1330.59 277.949,1328.3 307.547,1325.12 337.145,1321.1 366.743,1316.23 396.341,1310.47 425.938,1303.75 455.536,1296 485.134,1287.1 514.732,1276.96 544.33,1265.44 573.927,1252.42 603.525,1237.76 633.123,1221.31 662.721,1202.93 692.319,1182.48 721.916,1159.84 751.514,1134.9 781.112,1107.58 810.71,1077.87 840.308,1045.8 869.906,1011.48 899.503,975.137 929.101,937.085 958.699,897.732 988.297,857.616 1017.89,817.55 1047.49,778.833 1077.09,742.921 1106.69,711.016 1136.29,684.604 1165.88,665.85 1195.48,657.497 1225.08,662.983 1254.68,684.552 1284.27,721.421 1313.87,769.185 1343.47,816.784 1373.07,870.826 1402.67,941.359 1432.26,1049.81 1461.86,1154.76 1491.46,1232.89 1521.06,1298.86 1550.66,1349.56 1580.25,1386.4 1609.85,1413.28 1639.45,1432.99 1669.05,1447.44 1698.64,1458.02 1728.24,1465.75 1757.84,1471.4 1787.44,1475.52 1817.04,1478.52 1846.63,1480.7 1876.23,1482.28 1905.83,1483.43 1935.43,1484.26 1965.02,1484.87 1994.62,1485.3 2024.22,1485.62 2053.82,1485.84 2083.42,1486.02 2113.01,1486.14 2142.61,1486.21 2172.21,1486.26 2201.81,1486.3 2231.4,1486.34 2261,1486.33 2290.6,1486.32 "/>
<polyline clip-path="url(#clip602)" style="stroke:#e26f46; stroke-linecap:round; stroke-linejoin:round; stroke-width:4; stroke-opacity:1; fill:none" points="218.754,1413.98 248.351,1413.47 277.949,1412.54 307.547,1411.22 337.145,1409.54 366.743,1407.48 396.341,1405.03 425.938,1402.15 455.536,1398.82 485.134,1394.99 514.732,1390.59 544.33,1385.59 573.927,1379.92 603.525,1373.51 633.123,1366.29 662.721,1358.19 692.319,1349.14 721.916,1339.08 751.514,1327.95 781.112,1315.69 810.71,1302.29 840.308,1287.73 869.906,1272.06 899.503,1255.35 929.101,1237.71 958.699,1219.32 988.297,1200.42 1017.89,1181.35 1047.49,1162.66 1077.09,1144.99 1106.69,1128.95 1136.29,1115.23 1165.88,1104.75 1195.48,1098.58 1225.08,1098.02 1254.68,1104.02 1284.27,1116.72 1313.87,1135.18 1343.47,1156.66 1373.07,1183.41 1402.67,1218.39 1432.26,1267 1461.86,1315.39 1491.46,1356.83 1521.06,1390.89 1550.66,1416.44 1580.25,1435.18 1609.85,1448.95 1639.45,1459.06 1669.05,1466.48 1698.64,1471.91 1728.24,1475.87 1757.84,1478.77 1787.44,1480.87 1817.04,1482.4 1846.63,1483.52 1876.23,1484.33 1905.83,1484.91 1935.43,1485.34 1965.02,1485.64 1994.62,1485.87 2024.22,1486.03 2053.82,1486.14 2083.42,1486.23 2113.01,1486.29 2142.61,1486.33 2172.21,1486.35 2201.81,1486.38 2231.4,1486.39 2261,1486.39 2290.6,1486.38 "/>
<polyline clip-path="url(#clip602)" style="stroke:#3da44d; stroke-linecap:round; stroke-linejoin:round; stroke-width:4; stroke-opacity:1; fill:none" points="218.754,1455.66 248.351,1455.48 277.949,1455.14 307.547,1454.66 337.145,1454.04 366.743,1453.26 396.341,1452.34 425.938,1451.24 455.536,1449.97 485.134,1448.49 514.732,1446.79 544.33,1444.85 573.927,1442.63 603.525,1440.11 633.123,1437.25 662.721,1434.03 692.319,1430.41 721.916,1426.36 751.514,1421.84 781.112,1416.83 810.71,1411.3 840.308,1405.24 869.906,1398.66 899.503,1391.56 929.101,1383.99 958.699,1375.99 988.297,1367.65 1017.89,1359.11 1047.49,1350.58 1077.09,1342.32 1106.69,1334.62 1136.29,1327.77 1165.88,1322.14 1195.48,1318.19 1225.08,1316.4 1254.68,1317.23 1284.27,1320.89 1313.87,1327.3 1343.47,1335.92 1373.07,1347.55 1402.67,1363.06 1432.26,1383.75 1461.86,1405.54 1491.46,1425.63 1521.06,1441.74 1550.66,1453.73 1580.25,1462.54 1609.85,1469.01 1639.45,1473.75 1669.05,1477.22 1698.64,1479.74 1728.24,1481.58 1757.84,1482.92 1787.44,1483.89 1817.04,1484.6 1846.63,1485.11 1876.23,1485.48 1905.83,1485.75 1935.43,1485.94 1965.02,1486.08 1994.62,1486.18 2024.22,1486.26 2053.82,1486.31 2083.42,1486.35 2113.01,1486.38 2142.61,1486.39 2172.21,1486.41 2201.81,1486.42 2231.4,1486.42 2261,1486.42 2290.6,1486.42 "/>
<polyline clip-path="url(#clip602)" style="stroke:#c271d2; stroke-linecap:round; stroke-linejoin:round; stroke-width:4; stroke-opacity:1; fill:none" points="218.754,1476.39 248.351,1476.35 277.949,1476.26 307.547,1476.13 337.145,1475.96 366.743,1475.75 396.341,1475.49 425.938,1475.18 455.536,1474.82 485.134,1474.4 514.732,1473.91 544.33,1473.35 573.927,1472.7 603.525,1471.96 633.123,1471.11 662.721,1470.15 692.319,1469.06 721.916,1467.82 751.514,1466.42 781.112,1464.86 810.71,1463.1 840.308,1461.16 869.906,1459.02 899.503,1456.67 929.101,1454.12 958.699,1451.38 988.297,1448.47 1017.89,1445.41 1047.49,1442.28 1077.09,1439.17 1106.69,1436.17 1136.29,1433.38 1165.88,1430.92 1195.48,1428.97 1225.08,1427.69 1254.68,1427.25 1284.27,1427.77 1313.87,1429.32 1343.47,1431.82 1373.07,1435.6 1402.67,1440.96 1432.26,1448.3 1461.86,1456.55 1491.46,1464.48 1521.06,1470.6 1550.66,1475.04 1580.25,1478.23 1609.85,1480.53 1639.45,1482.18 1669.05,1483.37 1698.64,1484.23 1728.24,1484.85 1757.84,1485.3 1787.44,1485.62 1817.04,1485.85 1846.63,1486.02 1876.23,1486.14 1905.83,1486.22 1935.43,1486.29 1965.02,1486.33 1994.62,1486.36 2024.22,1486.39 2053.82,1486.4 2083.42,1486.42 2113.01,1486.43 2142.61,1486.43 2172.21,1486.43 2201.81,1486.44 2231.4,1486.44 2261,1486.44 2290.6,1486.44 "/>
<path clip-path="url(#clip600)" d="M2005.79 428.105 L2279.55 428.105 L2279.55 168.905 L2005.79 168.905  Z" fill="#ffffff" fill-rule="evenodd" fill-opacity="1"/>
<polyline clip-path="url(#clip600)" style="stroke:#000000; stroke-linecap:round; stroke-linejoin:round; stroke-width:4; stroke-opacity:1; fill:none" points="2005.79,428.105 2279.55,428.105 2279.55,168.905 2005.79,168.905 2005.79,428.105 "/>
<polyline clip-path="url(#clip600)" style="stroke:#009af9; stroke-linecap:round; stroke-linejoin:round; stroke-width:4; stroke-opacity:1; fill:none" points="2030.19,220.745 2176.6,220.745 "/>
<path clip-path="url(#clip600)" d="M2214.85 240.432 Q2213.04 245.062 2211.33 246.474 Q2209.62 247.886 2206.75 247.886 L2203.34 247.886 L2203.34 244.321 L2205.84 244.321 Q2207.6 244.321 2208.58 243.488 Q2209.55 242.654 2210.73 239.552 L2211.49 237.608 L2201.01 212.099 L2205.52 212.099 L2213.62 232.377 L2221.72 212.099 L2226.24 212.099 L2214.85 240.432 Z" fill="#000000" fill-rule="nonzero" fill-opacity="1" /><path clip-path="url(#clip600)" d="M2233.53 234.089 L2241.17 234.089 L2241.17 207.724 L2232.86 209.391 L2232.86 205.131 L2241.12 203.465 L2245.8 203.465 L2245.8 234.089 L2253.44 234.089 L2253.44 238.025 L2233.53 238.025 L2233.53 234.089 Z" fill="#000000" fill-rule="nonzero" fill-opacity="1" /><polyline clip-path="url(#clip600)" style="stroke:#e26f46; stroke-linecap:round; stroke-linejoin:round; stroke-width:4; stroke-opacity:1; fill:none" points="2030.19,272.585 2176.6,272.585 "/>
<path clip-path="url(#clip600)" d="M2214.85 292.272 Q2213.04 296.902 2211.33 298.314 Q2209.62 299.726 2206.75 299.726 L2203.34 299.726 L2203.34 296.161 L2205.84 296.161 Q2207.6 296.161 2208.58 295.328 Q2209.55 294.494 2210.73 291.392 L2211.49 289.448 L2201.01 263.939 L2205.52 263.939 L2213.62 284.217 L2221.72 263.939 L2226.24 263.939 L2214.85 292.272 Z" fill="#000000" fill-rule="nonzero" fill-opacity="1" /><path clip-path="url(#clip600)" d="M2236.75 285.929 L2253.07 285.929 L2253.07 289.865 L2231.12 289.865 L2231.12 285.929 Q2233.78 283.175 2238.37 278.545 Q2242.97 273.893 2244.15 272.55 Q2246.4 270.027 2247.28 268.291 Q2248.18 266.531 2248.18 264.842 Q2248.18 262.087 2246.24 260.351 Q2244.32 258.615 2241.21 258.615 Q2239.01 258.615 2236.56 259.379 Q2234.13 260.143 2231.35 261.694 L2231.35 256.971 Q2234.18 255.837 2236.63 255.258 Q2239.08 254.68 2241.12 254.68 Q2246.49 254.68 2249.69 257.365 Q2252.88 260.05 2252.88 264.541 Q2252.88 266.67 2252.07 268.592 Q2251.28 270.49 2249.18 273.082 Q2248.6 273.754 2245.5 276.971 Q2242.39 280.166 2236.75 285.929 Z" fill="#000000" fill-rule="nonzero" fill-opacity="1" /><polyline clip-path="url(#clip600)" style="stroke:#3da44d; stroke-linecap:round; stroke-linejoin:round; stroke-width:4; stroke-opacity:1; fill:none" points="2030.19,324.425 2176.6,324.425 "/>
<path clip-path="url(#clip600)" d="M2214.85 344.112 Q2213.04 348.742 2211.33 350.154 Q2209.62 351.566 2206.75 351.566 L2203.34 351.566 L2203.34 348.001 L2205.84 348.001 Q2207.6 348.001 2208.58 347.168 Q2209.55 346.334 2210.73 343.232 L2211.49 341.288 L2201.01 315.779 L2205.52 315.779 L2213.62 336.057 L2221.72 315.779 L2226.24 315.779 L2214.85 344.112 Z" fill="#000000" fill-rule="nonzero" fill-opacity="1" /><path clip-path="url(#clip600)" d="M2246.89 323.07 Q2250.24 323.788 2252.12 326.057 Q2254.01 328.325 2254.01 331.658 Q2254.01 336.774 2250.5 339.575 Q2246.98 342.376 2240.5 342.376 Q2238.32 342.376 2236.01 341.936 Q2233.71 341.519 2231.26 340.663 L2231.26 336.149 Q2233.2 337.283 2235.52 337.862 Q2237.83 338.441 2240.36 338.441 Q2244.76 338.441 2247.05 336.705 Q2249.36 334.969 2249.36 331.658 Q2249.36 328.603 2247.21 326.89 Q2245.08 325.154 2241.26 325.154 L2237.23 325.154 L2237.23 321.311 L2241.45 321.311 Q2244.89 321.311 2246.72 319.946 Q2248.55 318.557 2248.55 315.964 Q2248.55 313.302 2246.65 311.89 Q2244.78 310.455 2241.26 310.455 Q2239.34 310.455 2237.14 310.871 Q2234.94 311.288 2232.3 312.168 L2232.3 308.001 Q2234.96 307.26 2237.28 306.89 Q2239.62 306.52 2241.68 306.52 Q2247 306.52 2250.1 308.95 Q2253.2 311.358 2253.2 315.478 Q2253.2 318.348 2251.56 320.339 Q2249.92 322.307 2246.89 323.07 Z" fill="#000000" fill-rule="nonzero" fill-opacity="1" /><polyline clip-path="url(#clip600)" style="stroke:#c271d2; stroke-linecap:round; stroke-linejoin:round; stroke-width:4; stroke-opacity:1; fill:none" points="2030.19,376.265 2176.6,376.265 "/>
<path clip-path="url(#clip600)" d="M2214.85 395.952 Q2213.04 400.582 2211.33 401.994 Q2209.62 403.406 2206.75 403.406 L2203.34 403.406 L2203.34 399.841 L2205.84 399.841 Q2207.6 399.841 2208.58 399.008 Q2209.55 398.174 2210.73 395.072 L2211.49 393.128 L2201.01 367.619 L2205.52 367.619 L2213.62 387.897 L2221.72 367.619 L2226.24 367.619 L2214.85 395.952 Z" fill="#000000" fill-rule="nonzero" fill-opacity="1" /><path clip-path="url(#clip600)" d="M2245.57 363.059 L2233.76 381.508 L2245.57 381.508 L2245.57 363.059 M2244.34 358.985 L2250.22 358.985 L2250.22 381.508 L2255.15 381.508 L2255.15 385.397 L2250.22 385.397 L2250.22 393.545 L2245.57 393.545 L2245.57 385.397 L2229.96 385.397 L2229.96 380.883 L2244.34 358.985 Z" fill="#000000" fill-rule="nonzero" fill-opacity="1" /></svg>
