<?xml version="1.0" encoding="utf-8"?>
<svg xmlns="http://www.w3.org/2000/svg" xmlns:xlink="http://www.w3.org/1999/xlink" width="600" height="400" viewBox="0 0 2400 1600">
<defs>
  <clipPath id="clip710">
    <rect x="0" y="0" width="2400" height="1600"/>
  </clipPath>
</defs>
<path clip-path="url(#clip710)" d="M0 1600 L2400 1600 L2400 0 L0 0  Z" fill="#ffffff" fill-rule="evenodd" fill-opacity="1"/>
<defs>
  <clipPath id="clip711">
    <rect x="480" y="0" width="1681" height="1600"/>
  </clipPath>
</defs>
<path clip-path="url(#clip710)" d="M242.135 1423.18 L2352.76 1423.18 L2352.76 123.472 L242.135 123.472  Z" fill="#ffffff" fill-rule="evenodd" fill-opacity="1"/>
<defs>
  <clipPath id="clip712">
    <rect x="242" y="123" width="2112" height="1301"/>
  </clipPath>
</defs>
<polyline clip-path="url(#clip712)" style="stroke:#000000; stroke-linecap:round; stroke-linejoin:round; stroke-width:2; stroke-opacity:0.1; fill:none" points="273.424,1423.18 273.424,123.472 "/>
<polyline clip-path="url(#clip712)" style="stroke:#000000; stroke-linecap:round; stroke-linejoin:round; stroke-width:2; stroke-opacity:0.1; fill:none" points="842.325,1423.18 842.325,123.472 "/>
<polyline clip-path="url(#clip712)" style="stroke:#000000; stroke-linecap:round; stroke-linejoin:round; stroke-width:2; stroke-opacity:0.1; fill:none" points="1411.23,1423.18 1411.23,123.472 "/>
<polyline clip-path="url(#clip712)" style="stroke:#000000; stroke-linecap:round; stroke-linejoin:round; stroke-width:2; stroke-opacity:0.1; fill:none" points="1980.13,1423.18 1980.13,123.472 "/>
<polyline clip-path="url(#clip712)" style="stroke:#000000; stroke-linecap:round; stroke-linejoin:round; stroke-width:2; stroke-opacity:0.1; fill:none" points="242.135,1225.61 2352.76,1225.61 "/>
<polyline clip-path="url(#clip712)" style="stroke:#000000; stroke-linecap:round; stroke-linejoin:round; stroke-width:2; stroke-opacity:0.1; fill:none" points="242.135,1015.09 2352.76,1015.09 "/>
<polyline clip-path="url(#clip712)" style="stroke:#000000; stroke-linecap:round; stroke-linejoin:round; stroke-width:2; stroke-opacity:0.1; fill:none" points="242.135,804.575 2352.76,804.575 "/>
<polyline clip-path="url(#clip712)" style="stroke:#000000; stroke-linecap:round; stroke-linejoin:round; stroke-width:2; stroke-opacity:0.1; fill:none" points="242.135,594.057 2352.76,594.057 "/>
<polyline clip-path="url(#clip712)" style="stroke:#000000; stroke-linecap:round; stroke-linejoin:round; stroke-width:2; stroke-opacity:0.1; fill:none" points="242.135,383.539 2352.76,383.539 "/>
<polyline clip-path="url(#clip712)" style="stroke:#000000; stroke-linecap:round; stroke-linejoin:round; stroke-width:2; stroke-opacity:0.1; fill:none" points="242.135,173.021 2352.76,173.021 "/>
<polyline clip-path="url(#clip710)" style="stroke:#000000; stroke-linecap:round; stroke-linejoin:round; stroke-width:4; stroke-opacity:1; fill:none" points="242.135,1423.18 2352.76,1423.18 "/>
<polyline clip-path="url(#clip710)" style="stroke:#000000; stroke-linecap:round; stroke-linejoin:round; stroke-width:4; stroke-opacity:1; fill:none" points="273.424,1423.18 273.424,1404.28 "/>
<polyline clip-path="url(#clip710)" style="stroke:#000000; stroke-linecap:round; stroke-linejoin:round; stroke-width:4; stroke-opacity:1; fill:none" points="842.325,1423.18 842.325,1404.28 "/>
<polyline clip-path="url(#clip710)" style="stroke:#000000; stroke-linecap:round; stroke-linejoin:round; stroke-width:4; stroke-opacity:1; fill:none" points="1411.23,1423.18 1411.23,1404.28 "/>
<polyline clip-path="url(#clip710)" style="stroke:#000000; stroke-linecap:round; stroke-linejoin:round; stroke-width:4; stroke-opacity:1; fill:none" points="1980.13,1423.18 1980.13,1404.28 "/>
<path clip-path="url(#clip710)" d="M273.424 1454.1 Q269.813 1454.1 267.984 1457.66 Q266.179 1461.2 266.179 1468.33 Q266.179 1475.44 267.984 1479.01 Q269.813 1482.55 273.424 1482.55 Q277.058 1482.55 278.864 1479.01 Q280.693 1475.44 280.693 1468.33 Q280.693 1461.2 278.864 1457.66 Q277.058 1454.1 273.424 1454.1 M273.424 1450.39 Q279.234 1450.39 282.29 1455 Q285.369 1459.58 285.369 1468.33 Q285.369 1477.06 282.29 1481.67 Q279.234 1486.25 273.424 1486.25 Q267.614 1486.25 264.535 1481.67 Q261.48 1477.06 261.48 1468.33 Q261.48 1459.58 264.535 1455 Q267.614 1450.39 273.424 1450.39 Z" fill="#000000" fill-rule="nonzero" fill-opacity="1" /><path clip-path="url(#clip710)" d="M821.098 1481.64 L837.417 1481.64 L837.417 1485.58 L815.473 1485.58 L815.473 1481.64 Q818.135 1478.89 822.718 1474.26 Q827.325 1469.61 828.505 1468.27 Q830.751 1465.74 831.63 1464.01 Q832.533 1462.25 832.533 1460.56 Q832.533 1457.8 830.589 1456.07 Q828.667 1454.33 825.566 1454.33 Q823.367 1454.33 820.913 1455.09 Q818.482 1455.86 815.705 1457.41 L815.705 1452.69 Q818.529 1451.55 820.982 1450.97 Q823.436 1450.39 825.473 1450.39 Q830.843 1450.39 834.038 1453.08 Q837.232 1455.77 837.232 1460.26 Q837.232 1462.39 836.422 1464.31 Q835.635 1466.2 833.529 1468.8 Q832.95 1469.47 829.848 1472.69 Q826.746 1475.88 821.098 1481.64 Z" fill="#000000" fill-rule="nonzero" fill-opacity="1" /><path clip-path="url(#clip710)" d="M857.232 1454.1 Q853.621 1454.1 851.792 1457.66 Q849.987 1461.2 849.987 1468.33 Q849.987 1475.44 851.792 1479.01 Q853.621 1482.55 857.232 1482.55 Q860.866 1482.55 862.672 1479.01 Q864.501 1475.44 864.501 1468.33 Q864.501 1461.2 862.672 1457.66 Q860.866 1454.1 857.232 1454.1 M857.232 1450.39 Q863.042 1450.39 866.098 1455 Q869.177 1459.58 869.177 1468.33 Q869.177 1477.06 866.098 1481.67 Q863.042 1486.25 857.232 1486.25 Q851.422 1486.25 848.343 1481.67 Q845.288 1477.06 845.288 1468.33 Q845.288 1459.58 848.343 1455 Q851.422 1450.39 857.232 1450.39 Z" fill="#000000" fill-rule="nonzero" fill-opacity="1" /><path clip-path="url(#clip710)" d="M1399.4 1455.09 L1387.59 1473.54 L1399.4 1473.54 L1399.4 1455.09 M1398.17 1451.02 L1404.05 1451.02 L1404.05 1473.54 L1408.98 1473.54 L1408.98 1477.43 L1404.05 1477.43 L1404.05 1485.58 L1399.4 1485.58 L1399.4 1477.43 L1383.79 1477.43 L1383.79 1472.92 L1398.17 1451.02 Z" fill="#000000" fill-rule="nonzero" fill-opacity="1" /><path clip-path="url(#clip710)" d="M1426.71 1454.1 Q1423.1 1454.1 1421.27 1457.66 Q1419.47 1461.2 1419.47 1468.33 Q1419.47 1475.44 1421.27 1479.01 Q1423.1 1482.55 1426.71 1482.55 Q1430.35 1482.55 1432.15 1479.01 Q1433.98 1475.44 1433.98 1468.33 Q1433.98 1461.2 1432.15 1457.66 Q1430.35 1454.1 1426.71 1454.1 M1426.71 1450.39 Q1432.52 1450.39 1435.58 1455 Q1438.66 1459.58 1438.66 1468.33 Q1438.66 1477.06 1435.58 1481.67 Q1432.52 1486.25 1426.71 1486.25 Q1420.9 1486.25 1417.82 1481.67 Q1414.77 1477.06 1414.77 1468.33 Q1414.77 1459.58 1417.82 1455 Q1420.9 1450.39 1426.71 1450.39 Z" fill="#000000" fill-rule="nonzero" fill-opacity="1" /><path clip-path="url(#clip710)" d="M1965.53 1466.44 Q1962.38 1466.44 1960.53 1468.59 Q1958.7 1470.74 1958.7 1474.49 Q1958.7 1478.22 1960.53 1480.39 Q1962.38 1482.55 1965.53 1482.55 Q1968.68 1482.55 1970.51 1480.39 Q1972.36 1478.22 1972.36 1474.49 Q1972.36 1470.74 1970.51 1468.59 Q1968.68 1466.44 1965.53 1466.44 M1974.81 1451.78 L1974.81 1456.04 Q1973.05 1455.21 1971.25 1454.77 Q1969.47 1454.33 1967.71 1454.33 Q1963.08 1454.33 1960.62 1457.45 Q1958.19 1460.58 1957.85 1466.9 Q1959.21 1464.89 1961.27 1463.82 Q1963.33 1462.73 1965.81 1462.73 Q1971.02 1462.73 1974.03 1465.9 Q1977.06 1469.05 1977.06 1474.49 Q1977.06 1479.82 1973.91 1483.03 Q1970.76 1486.25 1965.53 1486.25 Q1959.54 1486.25 1956.36 1481.67 Q1953.19 1477.06 1953.19 1468.33 Q1953.19 1460.14 1957.08 1455.28 Q1960.97 1450.39 1967.52 1450.39 Q1969.28 1450.39 1971.06 1450.74 Q1972.87 1451.09 1974.81 1451.78 Z" fill="#000000" fill-rule="nonzero" fill-opacity="1" /><path clip-path="url(#clip710)" d="M1995.11 1454.1 Q1991.5 1454.1 1989.67 1457.66 Q1987.87 1461.2 1987.87 1468.33 Q1987.87 1475.44 1989.67 1479.01 Q1991.5 1482.55 1995.11 1482.55 Q1998.75 1482.55 2000.55 1479.01 Q2002.38 1475.44 2002.38 1468.33 Q2002.38 1461.2 2000.55 1457.66 Q1998.75 1454.1 1995.11 1454.1 M1995.11 1450.39 Q2000.92 1450.39 2003.98 1455 Q2007.06 1459.58 2007.06 1468.33 Q2007.06 1477.06 2003.98 1481.67 Q2000.92 1486.25 1995.11 1486.25 Q1989.3 1486.25 1986.23 1481.67 Q1983.17 1477.06 1983.17 1468.33 Q1983.17 1459.58 1986.23 1455 Q1989.3 1450.39 1995.11 1450.39 Z" fill="#000000" fill-rule="nonzero" fill-opacity="1" /><path clip-path="url(#clip710)" d="M1067.34 1520.52 L1097.39 1520.52 L1097.39 1525.93 L1073.77 1525.93 L1073.77 1540 L1096.4 1540 L1096.4 1545.41 L1073.77 1545.41 L1073.77 1562.63 L1097.96 1562.63 L1097.96 1568.04 L1067.34 1568.04 L1067.34 1520.52 Z" fill="#000000" fill-rule="nonzero" fill-opacity="1" /><path clip-path="url(#clip710)" d="M1124.47 1550.12 Q1117.38 1550.12 1114.64 1551.75 Q1111.9 1553.37 1111.9 1557.29 Q1111.9 1560.4 1113.94 1562.25 Q1116.01 1564.07 1119.54 1564.07 Q1124.41 1564.07 1127.34 1560.63 Q1130.3 1557.16 1130.3 1551.43 L1130.3 1550.12 L1124.47 1550.12 M1136.15 1547.71 L1136.15 1568.04 L1130.3 1568.04 L1130.3 1562.63 Q1128.29 1565.88 1125.3 1567.44 Q1122.31 1568.97 1117.98 1568.97 Q1112.51 1568.97 1109.26 1565.91 Q1106.04 1562.82 1106.04 1557.67 Q1106.04 1551.65 1110.05 1548.6 Q1114.1 1545.54 1122.09 1545.54 L1130.3 1545.54 L1130.3 1544.97 Q1130.3 1540.93 1127.62 1538.73 Q1124.98 1536.5 1120.18 1536.5 Q1117.12 1536.5 1114.22 1537.23 Q1111.33 1537.97 1108.65 1539.43 L1108.65 1534.02 Q1111.87 1532.78 1114.89 1532.17 Q1117.92 1531.54 1120.78 1531.54 Q1128.52 1531.54 1132.33 1535.55 Q1136.15 1539.56 1136.15 1547.71 Z" fill="#000000" fill-rule="nonzero" fill-opacity="1" /><path clip-path="url(#clip710)" d="M1168.87 1537.87 Q1167.89 1537.3 1166.71 1537.04 Q1165.56 1536.76 1164.16 1536.76 Q1159.2 1536.76 1156.52 1540 Q1153.88 1543.22 1153.88 1549.27 L1153.88 1568.04 L1147.99 1568.04 L1147.99 1532.4 L1153.88 1532.4 L1153.88 1537.93 Q1155.73 1534.69 1158.69 1533.13 Q1161.65 1531.54 1165.88 1531.54 Q1166.49 1531.54 1167.22 1531.63 Q1167.95 1531.7 1168.84 1531.85 L1168.87 1537.87 Z" fill="#000000" fill-rule="nonzero" fill-opacity="1" /><path clip-path="url(#clip710)" d="M1231.58 1524.18 L1231.58 1530.96 Q1228.33 1527.94 1224.64 1526.44 Q1220.98 1524.95 1216.84 1524.95 Q1208.69 1524.95 1204.36 1529.95 Q1200.03 1534.91 1200.03 1544.33 Q1200.03 1553.72 1204.36 1558.72 Q1208.69 1563.68 1216.84 1563.68 Q1220.98 1563.68 1224.64 1562.19 Q1228.33 1560.69 1231.58 1557.67 L1231.58 1564.38 Q1228.2 1566.68 1224.41 1567.82 Q1220.66 1568.97 1216.46 1568.97 Q1205.67 1568.97 1199.46 1562.38 Q1193.25 1555.76 1193.25 1544.33 Q1193.25 1532.87 1199.46 1526.28 Q1205.67 1519.66 1216.46 1519.66 Q1220.72 1519.66 1224.48 1520.81 Q1228.27 1521.92 1231.58 1524.18 Z" fill="#000000" fill-rule="nonzero" fill-opacity="1" /><path clip-path="url(#clip710)" d="M1270.88 1546.53 L1270.88 1568.04 L1265.03 1568.04 L1265.03 1546.72 Q1265.03 1541.66 1263.05 1539.14 Q1261.08 1536.63 1257.13 1536.63 Q1252.39 1536.63 1249.65 1539.65 Q1246.92 1542.68 1246.92 1547.9 L1246.92 1568.04 L1241.03 1568.04 L1241.03 1518.52 L1246.92 1518.52 L1246.92 1537.93 Q1249.02 1534.72 1251.85 1533.13 Q1254.72 1531.54 1258.44 1531.54 Q1264.58 1531.54 1267.73 1535.36 Q1270.88 1539.14 1270.88 1546.53 Z" fill="#000000" fill-rule="nonzero" fill-opacity="1" /><path clip-path="url(#clip710)" d="M1298.77 1550.12 Q1291.67 1550.12 1288.93 1551.75 Q1286.19 1553.37 1286.19 1557.29 Q1286.19 1560.4 1288.23 1562.25 Q1290.3 1564.07 1293.83 1564.07 Q1298.7 1564.07 1301.63 1560.63 Q1304.59 1557.16 1304.59 1551.43 L1304.59 1550.12 L1298.77 1550.12 M1310.45 1547.71 L1310.45 1568.04 L1304.59 1568.04 L1304.59 1562.63 Q1302.59 1565.88 1299.59 1567.44 Q1296.6 1568.97 1292.27 1568.97 Q1286.8 1568.97 1283.55 1565.91 Q1280.34 1562.82 1280.34 1557.67 Q1280.34 1551.65 1284.35 1548.6 Q1288.39 1545.54 1296.38 1545.54 L1304.59 1545.54 L1304.59 1544.97 Q1304.59 1540.93 1301.92 1538.73 Q1299.28 1536.5 1294.47 1536.5 Q1291.41 1536.5 1288.52 1537.23 Q1285.62 1537.97 1282.95 1539.43 L1282.95 1534.02 Q1286.16 1532.78 1289.19 1532.17 Q1292.21 1531.54 1295.07 1531.54 Q1302.81 1531.54 1306.63 1535.55 Q1310.45 1539.56 1310.45 1547.71 Z" fill="#000000" fill-rule="nonzero" fill-opacity="1" /><path clip-path="url(#clip710)" d="M1352.14 1546.53 L1352.14 1568.04 L1346.29 1568.04 L1346.29 1546.72 Q1346.29 1541.66 1344.31 1539.14 Q1342.34 1536.63 1338.39 1536.63 Q1333.65 1536.63 1330.91 1539.65 Q1328.18 1542.68 1328.18 1547.9 L1328.18 1568.04 L1322.29 1568.04 L1322.29 1532.4 L1328.18 1532.4 L1328.18 1537.93 Q1330.28 1534.72 1333.11 1533.13 Q1335.97 1531.54 1339.7 1531.54 Q1345.84 1531.54 1348.99 1535.36 Q1352.14 1539.14 1352.14 1546.53 Z" fill="#000000" fill-rule="nonzero" fill-opacity="1" /><path clip-path="url(#clip710)" d="M1393.46 1546.53 L1393.46 1568.04 L1387.6 1568.04 L1387.6 1546.72 Q1387.6 1541.66 1385.63 1539.14 Q1383.65 1536.63 1379.71 1536.63 Q1374.96 1536.63 1372.23 1539.65 Q1369.49 1542.68 1369.49 1547.9 L1369.49 1568.04 L1363.6 1568.04 L1363.6 1532.4 L1369.49 1532.4 L1369.49 1537.93 Q1371.59 1534.72 1374.42 1533.13 Q1377.29 1531.54 1381.01 1531.54 Q1387.15 1531.54 1390.31 1535.36 Q1393.46 1539.14 1393.46 1546.53 Z" fill="#000000" fill-rule="nonzero" fill-opacity="1" /><path clip-path="url(#clip710)" d="M1435.63 1548.76 L1435.63 1551.62 L1408.7 1551.62 Q1409.08 1557.67 1412.33 1560.85 Q1415.61 1564 1421.43 1564 Q1424.81 1564 1427.96 1563.17 Q1431.14 1562.35 1434.26 1560.69 L1434.26 1566.23 Q1431.11 1567.57 1427.8 1568.27 Q1424.49 1568.97 1421.08 1568.97 Q1412.55 1568.97 1407.56 1564 Q1402.59 1559.04 1402.59 1550.57 Q1402.59 1541.82 1407.3 1536.69 Q1412.04 1531.54 1420.06 1531.54 Q1427.26 1531.54 1431.43 1536.18 Q1435.63 1540.8 1435.63 1548.76 M1429.77 1547.04 Q1429.71 1542.23 1427.07 1539.37 Q1424.46 1536.5 1420.13 1536.5 Q1415.23 1536.5 1412.27 1539.27 Q1409.34 1542.04 1408.89 1547.07 L1429.77 1547.04 Z" fill="#000000" fill-rule="nonzero" fill-opacity="1" /><path clip-path="url(#clip710)" d="M1445.24 1518.52 L1451.1 1518.52 L1451.1 1568.04 L1445.24 1568.04 L1445.24 1518.52 Z" fill="#000000" fill-rule="nonzero" fill-opacity="1" /><path clip-path="url(#clip710)" d="M1511.25 1539.37 L1501.99 1539.37 L1499.32 1550 L1508.64 1550 L1511.25 1539.37 M1506.48 1521.26 L1503.17 1534.46 L1512.46 1534.46 L1515.8 1521.26 L1520.9 1521.26 L1517.62 1534.46 L1527.55 1534.46 L1527.55 1539.37 L1516.38 1539.37 L1513.77 1550 L1523.89 1550 L1523.89 1554.87 L1512.53 1554.87 L1509.22 1568.04 L1504.12 1568.04 L1507.4 1554.87 L1498.08 1554.87 L1494.8 1568.04 L1489.67 1568.04 L1492.98 1554.87 L1482.96 1554.87 L1482.96 1550 L1494.16 1550 L1496.84 1539.37 L1486.59 1539.37 L1486.59 1534.46 L1498.08 1534.46 L1501.32 1521.26 L1506.48 1521.26 Z" fill="#000000" fill-rule="nonzero" fill-opacity="1" /><polyline clip-path="url(#clip710)" style="stroke:#000000; stroke-linecap:round; stroke-linejoin:round; stroke-width:4; stroke-opacity:1; fill:none" points="242.135,1423.18 242.135,123.472 "/>
<polyline clip-path="url(#clip710)" style="stroke:#000000; stroke-linecap:round; stroke-linejoin:round; stroke-width:4; stroke-opacity:1; fill:none" points="242.135,1225.61 261.032,1225.61 "/>
<polyline clip-path="url(#clip710)" style="stroke:#000000; stroke-linecap:round; stroke-linejoin:round; stroke-width:4; stroke-opacity:1; fill:none" points="242.135,1015.09 261.032,1015.09 "/>
<polyline clip-path="url(#clip710)" style="stroke:#000000; stroke-linecap:round; stroke-linejoin:round; stroke-width:4; stroke-opacity:1; fill:none" points="242.135,804.575 261.032,804.575 "/>
<polyline clip-path="url(#clip710)" style="stroke:#000000; stroke-linecap:round; stroke-linejoin:round; stroke-width:4; stroke-opacity:1; fill:none" points="242.135,594.057 261.032,594.057 "/>
<polyline clip-path="url(#clip710)" style="stroke:#000000; stroke-linecap:round; stroke-linejoin:round; stroke-width:4; stroke-opacity:1; fill:none" points="242.135,383.539 261.032,383.539 "/>
<polyline clip-path="url(#clip710)" style="stroke:#000000; stroke-linecap:round; stroke-linejoin:round; stroke-width:4; stroke-opacity:1; fill:none" points="242.135,173.021 261.032,173.021 "/>
<path clip-path="url(#clip710)" d="M114.26 1226.06 L143.936 1226.06 L143.936 1230 L114.26 1230 L114.26 1226.06 Z" fill="#000000" fill-rule="nonzero" fill-opacity="1" /><path clip-path="url(#clip710)" d="M152.848 1208.33 L175.07 1208.33 L175.07 1210.32 L162.524 1242.89 L157.64 1242.89 L169.445 1212.27 L152.848 1212.27 L152.848 1208.33 Z" fill="#000000" fill-rule="nonzero" fill-opacity="1" /><path clip-path="url(#clip710)" d="M194.19 1211.41 Q190.579 1211.41 188.75 1214.97 Q186.945 1218.52 186.945 1225.65 Q186.945 1232.75 188.75 1236.32 Q190.579 1239.86 194.19 1239.86 Q197.825 1239.86 199.63 1236.32 Q201.459 1232.75 201.459 1225.65 Q201.459 1218.52 199.63 1214.97 Q197.825 1211.41 194.19 1211.41 M194.19 1207.71 Q200 1207.71 203.056 1212.31 Q206.135 1216.9 206.135 1225.65 Q206.135 1234.37 203.056 1238.98 Q200 1243.56 194.19 1243.56 Q188.38 1243.56 185.301 1238.98 Q182.246 1234.37 182.246 1225.65 Q182.246 1216.9 185.301 1212.31 Q188.38 1207.71 194.19 1207.71 Z" fill="#000000" fill-rule="nonzero" fill-opacity="1" /><path clip-path="url(#clip710)" d="M114.26 1015.54 L143.936 1015.54 L143.936 1019.48 L114.26 1019.48 L114.26 1015.54 Z" fill="#000000" fill-rule="nonzero" fill-opacity="1" /><path clip-path="url(#clip710)" d="M164.607 1013.23 Q161.459 1013.23 159.607 1015.38 Q157.778 1017.54 157.778 1021.29 Q157.778 1025.01 159.607 1027.19 Q161.459 1029.34 164.607 1029.34 Q167.755 1029.34 169.584 1027.19 Q171.436 1025.01 171.436 1021.29 Q171.436 1017.54 169.584 1015.38 Q167.755 1013.23 164.607 1013.23 M173.889 998.577 L173.889 1002.84 Q172.13 1002 170.325 1001.56 Q168.542 1001.12 166.783 1001.12 Q162.153 1001.12 159.7 1004.25 Q157.269 1007.37 156.922 1013.69 Q158.288 1011.68 160.348 1010.61 Q162.408 1009.53 164.885 1009.53 Q170.093 1009.53 173.102 1012.7 Q176.135 1015.85 176.135 1021.29 Q176.135 1026.61 172.987 1029.83 Q169.839 1033.04 164.607 1033.04 Q158.612 1033.04 155.44 1028.46 Q152.269 1023.85 152.269 1015.13 Q152.269 1006.93 156.158 1002.07 Q160.047 997.188 166.598 997.188 Q168.357 997.188 170.139 997.535 Q171.945 997.882 173.889 998.577 Z" fill="#000000" fill-rule="nonzero" fill-opacity="1" /><path clip-path="url(#clip710)" d="M194.19 1000.89 Q190.579 1000.89 188.75 1004.46 Q186.945 1008 186.945 1015.13 Q186.945 1022.23 188.75 1025.8 Q190.579 1029.34 194.19 1029.34 Q197.825 1029.34 199.63 1025.8 Q201.459 1022.23 201.459 1015.13 Q201.459 1008 199.63 1004.46 Q197.825 1000.89 194.19 1000.89 M194.19 997.188 Q200 997.188 203.056 1001.79 Q206.135 1006.38 206.135 1015.13 Q206.135 1023.85 203.056 1028.46 Q200 1033.04 194.19 1033.04 Q188.38 1033.04 185.301 1028.46 Q182.246 1023.85 182.246 1015.13 Q182.246 1006.38 185.301 1001.79 Q188.38 997.188 194.19 997.188 Z" fill="#000000" fill-rule="nonzero" fill-opacity="1" /><path clip-path="url(#clip710)" d="M114.26 805.026 L143.936 805.026 L143.936 808.962 L114.26 808.962 L114.26 805.026 Z" fill="#000000" fill-rule="nonzero" fill-opacity="1" /><path clip-path="url(#clip710)" d="M154.075 787.295 L172.431 787.295 L172.431 791.23 L158.357 791.23 L158.357 799.702 Q159.376 799.355 160.394 799.193 Q161.413 799.008 162.431 799.008 Q168.218 799.008 171.598 802.179 Q174.977 805.351 174.977 810.767 Q174.977 816.346 171.505 819.448 Q168.033 822.526 161.714 822.526 Q159.538 822.526 157.269 822.156 Q155.024 821.786 152.616 821.045 L152.616 816.346 Q154.7 817.48 156.922 818.036 Q159.144 818.591 161.621 818.591 Q165.626 818.591 167.964 816.485 Q170.302 814.378 170.302 810.767 Q170.302 807.156 167.964 805.05 Q165.626 802.943 161.621 802.943 Q159.746 802.943 157.871 803.36 Q156.019 803.776 154.075 804.656 L154.075 787.295 Z" fill="#000000" fill-rule="nonzero" fill-opacity="1" /><path clip-path="url(#clip710)" d="M194.19 790.374 Q190.579 790.374 188.75 793.939 Q186.945 797.48 186.945 804.61 Q186.945 811.716 188.75 815.281 Q190.579 818.823 194.19 818.823 Q197.825 818.823 199.63 815.281 Q201.459 811.716 201.459 804.61 Q201.459 797.48 199.63 793.939 Q197.825 790.374 194.19 790.374 M194.19 786.67 Q200 786.67 203.056 791.277 Q206.135 795.86 206.135 804.61 Q206.135 813.337 203.056 817.943 Q200 822.526 194.19 822.526 Q188.38 822.526 185.301 817.943 Q182.246 813.337 182.246 804.61 Q182.246 795.86 185.301 791.277 Q188.38 786.67 194.19 786.67 Z" fill="#000000" fill-rule="nonzero" fill-opacity="1" /><path clip-path="url(#clip710)" d="M114.26 594.509 L143.936 594.509 L143.936 598.444 L114.26 598.444 L114.26 594.509 Z" fill="#000000" fill-rule="nonzero" fill-opacity="1" /><path clip-path="url(#clip710)" d="M166.876 580.851 L155.07 599.3 L166.876 599.3 L166.876 580.851 M165.649 576.777 L171.528 576.777 L171.528 599.3 L176.459 599.3 L176.459 603.189 L171.528 603.189 L171.528 611.337 L166.876 611.337 L166.876 603.189 L151.274 603.189 L151.274 598.675 L165.649 576.777 Z" fill="#000000" fill-rule="nonzero" fill-opacity="1" /><path clip-path="url(#clip710)" d="M194.19 579.856 Q190.579 579.856 188.75 583.421 Q186.945 586.962 186.945 594.092 Q186.945 601.198 188.75 604.763 Q190.579 608.305 194.19 608.305 Q197.825 608.305 199.63 604.763 Q201.459 601.198 201.459 594.092 Q201.459 586.962 199.63 583.421 Q197.825 579.856 194.19 579.856 M194.19 576.152 Q200 576.152 203.056 580.759 Q206.135 585.342 206.135 594.092 Q206.135 602.819 203.056 607.425 Q200 612.008 194.19 612.008 Q188.38 612.008 185.301 607.425 Q182.246 602.819 182.246 594.092 Q182.246 585.342 185.301 580.759 Q188.38 576.152 194.19 576.152 Z" fill="#000000" fill-rule="nonzero" fill-opacity="1" /><path clip-path="url(#clip710)" d="M114.26 383.991 L143.936 383.991 L143.936 387.926 L114.26 387.926 L114.26 383.991 Z" fill="#000000" fill-rule="nonzero" fill-opacity="1" /><path clip-path="url(#clip710)" d="M168.195 382.185 Q171.552 382.903 173.427 385.171 Q175.325 387.44 175.325 390.773 Q175.325 395.889 171.806 398.69 Q168.288 401.491 161.806 401.491 Q159.63 401.491 157.315 401.051 Q155.024 400.634 152.57 399.778 L152.57 395.264 Q154.515 396.398 156.829 396.977 Q159.144 397.555 161.667 397.555 Q166.065 397.555 168.357 395.819 Q170.672 394.083 170.672 390.773 Q170.672 387.718 168.519 386.005 Q166.39 384.268 162.57 384.268 L158.542 384.268 L158.542 380.426 L162.755 380.426 Q166.204 380.426 168.033 379.06 Q169.862 377.671 169.862 375.079 Q169.862 372.417 167.964 371.005 Q166.089 369.569 162.57 369.569 Q160.649 369.569 158.45 369.986 Q156.251 370.403 153.612 371.282 L153.612 367.116 Q156.274 366.375 158.589 366.005 Q160.927 365.634 162.987 365.634 Q168.311 365.634 171.413 368.065 Q174.514 370.472 174.514 374.593 Q174.514 377.463 172.871 379.454 Q171.227 381.421 168.195 382.185 Z" fill="#000000" fill-rule="nonzero" fill-opacity="1" /><path clip-path="url(#clip710)" d="M194.19 369.338 Q190.579 369.338 188.75 372.903 Q186.945 376.444 186.945 383.574 Q186.945 390.68 188.75 394.245 Q190.579 397.787 194.19 397.787 Q197.825 397.787 199.63 394.245 Q201.459 390.68 201.459 383.574 Q201.459 376.444 199.63 372.903 Q197.825 369.338 194.19 369.338 M194.19 365.634 Q200 365.634 203.056 370.241 Q206.135 374.824 206.135 383.574 Q206.135 392.301 203.056 396.907 Q200 401.491 194.19 401.491 Q188.38 401.491 185.301 396.907 Q182.246 392.301 182.246 383.574 Q182.246 374.824 185.301 370.241 Q188.38 365.634 194.19 365.634 Z" fill="#000000" fill-rule="nonzero" fill-opacity="1" /><path clip-path="url(#clip710)" d="M114.26 173.473 L143.936 173.473 L143.936 177.408 L114.26 177.408 L114.26 173.473 Z" fill="#000000" fill-rule="nonzero" fill-opacity="1" /><path clip-path="url(#clip710)" d="M158.056 186.366 L174.376 186.366 L174.376 190.301 L152.431 190.301 L152.431 186.366 Q155.093 183.612 159.677 178.982 Q164.283 174.329 165.464 172.987 Q167.709 170.464 168.589 168.727 Q169.491 166.968 169.491 165.278 Q169.491 162.524 167.547 160.788 Q165.626 159.052 162.524 159.052 Q160.325 159.052 157.871 159.815 Q155.44 160.579 152.663 162.13 L152.663 157.408 Q155.487 156.274 157.94 155.695 Q160.394 155.116 162.431 155.116 Q167.802 155.116 170.996 157.802 Q174.19 160.487 174.19 164.977 Q174.19 167.107 173.38 169.028 Q172.593 170.927 170.487 173.519 Q169.908 174.19 166.806 177.408 Q163.704 180.602 158.056 186.366 Z" fill="#000000" fill-rule="nonzero" fill-opacity="1" /><path clip-path="url(#clip710)" d="M194.19 158.82 Q190.579 158.82 188.75 162.385 Q186.945 165.927 186.945 173.056 Q186.945 180.163 188.75 183.727 Q190.579 187.269 194.19 187.269 Q197.825 187.269 199.63 183.727 Q201.459 180.163 201.459 173.056 Q201.459 165.927 199.63 162.385 Q197.825 158.82 194.19 158.82 M194.19 155.116 Q200 155.116 203.056 159.723 Q206.135 164.306 206.135 173.056 Q206.135 181.783 203.056 186.389 Q200 190.973 194.19 190.973 Q188.38 190.973 185.301 186.389 Q182.246 181.783 182.246 173.056 Q182.246 164.306 185.301 159.723 Q188.38 155.116 194.19 155.116 Z" fill="#000000" fill-rule="nonzero" fill-opacity="1" /><path clip-path="url(#clip710)" d="M33.7671 786.264 L14.479 786.264 L14.479 780.408 L64.0042 780.408 L64.0042 786.264 L58.657 786.264 Q61.8398 788.11 63.3994 790.943 Q64.9272 793.744 64.9272 797.691 Q64.9272 804.152 59.771 808.226 Q54.6147 812.268 46.212 812.268 Q37.8093 812.268 32.6531 808.226 Q27.4968 804.152 27.4968 797.691 Q27.4968 793.744 29.0564 790.943 Q30.5842 788.11 33.7671 786.264 M46.212 806.221 Q52.6732 806.221 56.3653 803.579 Q60.0256 800.905 60.0256 796.258 Q60.0256 791.611 56.3653 788.938 Q52.6732 786.264 46.212 786.264 Q39.7508 786.264 36.0905 788.938 Q32.3984 791.611 32.3984 796.258 Q32.3984 800.905 36.0905 803.579 Q39.7508 806.221 46.212 806.221 Z" fill="#000000" fill-rule="nonzero" fill-opacity="1" /><path clip-path="url(#clip710)" d="M41.3104 761.661 L58.7206 761.661 L58.7206 751.348 Q58.7206 746.16 56.5881 743.678 Q54.4238 741.163 49.9996 741.163 Q45.5436 741.163 43.4429 743.678 Q41.3104 746.16 41.3104 751.348 L41.3104 761.661 M21.7677 761.661 L36.0905 761.661 L36.0905 752.144 Q36.0905 747.433 34.34 745.142 Q32.5576 742.818 28.9291 742.818 Q25.3325 742.818 23.5501 745.142 Q21.7677 747.433 21.7677 752.144 L21.7677 761.661 M16.4842 768.09 L16.4842 751.667 Q16.4842 744.314 19.5397 740.336 Q22.5952 736.357 28.2289 736.357 Q32.5894 736.357 35.1675 738.394 Q37.7456 740.431 38.3822 744.378 Q39.4007 739.635 42.6472 737.026 Q45.8619 734.384 50.6998 734.384 Q57.0655 734.384 60.5348 738.712 Q64.0042 743.041 64.0042 751.03 L64.0042 768.09 L16.4842 768.09 Z" fill="#000000" fill-rule="nonzero" fill-opacity="1" /><path clip-path="url(#clip710)" d="M303.677 12.096 L314.696 12.096 L341.513 62.6918 L341.513 12.096 L349.453 12.096 L349.453 72.576 L338.434 72.576 L311.617 21.9802 L311.617 72.576 L303.677 72.576 L303.677 12.096 Z" fill="#000000" fill-rule="nonzero" fill-opacity="1" /><path clip-path="url(#clip710)" d="M373.92 18.8205 L373.92 41.5461 L384.209 41.5461 Q389.921 41.5461 393.04 38.5889 Q396.16 35.6318 396.16 30.163 Q396.16 24.7348 393.04 21.7777 Q389.921 18.8205 384.209 18.8205 L373.92 18.8205 M365.737 12.096 L384.209 12.096 Q394.377 12.096 399.562 16.714 Q404.788 21.2916 404.788 30.163 Q404.788 39.1155 399.562 43.6931 Q394.377 48.2706 384.209 48.2706 L373.92 48.2706 L373.92 72.576 L365.737 72.576 L365.737 12.096 Z" fill="#000000" fill-rule="nonzero" fill-opacity="1" /><path clip-path="url(#clip710)" d="M417.346 62.2867 L425.893 62.2867 L425.893 72.576 L417.346 72.576 L417.346 62.2867 M417.346 29.6769 L425.893 29.6769 L425.893 39.9662 L417.346 39.9662 L417.346 29.6769 Z" fill="#000000" fill-rule="nonzero" fill-opacity="1" /><path clip-path="url(#clip710)" d="M470.089 12.096 L478.271 12.096 L478.271 72.576 L470.089 72.576 L470.089 12.096 Z" fill="#000000" fill-rule="nonzero" fill-opacity="1" /><path clip-path="url(#clip710)" d="M531.946 45.1919 L531.946 72.576 L524.492 72.576 L524.492 45.4349 Q524.492 38.994 521.981 35.7938 Q519.469 32.5936 514.446 32.5936 Q508.41 32.5936 504.926 36.4419 Q501.443 40.2903 501.443 46.9338 L501.443 72.576 L493.948 72.576 L493.948 27.2059 L501.443 27.2059 L501.443 34.2544 Q504.116 30.163 507.722 28.1376 Q511.367 26.1121 516.107 26.1121 Q523.925 26.1121 527.936 30.9732 Q531.946 35.7938 531.946 45.1919 Z" fill="#000000" fill-rule="nonzero" fill-opacity="1" /><path clip-path="url(#clip710)" d="M546.813 27.2059 L554.266 27.2059 L554.266 72.576 L546.813 72.576 L546.813 27.2059 M546.813 9.54393 L554.266 9.54393 L554.266 18.9825 L546.813 18.9825 L546.813 9.54393 Z" fill="#000000" fill-rule="nonzero" fill-opacity="1" /><path clip-path="url(#clip710)" d="M577.235 14.324 L577.235 27.2059 L592.588 27.2059 L592.588 32.9987 L577.235 32.9987 L577.235 57.6282 Q577.235 63.1779 578.734 64.7578 Q580.273 66.3376 584.932 66.3376 L592.588 66.3376 L592.588 72.576 L584.932 72.576 Q576.303 72.576 573.022 69.3758 Q569.741 66.1351 569.741 57.6282 L569.741 32.9987 L564.272 32.9987 L564.272 27.2059 L569.741 27.2059 L569.741 14.324 L577.235 14.324 Z" fill="#000000" fill-rule="nonzero" fill-opacity="1" /><path clip-path="url(#clip710)" d="M602.391 27.2059 L609.845 27.2059 L609.845 72.576 L602.391 72.576 L602.391 27.2059 M602.391 9.54393 L609.845 9.54393 L609.845 18.9825 L602.391 18.9825 L602.391 9.54393 Z" fill="#000000" fill-rule="nonzero" fill-opacity="1" /><path clip-path="url(#clip710)" d="M646.06 49.7694 Q637.026 49.7694 633.543 51.8354 Q630.059 53.9013 630.059 58.8839 Q630.059 62.8538 632.651 65.2034 Q635.284 67.5124 639.781 67.5124 Q645.979 67.5124 649.706 63.1374 Q653.473 58.7219 653.473 51.4303 L653.473 49.7694 L646.06 49.7694 M660.927 46.6907 L660.927 72.576 L653.473 72.576 L653.473 65.6895 Q650.921 69.8214 647.113 71.8063 Q643.305 73.7508 637.796 73.7508 Q630.828 73.7508 626.697 69.8619 Q622.605 65.9325 622.605 59.3701 Q622.605 51.7138 627.709 47.825 Q632.854 43.9361 643.022 43.9361 L653.473 43.9361 L653.473 43.2069 Q653.473 38.0623 650.07 35.2672 Q646.708 32.4315 640.591 32.4315 Q636.702 32.4315 633.016 33.3632 Q629.33 34.295 625.927 36.1584 L625.927 29.2718 Q630.018 27.692 633.867 26.9223 Q637.715 26.1121 641.361 26.1121 Q651.205 26.1121 656.066 31.2163 Q660.927 36.3204 660.927 46.6907 Z" fill="#000000" fill-rule="nonzero" fill-opacity="1" /><path clip-path="url(#clip710)" d="M676.28 9.54393 L683.733 9.54393 L683.733 72.576 L676.28 72.576 L676.28 9.54393 Z" fill="#000000" fill-rule="nonzero" fill-opacity="1" /><path clip-path="url(#clip710)" d="M743.606 9.62495 Q738.177 18.942 735.544 28.0566 Q732.911 37.1711 732.911 46.5287 Q732.911 55.8863 735.544 65.0818 Q738.218 74.2369 743.606 83.5134 L737.124 83.5134 Q731.048 73.9938 728.01 64.7983 Q725.012 55.6027 725.012 46.5287 Q725.012 37.4952 728.01 28.3401 Q731.007 19.1851 737.124 9.62495 L743.606 9.62495 Z" fill="#000000" fill-rule="nonzero" fill-opacity="1" /><path clip-path="url(#clip710)" d="M787.923 34.0924 L787.923 9.54393 L795.376 9.54393 L795.376 72.576 L787.923 72.576 L787.923 65.7705 Q785.573 69.8214 781.968 71.8063 Q778.403 73.7508 773.38 73.7508 Q765.156 73.7508 759.971 67.1883 Q754.827 60.6258 754.827 49.9314 Q754.827 39.2371 759.971 32.6746 Q765.156 26.1121 773.38 26.1121 Q778.403 26.1121 781.968 28.0971 Q785.573 30.0415 787.923 34.0924 M762.523 49.9314 Q762.523 58.1548 765.886 62.8538 Q769.288 67.5124 775.203 67.5124 Q781.117 67.5124 784.52 62.8538 Q787.923 58.1548 787.923 49.9314 Q787.923 41.7081 784.52 37.0496 Q781.117 32.3505 775.203 32.3505 Q769.288 32.3505 765.886 37.0496 Q762.523 41.7081 762.523 49.9314 Z" fill="#000000" fill-rule="nonzero" fill-opacity="1" /><path clip-path="url(#clip710)" d="M828.31 32.4315 Q822.315 32.4315 818.831 37.1306 Q815.347 41.7891 815.347 49.9314 Q815.347 58.0738 818.79 62.7728 Q822.274 67.4314 828.31 67.4314 Q834.265 67.4314 837.749 62.7323 Q841.232 58.0333 841.232 49.9314 Q841.232 41.8701 837.749 37.1711 Q834.265 32.4315 828.31 32.4315 M828.31 26.1121 Q838.032 26.1121 843.582 32.4315 Q849.132 38.7509 849.132 49.9314 Q849.132 61.0714 843.582 67.4314 Q838.032 73.7508 828.31 73.7508 Q818.547 73.7508 812.998 67.4314 Q807.488 61.0714 807.488 49.9314 Q807.488 38.7509 812.998 32.4315 Q818.547 26.1121 828.31 26.1121 Z" fill="#000000" fill-rule="nonzero" fill-opacity="1" /><path clip-path="url(#clip710)" d="M868.86 14.324 L868.86 27.2059 L884.213 27.2059 L884.213 32.9987 L868.86 32.9987 L868.86 57.6282 Q868.86 63.1779 870.358 64.7578 Q871.898 66.3376 876.556 66.3376 L884.213 66.3376 L884.213 72.576 L876.556 72.576 Q867.928 72.576 864.647 69.3758 Q861.365 66.1351 861.365 57.6282 L861.365 32.9987 L855.897 32.9987 L855.897 27.2059 L861.365 27.2059 L861.365 14.324 L868.86 14.324 Z" fill="#000000" fill-rule="nonzero" fill-opacity="1" /><path clip-path="url(#clip710)" d="M901.388 14.324 L901.388 27.2059 L916.741 27.2059 L916.741 32.9987 L901.388 32.9987 L901.388 57.6282 Q901.388 63.1779 902.887 64.7578 Q904.427 66.3376 909.085 66.3376 L916.741 66.3376 L916.741 72.576 L909.085 72.576 Q900.457 72.576 897.175 69.3758 Q893.894 66.1351 893.894 57.6282 L893.894 32.9987 L888.425 32.9987 L888.425 27.2059 L893.894 27.2059 L893.894 14.324 L901.388 14.324 Z" fill="#000000" fill-rule="nonzero" fill-opacity="1" /><path clip-path="url(#clip710)" d="M965.352 48.0275 L965.352 51.6733 L931.082 51.6733 Q931.568 59.3701 935.7 63.421 Q939.872 67.4314 947.285 67.4314 Q951.579 67.4314 955.589 66.3781 Q959.64 65.3249 963.61 63.2184 L963.61 70.267 Q959.6 71.9684 955.387 72.8596 Q951.174 73.7508 946.84 73.7508 Q935.983 73.7508 929.623 67.4314 Q923.304 61.1119 923.304 50.3365 Q923.304 39.1965 929.299 32.6746 Q935.335 26.1121 945.543 26.1121 Q954.698 26.1121 960.005 32.0264 Q965.352 37.9003 965.352 48.0275 M957.898 45.84 Q957.817 39.7232 954.455 36.0774 Q951.133 32.4315 945.624 32.4315 Q939.386 32.4315 935.619 35.9558 Q931.892 39.4801 931.325 45.8805 L957.898 45.84 Z" fill="#000000" fill-rule="nonzero" fill-opacity="1" /><path clip-path="url(#clip710)" d="M1007.44 34.0924 L1007.44 9.54393 L1014.89 9.54393 L1014.89 72.576 L1007.44 72.576 L1007.44 65.7705 Q1005.09 69.8214 1001.49 71.8063 Q997.921 73.7508 992.898 73.7508 Q984.675 73.7508 979.49 67.1883 Q974.345 60.6258 974.345 49.9314 Q974.345 39.2371 979.49 32.6746 Q984.675 26.1121 992.898 26.1121 Q997.921 26.1121 1001.49 28.0971 Q1005.09 30.0415 1007.44 34.0924 M982.042 49.9314 Q982.042 58.1548 985.404 62.8538 Q988.807 67.5124 994.721 67.5124 Q1000.64 67.5124 1004.04 62.8538 Q1007.44 58.1548 1007.44 49.9314 Q1007.44 41.7081 1004.04 37.0496 Q1000.64 32.3505 994.721 32.3505 Q988.807 32.3505 985.404 37.0496 Q982.042 41.7081 982.042 49.9314 Z" fill="#000000" fill-rule="nonzero" fill-opacity="1" /><path clip-path="url(#clip710)" d="M1029.07 9.62495 L1035.55 9.62495 Q1041.63 19.1851 1044.63 28.3401 Q1047.67 37.4952 1047.67 46.5287 Q1047.67 55.6027 1044.63 64.7983 Q1041.63 73.9938 1035.55 83.5134 L1029.07 83.5134 Q1034.46 74.2369 1037.09 65.0818 Q1039.77 55.8863 1039.77 46.5287 Q1039.77 37.1711 1037.09 28.0566 Q1034.46 18.942 1029.07 9.62495 Z" fill="#000000" fill-rule="nonzero" fill-opacity="1" /><path clip-path="url(#clip710)" d="M1083.64 27.2059 L1091.54 27.2059 L1105.72 65.2844 L1119.89 27.2059 L1127.79 27.2059 L1110.78 72.576 L1100.65 72.576 L1083.64 27.2059 Z" fill="#000000" fill-rule="nonzero" fill-opacity="1" /><path clip-path="url(#clip710)" d="M1167.01 28.5427 L1167.01 35.5912 Q1163.85 33.9709 1160.44 33.1607 Q1157.04 32.3505 1153.4 32.3505 Q1147.85 32.3505 1145.05 34.0519 Q1142.3 35.7533 1142.3 39.156 Q1142.3 41.7486 1144.28 43.2475 Q1146.27 44.7058 1152.26 46.0426 L1154.81 46.6097 Q1162.75 48.3111 1166.07 51.4303 Q1169.44 54.509 1169.44 60.0587 Q1169.44 66.3781 1164.41 70.0644 Q1159.43 73.7508 1150.68 73.7508 Q1147.04 73.7508 1143.07 73.0216 Q1139.14 72.3329 1134.76 70.9151 L1134.76 63.2184 Q1138.89 65.3654 1142.9 66.4591 Q1146.91 67.5124 1150.84 67.5124 Q1156.11 67.5124 1158.94 65.73 Q1161.78 63.9071 1161.78 60.6258 Q1161.78 57.5877 1159.71 55.9673 Q1157.69 54.3469 1150.76 52.8481 L1148.17 52.2405 Q1141.24 50.7821 1138.16 47.7845 Q1135.09 44.7463 1135.09 39.4801 Q1135.09 33.0797 1139.62 29.5959 Q1144.16 26.1121 1152.5 26.1121 Q1156.64 26.1121 1160.28 26.7198 Q1163.93 27.3274 1167.01 28.5427 Z" fill="#000000" fill-rule="nonzero" fill-opacity="1" /><path clip-path="url(#clip710)" d="M1182.36 62.2867 L1190.91 62.2867 L1190.91 72.576 L1182.36 72.576 L1182.36 62.2867 Z" fill="#000000" fill-rule="nonzero" fill-opacity="1" /><path clip-path="url(#clip710)" d="M1254.59 20.1573 L1243.49 50.2555 L1265.73 50.2555 L1254.59 20.1573 M1249.97 12.096 L1259.25 12.096 L1282.29 72.576 L1273.79 72.576 L1268.28 57.061 L1241.02 57.061 L1235.51 72.576 L1226.88 72.576 L1249.97 12.096 Z" fill="#000000" fill-rule="nonzero" fill-opacity="1" /><path clip-path="url(#clip710)" d="M1319.2 34.0924 L1319.2 9.54393 L1326.65 9.54393 L1326.65 72.576 L1319.2 72.576 L1319.2 65.7705 Q1316.85 69.8214 1313.24 71.8063 Q1309.68 73.7508 1304.66 73.7508 Q1296.43 73.7508 1291.25 67.1883 Q1286.1 60.6258 1286.1 49.9314 Q1286.1 39.2371 1291.25 32.6746 Q1296.43 26.1121 1304.66 26.1121 Q1309.68 26.1121 1313.24 28.0971 Q1316.85 30.0415 1319.2 34.0924 M1293.8 49.9314 Q1293.8 58.1548 1297.16 62.8538 Q1300.56 67.5124 1306.48 67.5124 Q1312.39 67.5124 1315.8 62.8538 Q1319.2 58.1548 1319.2 49.9314 Q1319.2 41.7081 1315.8 37.0496 Q1312.39 32.3505 1306.48 32.3505 Q1300.56 32.3505 1297.16 37.0496 Q1293.8 41.7081 1293.8 49.9314 Z" fill="#000000" fill-rule="nonzero" fill-opacity="1" /><path clip-path="url(#clip710)" d="M1362.62 49.7694 Q1353.59 49.7694 1350.11 51.8354 Q1346.62 53.9013 1346.62 58.8839 Q1346.62 62.8538 1349.22 65.2034 Q1351.85 67.5124 1356.35 67.5124 Q1362.54 67.5124 1366.27 63.1374 Q1370.04 58.7219 1370.04 51.4303 L1370.04 49.7694 L1362.62 49.7694 M1377.49 46.6907 L1377.49 72.576 L1370.04 72.576 L1370.04 65.6895 Q1367.49 69.8214 1363.68 71.8063 Q1359.87 73.7508 1354.36 73.7508 Q1347.39 73.7508 1343.26 69.8619 Q1339.17 65.9325 1339.17 59.3701 Q1339.17 51.7138 1344.27 47.825 Q1349.42 43.9361 1359.59 43.9361 L1370.04 43.9361 L1370.04 43.2069 Q1370.04 38.0623 1366.63 35.2672 Q1363.27 32.4315 1357.16 32.4315 Q1353.27 32.4315 1349.58 33.3632 Q1345.89 34.295 1342.49 36.1584 L1342.49 29.2718 Q1346.58 27.692 1350.43 26.9223 Q1354.28 26.1121 1357.93 26.1121 Q1367.77 26.1121 1372.63 31.2163 Q1377.49 36.3204 1377.49 46.6907 Z" fill="#000000" fill-rule="nonzero" fill-opacity="1" /><path clip-path="url(#clip710)" d="M1400.05 65.7705 L1400.05 89.8329 L1392.56 89.8329 L1392.56 27.2059 L1400.05 27.2059 L1400.05 34.0924 Q1402.4 30.0415 1405.97 28.0971 Q1409.57 26.1121 1414.56 26.1121 Q1422.82 26.1121 1427.97 32.6746 Q1433.15 39.2371 1433.15 49.9314 Q1433.15 60.6258 1427.97 67.1883 Q1422.82 73.7508 1414.56 73.7508 Q1409.57 73.7508 1405.97 71.8063 Q1402.4 69.8214 1400.05 65.7705 M1425.41 49.9314 Q1425.41 41.7081 1422.01 37.0496 Q1418.65 32.3505 1412.73 32.3505 Q1406.82 32.3505 1403.42 37.0496 Q1400.05 41.7081 1400.05 49.9314 Q1400.05 58.1548 1403.42 62.8538 Q1406.82 67.5124 1412.73 67.5124 Q1418.65 67.5124 1422.01 62.8538 Q1425.41 58.1548 1425.41 49.9314 Z" fill="#000000" fill-rule="nonzero" fill-opacity="1" /><path clip-path="url(#clip710)" d="M1452.88 14.324 L1452.88 27.2059 L1468.23 27.2059 L1468.23 32.9987 L1452.88 32.9987 L1452.88 57.6282 Q1452.88 63.1779 1454.38 64.7578 Q1455.92 66.3376 1460.58 66.3376 L1468.23 66.3376 L1468.23 72.576 L1460.58 72.576 Q1451.95 72.576 1448.67 69.3758 Q1445.38 66.1351 1445.38 57.6282 L1445.38 32.9987 L1439.92 32.9987 L1439.92 27.2059 L1445.38 27.2059 L1445.38 14.324 L1452.88 14.324 Z" fill="#000000" fill-rule="nonzero" fill-opacity="1" /><path clip-path="url(#clip710)" d="M1516.84 48.0275 L1516.84 51.6733 L1482.57 51.6733 Q1483.06 59.3701 1487.19 63.421 Q1491.36 67.4314 1498.78 67.4314 Q1503.07 67.4314 1507.08 66.3781 Q1511.13 65.3249 1515.1 63.2184 L1515.1 70.267 Q1511.09 71.9684 1506.88 72.8596 Q1502.66 73.7508 1498.33 73.7508 Q1487.47 73.7508 1481.11 67.4314 Q1474.79 61.1119 1474.79 50.3365 Q1474.79 39.1965 1480.79 32.6746 Q1486.83 26.1121 1497.03 26.1121 Q1506.19 26.1121 1511.5 32.0264 Q1516.84 37.9003 1516.84 48.0275 M1509.39 45.84 Q1509.31 39.7232 1505.95 36.0774 Q1502.62 32.4315 1497.11 32.4315 Q1490.88 32.4315 1487.11 35.9558 Q1483.38 39.4801 1482.81 45.8805 L1509.39 45.84 Z" fill="#000000" fill-rule="nonzero" fill-opacity="1" /><path clip-path="url(#clip710)" d="M1558.93 34.0924 L1558.93 9.54393 L1566.38 9.54393 L1566.38 72.576 L1558.93 72.576 L1558.93 65.7705 Q1556.58 69.8214 1552.98 71.8063 Q1549.41 73.7508 1544.39 73.7508 Q1536.17 73.7508 1530.98 67.1883 Q1525.84 60.6258 1525.84 49.9314 Q1525.84 39.2371 1530.98 32.6746 Q1536.17 26.1121 1544.39 26.1121 Q1549.41 26.1121 1552.98 28.0971 Q1556.58 30.0415 1558.93 34.0924 M1533.53 49.9314 Q1533.53 58.1548 1536.89 62.8538 Q1540.3 67.5124 1546.21 67.5124 Q1552.13 67.5124 1555.53 62.8538 Q1558.93 58.1548 1558.93 49.9314 Q1558.93 41.7081 1555.53 37.0496 Q1552.13 32.3505 1546.21 32.3505 Q1540.3 32.3505 1536.89 37.0496 Q1533.53 41.7081 1533.53 49.9314 Z" fill="#000000" fill-rule="nonzero" fill-opacity="1" /><path clip-path="url(#clip710)" d="M1626.01 9.62495 Q1620.59 18.942 1617.95 28.0566 Q1615.32 37.1711 1615.32 46.5287 Q1615.32 55.8863 1617.95 65.0818 Q1620.63 74.2369 1626.01 83.5134 L1619.53 83.5134 Q1613.46 73.9938 1610.42 64.7983 Q1607.42 55.6027 1607.42 46.5287 Q1607.42 37.4952 1610.42 28.3401 Q1613.42 19.1851 1619.53 9.62495 L1626.01 9.62495 Z" fill="#000000" fill-rule="nonzero" fill-opacity="1" /><path clip-path="url(#clip710)" d="M1669.4 28.5427 L1669.4 35.5912 Q1666.24 33.9709 1662.84 33.1607 Q1659.43 32.3505 1655.79 32.3505 Q1650.24 32.3505 1647.44 34.0519 Q1644.69 35.7533 1644.69 39.156 Q1644.69 41.7486 1646.67 43.2475 Q1648.66 44.7058 1654.65 46.0426 L1657.21 46.6097 Q1665.15 48.3111 1668.47 51.4303 Q1671.83 54.509 1671.83 60.0587 Q1671.83 66.3781 1666.81 70.0644 Q1661.82 73.7508 1653.07 73.7508 Q1649.43 73.7508 1645.46 73.0216 Q1641.53 72.3329 1637.15 70.9151 L1637.15 63.2184 Q1641.29 65.3654 1645.3 66.4591 Q1649.31 67.5124 1653.24 67.5124 Q1658.5 67.5124 1661.34 65.73 Q1664.17 63.9071 1664.17 60.6258 Q1664.17 57.5877 1662.11 55.9673 Q1660.08 54.3469 1653.16 52.8481 L1650.56 52.2405 Q1643.64 50.7821 1640.56 47.7845 Q1637.48 44.7463 1637.48 39.4801 Q1637.48 33.0797 1642.02 29.5959 Q1646.55 26.1121 1654.9 26.1121 Q1659.03 26.1121 1662.67 26.7198 Q1666.32 27.3274 1669.4 28.5427 Z" fill="#000000" fill-rule="nonzero" fill-opacity="1" /><path clip-path="url(#clip710)" d="M1701.28 32.4315 Q1695.28 32.4315 1691.8 37.1306 Q1688.32 41.7891 1688.32 49.9314 Q1688.32 58.0738 1691.76 62.7728 Q1695.24 67.4314 1701.28 67.4314 Q1707.23 67.4314 1710.72 62.7323 Q1714.2 58.0333 1714.2 49.9314 Q1714.2 41.8701 1710.72 37.1711 Q1707.23 32.4315 1701.28 32.4315 M1701.28 26.1121 Q1711 26.1121 1716.55 32.4315 Q1722.1 38.7509 1722.1 49.9314 Q1722.1 61.0714 1716.55 67.4314 Q1711 73.7508 1701.28 73.7508 Q1691.52 73.7508 1685.97 67.4314 Q1680.46 61.0714 1680.46 49.9314 Q1680.46 38.7509 1685.97 32.4315 Q1691.52 26.1121 1701.28 26.1121 Z" fill="#000000" fill-rule="nonzero" fill-opacity="1" /><path clip-path="url(#clip710)" d="M1734.46 9.54393 L1741.91 9.54393 L1741.91 72.576 L1734.46 72.576 L1734.46 9.54393 Z" fill="#000000" fill-rule="nonzero" fill-opacity="1" /><path clip-path="url(#clip710)" d="M1757.51 27.2059 L1764.96 27.2059 L1764.96 72.576 L1757.51 72.576 L1757.51 27.2059 M1757.51 9.54393 L1764.96 9.54393 L1764.96 18.9825 L1757.51 18.9825 L1757.51 9.54393 Z" fill="#000000" fill-rule="nonzero" fill-opacity="1" /><path clip-path="url(#clip710)" d="M1810.41 34.0924 L1810.41 9.54393 L1817.86 9.54393 L1817.86 72.576 L1810.41 72.576 L1810.41 65.7705 Q1808.06 69.8214 1804.46 71.8063 Q1800.89 73.7508 1795.87 73.7508 Q1787.65 73.7508 1782.46 67.1883 Q1777.32 60.6258 1777.32 49.9314 Q1777.32 39.2371 1782.46 32.6746 Q1787.65 26.1121 1795.87 26.1121 Q1800.89 26.1121 1804.46 28.0971 Q1808.06 30.0415 1810.41 34.0924 M1785.01 49.9314 Q1785.01 58.1548 1788.37 62.8538 Q1791.78 67.5124 1797.69 67.5124 Q1803.61 67.5124 1807.01 62.8538 Q1810.41 58.1548 1810.41 49.9314 Q1810.41 41.7081 1807.01 37.0496 Q1803.61 32.3505 1797.69 32.3505 Q1791.78 32.3505 1788.37 37.0496 Q1785.01 41.7081 1785.01 49.9314 Z" fill="#000000" fill-rule="nonzero" fill-opacity="1" /><path clip-path="url(#clip710)" d="M1832.04 9.62495 L1838.52 9.62495 Q1844.6 19.1851 1847.6 28.3401 Q1850.64 37.4952 1850.64 46.5287 Q1850.64 55.6027 1847.6 64.7983 Q1844.6 73.9938 1838.52 83.5134 L1832.04 83.5134 Q1837.43 74.2369 1840.06 65.0818 Q1842.74 55.8863 1842.74 46.5287 Q1842.74 37.1711 1840.06 28.0566 Q1837.43 18.942 1832.04 9.62495 Z" fill="#000000" fill-rule="nonzero" fill-opacity="1" /><path clip-path="url(#clip710)" d="M1900.46 18.8205 L1900.46 41.5461 L1910.75 41.5461 Q1916.46 41.5461 1919.58 38.5889 Q1922.7 35.6318 1922.7 30.163 Q1922.7 24.7348 1919.58 21.7777 Q1916.46 18.8205 1910.75 18.8205 L1900.46 18.8205 M1892.28 12.096 L1910.75 12.096 Q1920.92 12.096 1926.11 16.714 Q1931.33 21.2916 1931.33 30.163 Q1931.33 39.1155 1926.11 43.6931 Q1920.92 48.2706 1910.75 48.2706 L1900.46 48.2706 L1900.46 72.576 L1892.28 72.576 L1892.28 12.096 Z" fill="#000000" fill-rule="nonzero" fill-opacity="1" /><path clip-path="url(#clip710)" d="M1977.84 48.0275 L1977.84 51.6733 L1943.56 51.6733 Q1944.05 59.3701 1948.18 63.421 Q1952.35 67.4314 1959.77 67.4314 Q1964.06 67.4314 1968.07 66.3781 Q1972.12 65.3249 1976.09 63.2184 L1976.09 70.267 Q1972.08 71.9684 1967.87 72.8596 Q1963.66 73.7508 1959.32 73.7508 Q1948.47 73.7508 1942.11 67.4314 Q1935.79 61.1119 1935.79 50.3365 Q1935.79 39.1965 1941.78 32.6746 Q1947.82 26.1121 1958.03 26.1121 Q1967.18 26.1121 1972.49 32.0264 Q1977.84 37.9003 1977.84 48.0275 M1970.38 45.84 Q1970.3 39.7232 1966.94 36.0774 Q1963.62 32.4315 1958.11 32.4315 Q1951.87 32.4315 1948.1 35.9558 Q1944.37 39.4801 1943.81 45.8805 L1970.38 45.84 Z" fill="#000000" fill-rule="nonzero" fill-opacity="1" /><path clip-path="url(#clip710)" d="M2010.69 49.7694 Q2001.65 49.7694 1998.17 51.8354 Q1994.69 53.9013 1994.69 58.8839 Q1994.69 62.8538 1997.28 65.2034 Q1999.91 67.5124 2004.41 67.5124 Q2010.61 67.5124 2014.33 63.1374 Q2018.1 58.7219 2018.1 51.4303 L2018.1 49.7694 L2010.69 49.7694 M2025.55 46.6907 L2025.55 72.576 L2018.1 72.576 L2018.1 65.6895 Q2015.55 69.8214 2011.74 71.8063 Q2007.93 73.7508 2002.42 73.7508 Q1995.46 73.7508 1991.32 69.8619 Q1987.23 65.9325 1987.23 59.3701 Q1987.23 51.7138 1992.34 47.825 Q1997.48 43.9361 2007.65 43.9361 L2018.1 43.9361 L2018.1 43.2069 Q2018.1 38.0623 2014.7 35.2672 Q2011.34 32.4315 2005.22 32.4315 Q2001.33 32.4315 1997.64 33.3632 Q1993.96 34.295 1990.55 36.1584 L1990.55 29.2718 Q1994.65 27.692 1998.49 26.9223 Q2002.34 26.1121 2005.99 26.1121 Q2015.83 26.1121 2020.69 31.2163 Q2025.55 36.3204 2025.55 46.6907 Z" fill="#000000" fill-rule="nonzero" fill-opacity="1" /><path clip-path="url(#clip710)" d="M2040.62 9.54393 L2048.12 9.54393 L2048.12 46.7717 L2070.36 27.2059 L2079.88 27.2059 L2055.82 48.4326 L2080.89 72.576 L2071.17 72.576 L2048.12 50.4176 L2048.12 72.576 L2040.62 72.576 L2040.62 9.54393 Z" fill="#000000" fill-rule="nonzero" fill-opacity="1" /><path clip-path="url(#clip710)" d="M2156.89 63.9476 L2156.89 47.7034 L2143.52 47.7034 L2143.52 40.9789 L2164.99 40.9789 L2164.99 66.9452 Q2160.25 70.3075 2154.54 72.0494 Q2148.82 73.7508 2142.34 73.7508 Q2128.16 73.7508 2120.14 65.4869 Q2112.16 57.1826 2112.16 42.3968 Q2112.16 27.5705 2120.14 19.3066 Q2128.16 11.0023 2142.34 11.0023 Q2148.26 11.0023 2153.56 12.4606 Q2158.91 13.9189 2163.41 16.7545 L2163.41 25.464 Q2158.87 21.6156 2153.77 19.6712 Q2148.66 17.7268 2143.03 17.7268 Q2131.93 17.7268 2126.34 23.9246 Q2120.79 30.1225 2120.79 42.3968 Q2120.79 54.6305 2126.34 60.8284 Q2131.93 67.0263 2143.03 67.0263 Q2147.37 67.0263 2150.77 66.2971 Q2154.17 65.5274 2156.89 63.9476 Z" fill="#000000" fill-rule="nonzero" fill-opacity="1" /><path clip-path="url(#clip710)" d="M2200.23 49.7694 Q2191.2 49.7694 2187.71 51.8354 Q2184.23 53.9013 2184.23 58.8839 Q2184.23 62.8538 2186.82 65.2034 Q2189.45 67.5124 2193.95 67.5124 Q2200.15 67.5124 2203.88 63.1374 Q2207.64 58.7219 2207.64 51.4303 L2207.64 49.7694 L2200.23 49.7694 M2215.1 46.6907 L2215.1 72.576 L2207.64 72.576 L2207.64 65.6895 Q2205.09 69.8214 2201.28 71.8063 Q2197.48 73.7508 2191.97 73.7508 Q2185 73.7508 2180.87 69.8619 Q2176.78 65.9325 2176.78 59.3701 Q2176.78 51.7138 2181.88 47.825 Q2187.02 43.9361 2197.19 43.9361 L2207.64 43.9361 L2207.64 43.2069 Q2207.64 38.0623 2204.24 35.2672 Q2200.88 32.4315 2194.76 32.4315 Q2190.87 32.4315 2187.19 33.3632 Q2183.5 34.295 2180.1 36.1584 L2180.1 29.2718 Q2184.19 27.692 2188.04 26.9223 Q2191.88 26.1121 2195.53 26.1121 Q2205.37 26.1121 2210.24 31.2163 Q2215.1 36.3204 2215.1 46.6907 Z" fill="#000000" fill-rule="nonzero" fill-opacity="1" /><path clip-path="url(#clip710)" d="M2230.45 27.2059 L2237.9 27.2059 L2237.9 72.576 L2230.45 72.576 L2230.45 27.2059 M2230.45 9.54393 L2237.9 9.54393 L2237.9 18.9825 L2230.45 18.9825 L2230.45 9.54393 Z" fill="#000000" fill-rule="nonzero" fill-opacity="1" /><path clip-path="url(#clip710)" d="M2291.21 45.1919 L2291.21 72.576 L2283.76 72.576 L2283.76 45.4349 Q2283.76 38.994 2281.25 35.7938 Q2278.74 32.5936 2273.71 32.5936 Q2267.68 32.5936 2264.19 36.4419 Q2260.71 40.2903 2260.71 46.9338 L2260.71 72.576 L2253.22 72.576 L2253.22 27.2059 L2260.71 27.2059 L2260.71 34.2544 Q2263.38 30.163 2266.99 28.1376 Q2270.63 26.1121 2275.37 26.1121 Q2283.19 26.1121 2287.2 30.9732 Q2291.21 35.7938 2291.21 45.1919 Z" fill="#000000" fill-rule="nonzero" fill-opacity="1" /><polyline clip-path="url(#clip712)" style="stroke:#009af9; stroke-linecap:round; stroke-linejoin:round; stroke-width:4; stroke-opacity:1; fill:none" stroke-dasharray="2, 4" points="301.869,1362.73 330.314,1276.47 358.759,1187.08 387.204,1099.09 415.649,1014.5 444.094,934.28 472.539,858.933 500.984,788.662 529.429,723.485 557.875,663.301 586.32,607.932 614.765,557.155 643.21,510.72 671.655,468.368 700.1,429.837 728.545,394.873 756.99,363.229 785.435,334.671 813.88,308.979 842.325,285.948 870.77,265.386 899.215,247.117 927.66,230.98 956.105,216.826 984.55,204.52 1012.99,193.94 1041.44,184.975 1069.89,177.527 1098.33,171.505 1126.78,166.833 1155.22,163.44 1183.67,161.264 1212.11,160.256 1240.56,160.37 1269,161.567 1297.45,163.825 1325.89,167.112 1354.34,171.42 1382.78,176.733 1411.23,183.056 1439.67,190.386 1468.12,198.73 1496.56,208.103 1525.01,218.539 1553.45,230.054 1581.9,242.704 1610.34,256.509 1638.79,271.486 1667.23,287.748 1695.68,305.378 1724.12,324.338 1752.57,344.841 1781.01,366.911 1809.46,390.64 1837.9,416.132 1866.35,443.535 1894.79,473.138 1923.24,505.003 1951.68,538.987 1980.13,575.816 2008.57,615.512 2037.02,658.363 2065.46,704.651 2093.91,754.983 2122.35,809.316 2150.8,868.9 2179.24,932.91 2207.69,1005.17 2236.13,1083.98 2264.58,1169.85 2293.02,1271.42 "/>
<polyline clip-path="url(#clip712)" style="stroke:#e26f46; stroke-linecap:round; stroke-linejoin:round; stroke-width:4; stroke-opacity:1; fill:none" points="301.869,1386.4 330.314,1323.66 358.759,1254.7 387.204,1184.29 415.649,1115.25 444.094,1049.22 472.539,987.178 500.984,929.685 529.429,877.036 557.875,829.362 586.32,786.687 614.765,748.969 643.21,716.124 671.655,688.044 700.1,664.606 728.545,645.679 756.99,631.124 785.435,620.794 813.88,614.531 842.325,612.165 870.77,613.504 899.215,618.334 927.66,626.406 956.105,637.437 984.55,651.101 1012.99,667.026 1041.44,684.797 1069.89,703.952 1098.33,723.985 1126.78,744.349 1155.22,764.457 1183.67,783.683 1212.11,801.371 1240.56,816.834 1269,829.398 1297.45,838.438 1325.89,843.326 1354.34,843.284 1382.78,837.193 1411.23,823.439 1439.67,800.967 1468.12,769.467 1496.56,729.337 1525.01,682.559 1553.45,632.59 1581.9,583.98 1610.34,540.48 1638.79,504.406 1667.23,476.702 1695.68,457.461 1724.12,446.133 1752.57,442.041 1781.01,444.367 1809.46,452.443 1837.9,465.432 1866.35,482.896 1894.79,504.656 1923.24,530.08 1951.68,559.253 1980.13,592.025 2008.57,628.478 2037.02,668.77 2065.46,713.03 2093.91,761.731 2122.35,814.752 2150.8,872.735 2179.24,936.476 2207.69,1008.11 2236.13,1086.44 2264.58,1171.96 2293.02,1273.29 "/>
<path clip-path="url(#clip710)" d="M2018.91 322.316 L2282.4 322.316 L2282.4 166.796 L2018.91 166.796  Z" fill="#ffffff" fill-rule="evenodd" fill-opacity="1"/>
<polyline clip-path="url(#clip710)" style="stroke:#000000; stroke-linecap:round; stroke-linejoin:round; stroke-width:4; stroke-opacity:1; fill:none" points="2018.91,322.316 2282.4,322.316 2282.4,166.796 2018.91,166.796 2018.91,322.316 "/>
<polyline clip-path="url(#clip710)" style="stroke:#009af9; stroke-linecap:round; stroke-linejoin:round; stroke-width:4; stroke-opacity:1; fill:none" stroke-dasharray="2, 4" points="2042.36,218.636 2183.07,218.636 "/>
<path clip-path="url(#clip710)" d="M2220.36 238.323 Q2218.56 242.953 2216.84 244.365 Q2215.13 245.777 2212.26 245.777 L2208.86 245.777 L2208.86 242.212 L2211.36 242.212 Q2213.12 242.212 2214.09 241.379 Q2215.06 240.545 2216.24 237.443 L2217.01 235.499 L2206.52 209.99 L2211.03 209.99 L2219.14 230.268 L2227.24 209.99 L2231.75 209.99 L2220.36 238.323 Z" fill="#000000" fill-rule="nonzero" fill-opacity="1" /><path clip-path="url(#clip710)" d="M2239.04 231.981 L2246.68 231.981 L2246.68 205.615 L2238.37 207.282 L2238.37 203.022 L2246.64 201.356 L2251.31 201.356 L2251.31 231.981 L2258.95 231.981 L2258.95 235.916 L2239.04 235.916 L2239.04 231.981 Z" fill="#000000" fill-rule="nonzero" fill-opacity="1" /><polyline clip-path="url(#clip710)" style="stroke:#e26f46; stroke-linecap:round; stroke-linejoin:round; stroke-width:4; stroke-opacity:1; fill:none" points="2042.36,270.476 2183.07,270.476 "/>
<path clip-path="url(#clip710)" d="M2220.36 290.163 Q2218.56 294.793 2216.84 296.205 Q2215.13 297.617 2212.26 297.617 L2208.86 297.617 L2208.86 294.052 L2211.36 294.052 Q2213.12 294.052 2214.09 293.219 Q2215.06 292.385 2216.24 289.283 L2217.01 287.339 L2206.52 261.83 L2211.03 261.83 L2219.14 282.108 L2227.24 261.83 L2231.75 261.83 L2220.36 290.163 Z" fill="#000000" fill-rule="nonzero" fill-opacity="1" /><path clip-path="url(#clip710)" d="M2242.26 283.821 L2258.58 283.821 L2258.58 287.756 L2236.64 287.756 L2236.64 283.821 Q2239.3 281.066 2243.88 276.436 Q2248.49 271.784 2249.67 270.441 Q2251.91 267.918 2252.79 266.182 Q2253.7 264.423 2253.7 262.733 Q2253.7 259.978 2251.75 258.242 Q2249.83 256.506 2246.73 256.506 Q2244.53 256.506 2242.08 257.27 Q2239.65 258.034 2236.87 259.585 L2236.87 254.862 Q2239.69 253.728 2242.15 253.149 Q2244.6 252.571 2246.64 252.571 Q2252.01 252.571 2255.2 255.256 Q2258.39 257.941 2258.39 262.432 Q2258.39 264.561 2257.58 266.483 Q2256.8 268.381 2254.69 270.973 Q2254.11 271.645 2251.01 274.862 Q2247.91 278.057 2242.26 283.821 Z" fill="#000000" fill-rule="nonzero" fill-opacity="1" /></svg>
