<?xml version="1.0" encoding="utf-8"?>
<svg xmlns="http://www.w3.org/2000/svg" xmlns:xlink="http://www.w3.org/1999/xlink" width="600" height="400" viewBox="0 0 2400 1600">
<defs>
  <clipPath id="clip180">
    <rect x="0" y="0" width="2400" height="1600"/>
  </clipPath>
</defs>
<path clip-path="url(#clip180)" d="M0 1600 L2400 1600 L2400 0 L0 0  Z" fill="#ffffff" fill-rule="evenodd" fill-opacity="1"/>
<defs>
  <clipPath id="clip181">
    <rect x="480" y="0" width="1681" height="1600"/>
  </clipPath>
</defs>
<path clip-path="url(#clip180)" d="M112.177 1486.45 L2352.76 1486.45 L2352.76 123.472 L112.177 123.472  Z" fill="#ffffff" fill-rule="evenodd" fill-opacity="1"/>
<defs>
  <clipPath id="clip182">
    <rect x="112" y="123" width="2242" height="1364"/>
  </clipPath>
</defs>
<polyline clip-path="url(#clip182)" style="stroke:#000000; stroke-linecap:round; stroke-linejoin:round; stroke-width:2; stroke-opacity:0.1; fill:none" points="145.393,1486.45 145.393,123.472 "/>
<polyline clip-path="url(#clip182)" style="stroke:#000000; stroke-linecap:round; stroke-linejoin:round; stroke-width:2; stroke-opacity:0.1; fill:none" points="749.323,1486.45 749.323,123.472 "/>
<polyline clip-path="url(#clip182)" style="stroke:#000000; stroke-linecap:round; stroke-linejoin:round; stroke-width:2; stroke-opacity:0.1; fill:none" points="1353.25,1486.45 1353.25,123.472 "/>
<polyline clip-path="url(#clip182)" style="stroke:#000000; stroke-linecap:round; stroke-linejoin:round; stroke-width:2; stroke-opacity:0.1; fill:none" points="1957.18,1486.45 1957.18,123.472 "/>
<polyline clip-path="url(#clip182)" style="stroke:#000000; stroke-linecap:round; stroke-linejoin:round; stroke-width:2; stroke-opacity:0.1; fill:none" points="112.177,1447.88 2352.76,1447.88 "/>
<polyline clip-path="url(#clip182)" style="stroke:#000000; stroke-linecap:round; stroke-linejoin:round; stroke-width:2; stroke-opacity:0.1; fill:none" points="112.177,1146.35 2352.76,1146.35 "/>
<polyline clip-path="url(#clip182)" style="stroke:#000000; stroke-linecap:round; stroke-linejoin:round; stroke-width:2; stroke-opacity:0.1; fill:none" points="112.177,844.81 2352.76,844.81 "/>
<polyline clip-path="url(#clip182)" style="stroke:#000000; stroke-linecap:round; stroke-linejoin:round; stroke-width:2; stroke-opacity:0.1; fill:none" points="112.177,543.274 2352.76,543.274 "/>
<polyline clip-path="url(#clip182)" style="stroke:#000000; stroke-linecap:round; stroke-linejoin:round; stroke-width:2; stroke-opacity:0.1; fill:none" points="112.177,241.738 2352.76,241.738 "/>
<polyline clip-path="url(#clip180)" style="stroke:#000000; stroke-linecap:round; stroke-linejoin:round; stroke-width:4; stroke-opacity:1; fill:none" points="112.177,1486.45 2352.76,1486.45 "/>
<polyline clip-path="url(#clip180)" style="stroke:#000000; stroke-linecap:round; stroke-linejoin:round; stroke-width:4; stroke-opacity:1; fill:none" points="145.393,1486.45 145.393,1467.55 "/>
<polyline clip-path="url(#clip180)" style="stroke:#000000; stroke-linecap:round; stroke-linejoin:round; stroke-width:4; stroke-opacity:1; fill:none" points="749.323,1486.45 749.323,1467.55 "/>
<polyline clip-path="url(#clip180)" style="stroke:#000000; stroke-linecap:round; stroke-linejoin:round; stroke-width:4; stroke-opacity:1; fill:none" points="1353.25,1486.45 1353.25,1467.55 "/>
<polyline clip-path="url(#clip180)" style="stroke:#000000; stroke-linecap:round; stroke-linejoin:round; stroke-width:4; stroke-opacity:1; fill:none" points="1957.18,1486.45 1957.18,1467.55 "/>
<path clip-path="url(#clip180)" d="M145.393 1517.37 Q141.782 1517.37 139.954 1520.93 Q138.148 1524.47 138.148 1531.6 Q138.148 1538.71 139.954 1542.27 Q141.782 1545.82 145.393 1545.82 Q149.028 1545.82 150.833 1542.27 Q152.662 1538.71 152.662 1531.6 Q152.662 1524.47 150.833 1520.93 Q149.028 1517.37 145.393 1517.37 M145.393 1513.66 Q151.203 1513.66 154.259 1518.27 Q157.338 1522.85 157.338 1531.6 Q157.338 1540.33 154.259 1544.94 Q151.203 1549.52 145.393 1549.52 Q139.583 1549.52 136.504 1544.94 Q133.449 1540.33 133.449 1531.6 Q133.449 1522.85 136.504 1518.27 Q139.583 1513.66 145.393 1513.66 Z" fill="#000000" fill-rule="nonzero" fill-opacity="1" /><path clip-path="url(#clip180)" d="M728.096 1544.91 L744.415 1544.91 L744.415 1548.85 L722.471 1548.85 L722.471 1544.91 Q725.133 1542.16 729.717 1537.53 Q734.323 1532.88 735.504 1531.53 Q737.749 1529.01 738.628 1527.27 Q739.531 1525.51 739.531 1523.82 Q739.531 1521.07 737.587 1519.33 Q735.666 1517.6 732.564 1517.6 Q730.365 1517.6 727.911 1518.36 Q725.48 1519.13 722.703 1520.68 L722.703 1515.95 Q725.527 1514.82 727.98 1514.24 Q730.434 1513.66 732.471 1513.66 Q737.841 1513.66 741.036 1516.35 Q744.23 1519.03 744.23 1523.52 Q744.23 1525.65 743.42 1527.57 Q742.633 1529.47 740.527 1532.07 Q739.948 1532.74 736.846 1535.95 Q733.744 1539.15 728.096 1544.91 Z" fill="#000000" fill-rule="nonzero" fill-opacity="1" /><path clip-path="url(#clip180)" d="M764.23 1517.37 Q760.619 1517.37 758.79 1520.93 Q756.985 1524.47 756.985 1531.6 Q756.985 1538.71 758.79 1542.27 Q760.619 1545.82 764.23 1545.82 Q767.864 1545.82 769.67 1542.27 Q771.499 1538.71 771.499 1531.6 Q771.499 1524.47 769.67 1520.93 Q767.864 1517.37 764.23 1517.37 M764.23 1513.66 Q770.04 1513.66 773.096 1518.27 Q776.175 1522.85 776.175 1531.6 Q776.175 1540.33 773.096 1544.94 Q770.04 1549.52 764.23 1549.52 Q758.42 1549.52 755.341 1544.94 Q752.286 1540.33 752.286 1531.6 Q752.286 1522.85 755.341 1518.27 Q758.42 1513.66 764.23 1513.66 Z" fill="#000000" fill-rule="nonzero" fill-opacity="1" /><path clip-path="url(#clip180)" d="M1341.42 1518.36 L1329.62 1536.81 L1341.42 1536.81 L1341.42 1518.36 M1340.2 1514.29 L1346.08 1514.29 L1346.08 1536.81 L1351.01 1536.81 L1351.01 1540.7 L1346.08 1540.7 L1346.08 1548.85 L1341.42 1548.85 L1341.42 1540.7 L1325.82 1540.7 L1325.82 1536.19 L1340.2 1514.29 Z" fill="#000000" fill-rule="nonzero" fill-opacity="1" /><path clip-path="url(#clip180)" d="M1368.74 1517.37 Q1365.13 1517.37 1363.3 1520.93 Q1361.49 1524.47 1361.49 1531.6 Q1361.49 1538.71 1363.3 1542.27 Q1365.13 1545.82 1368.74 1545.82 Q1372.37 1545.82 1374.18 1542.27 Q1376.01 1538.71 1376.01 1531.6 Q1376.01 1524.47 1374.18 1520.93 Q1372.37 1517.37 1368.74 1517.37 M1368.74 1513.66 Q1374.55 1513.66 1377.6 1518.27 Q1380.68 1522.85 1380.68 1531.6 Q1380.68 1540.33 1377.6 1544.94 Q1374.55 1549.52 1368.74 1549.52 Q1362.93 1549.52 1359.85 1544.94 Q1356.79 1540.33 1356.79 1531.6 Q1356.79 1522.85 1359.85 1518.27 Q1362.93 1513.66 1368.74 1513.66 Z" fill="#000000" fill-rule="nonzero" fill-opacity="1" /><path clip-path="url(#clip180)" d="M1942.59 1529.7 Q1939.44 1529.7 1937.59 1531.86 Q1935.76 1534.01 1935.76 1537.76 Q1935.76 1541.49 1937.59 1543.66 Q1939.44 1545.82 1942.59 1545.82 Q1945.74 1545.82 1947.56 1543.66 Q1949.42 1541.49 1949.42 1537.76 Q1949.42 1534.01 1947.56 1531.86 Q1945.74 1529.7 1942.59 1529.7 M1951.87 1515.05 L1951.87 1519.31 Q1950.11 1518.48 1948.3 1518.04 Q1946.52 1517.6 1944.76 1517.6 Q1940.13 1517.6 1937.68 1520.72 Q1935.25 1523.85 1934.9 1530.17 Q1936.27 1528.15 1938.33 1527.09 Q1940.39 1526 1942.86 1526 Q1948.07 1526 1951.08 1529.17 Q1954.11 1532.32 1954.11 1537.76 Q1954.11 1543.08 1950.97 1546.3 Q1947.82 1549.52 1942.59 1549.52 Q1936.59 1549.52 1933.42 1544.94 Q1930.25 1540.33 1930.25 1531.6 Q1930.25 1523.41 1934.14 1518.55 Q1938.03 1513.66 1944.58 1513.66 Q1946.34 1513.66 1948.12 1514.01 Q1949.93 1514.36 1951.87 1515.05 Z" fill="#000000" fill-rule="nonzero" fill-opacity="1" /><path clip-path="url(#clip180)" d="M1972.17 1517.37 Q1968.56 1517.37 1966.73 1520.93 Q1964.93 1524.47 1964.93 1531.6 Q1964.93 1538.71 1966.73 1542.27 Q1968.56 1545.82 1972.17 1545.82 Q1975.8 1545.82 1977.61 1542.27 Q1979.44 1538.71 1979.44 1531.6 Q1979.44 1524.47 1977.61 1520.93 Q1975.8 1517.37 1972.17 1517.37 M1972.17 1513.66 Q1977.98 1513.66 1981.04 1518.27 Q1984.11 1522.85 1984.11 1531.6 Q1984.11 1540.33 1981.04 1544.94 Q1977.98 1549.52 1972.17 1549.52 Q1966.36 1549.52 1963.28 1544.94 Q1960.23 1540.33 1960.23 1531.6 Q1960.23 1522.85 1963.28 1518.27 Q1966.36 1513.66 1972.17 1513.66 Z" fill="#000000" fill-rule="nonzero" fill-opacity="1" /><polyline clip-path="url(#clip180)" style="stroke:#000000; stroke-linecap:round; stroke-linejoin:round; stroke-width:4; stroke-opacity:1; fill:none" points="112.177,1486.45 112.177,123.472 "/>
<polyline clip-path="url(#clip180)" style="stroke:#000000; stroke-linecap:round; stroke-linejoin:round; stroke-width:4; stroke-opacity:1; fill:none" points="112.177,1447.88 131.075,1447.88 "/>
<polyline clip-path="url(#clip180)" style="stroke:#000000; stroke-linecap:round; stroke-linejoin:round; stroke-width:4; stroke-opacity:1; fill:none" points="112.177,1146.35 131.075,1146.35 "/>
<polyline clip-path="url(#clip180)" style="stroke:#000000; stroke-linecap:round; stroke-linejoin:round; stroke-width:4; stroke-opacity:1; fill:none" points="112.177,844.81 131.075,844.81 "/>
<polyline clip-path="url(#clip180)" style="stroke:#000000; stroke-linecap:round; stroke-linejoin:round; stroke-width:4; stroke-opacity:1; fill:none" points="112.177,543.274 131.075,543.274 "/>
<polyline clip-path="url(#clip180)" style="stroke:#000000; stroke-linecap:round; stroke-linejoin:round; stroke-width:4; stroke-opacity:1; fill:none" points="112.177,241.738 131.075,241.738 "/>
<path clip-path="url(#clip180)" d="M64.2328 1433.68 Q60.6217 1433.68 58.793 1437.25 Q56.9875 1440.79 56.9875 1447.92 Q56.9875 1455.02 58.793 1458.59 Q60.6217 1462.13 64.2328 1462.13 Q67.867 1462.13 69.6726 1458.59 Q71.5013 1455.02 71.5013 1447.92 Q71.5013 1440.79 69.6726 1437.25 Q67.867 1433.68 64.2328 1433.68 M64.2328 1429.98 Q70.0429 1429.98 73.0985 1434.58 Q76.1772 1439.17 76.1772 1447.92 Q76.1772 1456.64 73.0985 1461.25 Q70.0429 1465.83 64.2328 1465.83 Q58.4226 1465.83 55.344 1461.25 Q52.2884 1456.64 52.2884 1447.92 Q52.2884 1439.17 55.344 1434.58 Q58.4226 1429.98 64.2328 1429.98 Z" fill="#000000" fill-rule="nonzero" fill-opacity="1" /><path clip-path="url(#clip180)" d="M59.8578 1159.69 L76.1772 1159.69 L76.1772 1163.63 L54.2328 1163.63 L54.2328 1159.69 Q56.8949 1156.94 61.4782 1152.31 Q66.0846 1147.65 67.2652 1146.31 Q69.5105 1143.79 70.3902 1142.05 Q71.2929 1140.29 71.2929 1138.6 Q71.2929 1135.85 69.3485 1134.11 Q67.4272 1132.38 64.3254 1132.38 Q62.1263 1132.38 59.6726 1133.14 Q57.2421 1133.9 54.4643 1135.45 L54.4643 1130.73 Q57.2884 1129.6 59.7421 1129.02 Q62.1958 1128.44 64.2328 1128.44 Q69.6031 1128.44 72.7976 1131.13 Q75.992 1133.81 75.992 1138.3 Q75.992 1140.43 75.1818 1142.35 Q74.3948 1144.25 72.2883 1146.84 Q71.7096 1147.51 68.6078 1150.73 Q65.5059 1153.93 59.8578 1159.69 Z" fill="#000000" fill-rule="nonzero" fill-opacity="1" /><path clip-path="url(#clip180)" d="M66.5939 831.604 L54.7884 850.053 L66.5939 850.053 L66.5939 831.604 M65.367 827.53 L71.2466 827.53 L71.2466 850.053 L76.1772 850.053 L76.1772 853.942 L71.2466 853.942 L71.2466 862.09 L66.5939 862.09 L66.5939 853.942 L50.9921 853.942 L50.9921 849.428 L65.367 827.53 Z" fill="#000000" fill-rule="nonzero" fill-opacity="1" /><path clip-path="url(#clip180)" d="M64.6495 541.41 Q61.5013 541.41 59.6495 543.563 Q57.8208 545.716 57.8208 549.466 Q57.8208 553.193 59.6495 555.369 Q61.5013 557.521 64.6495 557.521 Q67.7976 557.521 69.6263 555.369 Q71.4781 553.193 71.4781 549.466 Q71.4781 545.716 69.6263 543.563 Q67.7976 541.41 64.6495 541.41 M73.9318 526.758 L73.9318 531.017 Q72.1726 530.184 70.367 529.744 Q68.5846 529.304 66.8254 529.304 Q62.1958 529.304 59.7421 532.429 Q57.3115 535.554 56.9643 541.873 Q58.33 539.859 60.3902 538.795 Q62.4504 537.707 64.9272 537.707 Q70.1355 537.707 73.1448 540.878 Q76.1772 544.026 76.1772 549.466 Q76.1772 554.79 73.029 558.008 Q69.8809 561.225 64.6495 561.225 Q58.6541 561.225 55.4828 556.642 Q52.3116 552.035 52.3116 543.309 Q52.3116 535.114 56.2004 530.253 Q60.0893 525.369 66.6402 525.369 Q68.3994 525.369 70.1818 525.716 Q71.9874 526.063 73.9318 526.758 Z" fill="#000000" fill-rule="nonzero" fill-opacity="1" /><path clip-path="url(#clip180)" d="M64.3254 242.606 Q60.9921 242.606 59.0708 244.388 Q57.1726 246.171 57.1726 249.296 Q57.1726 252.421 59.0708 254.203 Q60.9921 255.985 64.3254 255.985 Q67.6587 255.985 69.58 254.203 Q71.5013 252.397 71.5013 249.296 Q71.5013 246.171 69.58 244.388 Q67.6819 242.606 64.3254 242.606 M59.6495 240.615 Q56.6402 239.874 54.9504 237.814 Q53.2838 235.754 53.2838 232.791 Q53.2838 228.648 56.2236 226.24 Q59.1865 223.833 64.3254 223.833 Q69.4874 223.833 72.4272 226.24 Q75.367 228.648 75.367 232.791 Q75.367 235.754 73.6772 237.814 Q72.0105 239.874 69.0244 240.615 Q72.404 241.402 74.279 243.694 Q76.1772 245.985 76.1772 249.296 Q76.1772 254.319 73.0985 257.004 Q70.0429 259.689 64.3254 259.689 Q58.6078 259.689 55.5291 257.004 Q52.4736 254.319 52.4736 249.296 Q52.4736 245.985 54.3717 243.694 Q56.2699 241.402 59.6495 240.615 M57.9365 233.231 Q57.9365 235.916 59.6032 237.421 Q61.293 238.925 64.3254 238.925 Q67.3346 238.925 69.0244 237.421 Q70.7374 235.916 70.7374 233.231 Q70.7374 230.546 69.0244 229.041 Q67.3346 227.536 64.3254 227.536 Q61.293 227.536 59.6032 229.041 Q57.9365 230.546 57.9365 233.231 Z" fill="#000000" fill-rule="nonzero" fill-opacity="1" /><path clip-path="url(#clip180)" d="M354.615 14.0809 L354.615 22.0612 Q349.957 19.8332 345.825 18.7395 Q341.693 17.6457 337.845 17.6457 Q331.161 17.6457 327.515 20.2383 Q323.909 22.8309 323.909 27.611 Q323.909 31.6214 326.3 33.6873 Q328.73 35.7128 335.455 36.9686 L340.397 37.9813 Q349.552 39.7232 353.886 44.1387 Q358.261 48.5136 358.261 55.8863 Q358.261 64.6767 352.347 69.2137 Q346.473 73.7508 335.09 73.7508 Q330.796 73.7508 325.935 72.7785 Q321.114 71.8063 315.929 69.9024 L315.929 61.4765 Q320.912 64.2716 325.692 65.6895 Q330.472 67.1073 335.09 67.1073 Q342.098 67.1073 345.906 64.3527 Q349.714 61.598 349.714 56.4939 Q349.714 52.0379 346.959 49.5264 Q344.245 47.0148 338.007 45.759 L333.024 44.7868 Q323.869 42.9639 319.778 39.075 Q315.686 35.1862 315.686 28.2591 Q315.686 20.2383 321.317 15.6203 Q326.988 11.0023 336.913 11.0023 Q341.166 11.0023 345.582 11.7719 Q349.997 12.5416 354.615 14.0809 Z" fill="#000000" fill-rule="nonzero" fill-opacity="1" /><path clip-path="url(#clip180)" d="M378.07 14.324 L378.07 27.2059 L393.423 27.2059 L393.423 32.9987 L378.07 32.9987 L378.07 57.6282 Q378.07 63.1779 379.569 64.7578 Q381.108 66.3376 385.767 66.3376 L393.423 66.3376 L393.423 72.576 L385.767 72.576 Q377.138 72.576 373.857 69.3758 Q370.576 66.1351 370.576 57.6282 L370.576 32.9987 L365.107 32.9987 L365.107 27.2059 L370.576 27.2059 L370.576 14.324 L378.07 14.324 Z" fill="#000000" fill-rule="nonzero" fill-opacity="1" /><path clip-path="url(#clip180)" d="M442.034 48.0275 L442.034 51.6733 L407.763 51.6733 Q408.249 59.3701 412.381 63.421 Q416.554 67.4314 423.967 67.4314 Q428.261 67.4314 432.271 66.3781 Q436.322 65.3249 440.292 63.2184 L440.292 70.267 Q436.282 71.9684 432.069 72.8596 Q427.856 73.7508 423.521 73.7508 Q412.665 73.7508 406.305 67.4314 Q399.985 61.1119 399.985 50.3365 Q399.985 39.1965 405.981 32.6746 Q412.017 26.1121 422.225 26.1121 Q431.38 26.1121 436.687 32.0264 Q442.034 37.9003 442.034 48.0275 M434.58 45.84 Q434.499 39.7232 431.137 36.0774 Q427.815 32.4315 422.306 32.4315 Q416.068 32.4315 412.3 35.9558 Q408.573 39.4801 408.006 45.8805 L434.58 45.84 Z" fill="#000000" fill-rule="nonzero" fill-opacity="1" /><path clip-path="url(#clip180)" d="M474.887 49.7694 Q465.853 49.7694 462.369 51.8354 Q458.886 53.9013 458.886 58.8839 Q458.886 62.8538 461.478 65.2034 Q464.111 67.5124 468.608 67.5124 Q474.806 67.5124 478.533 63.1374 Q482.3 58.7219 482.3 51.4303 L482.3 49.7694 L474.887 49.7694 M489.754 46.6907 L489.754 72.576 L482.3 72.576 L482.3 65.6895 Q479.748 69.8214 475.94 71.8063 Q472.132 73.7508 466.623 73.7508 Q459.655 73.7508 455.523 69.8619 Q451.432 65.9325 451.432 59.3701 Q451.432 51.7138 456.536 47.825 Q461.681 43.9361 471.849 43.9361 L482.3 43.9361 L482.3 43.2069 Q482.3 38.0623 478.897 35.2672 Q475.535 32.4315 469.418 32.4315 Q465.529 32.4315 461.843 33.3632 Q458.156 34.295 454.754 36.1584 L454.754 29.2718 Q458.845 27.692 462.693 26.9223 Q466.542 26.1121 470.188 26.1121 Q480.031 26.1121 484.892 31.2163 Q489.754 36.3204 489.754 46.6907 Z" fill="#000000" fill-rule="nonzero" fill-opacity="1" /><path clip-path="url(#clip180)" d="M534.962 34.0924 L534.962 9.54393 L542.415 9.54393 L542.415 72.576 L534.962 72.576 L534.962 65.7705 Q532.612 69.8214 529.007 71.8063 Q525.442 73.7508 520.419 73.7508 Q512.196 73.7508 507.01 67.1883 Q501.866 60.6258 501.866 49.9314 Q501.866 39.2371 507.01 32.6746 Q512.196 26.1121 520.419 26.1121 Q525.442 26.1121 529.007 28.0971 Q532.612 30.0415 534.962 34.0924 M509.562 49.9314 Q509.562 58.1548 512.925 62.8538 Q516.327 67.5124 522.242 67.5124 Q528.156 67.5124 531.559 62.8538 Q534.962 58.1548 534.962 49.9314 Q534.962 41.7081 531.559 37.0496 Q528.156 32.3505 522.242 32.3505 Q516.327 32.3505 512.925 37.0496 Q509.562 41.7081 509.562 49.9314 Z" fill="#000000" fill-rule="nonzero" fill-opacity="1" /><path clip-path="url(#clip180)" d="M576.645 76.7889 Q573.486 84.8907 570.488 87.3618 Q567.49 89.8329 562.467 89.8329 L556.512 89.8329 L556.512 83.5945 L560.887 83.5945 Q563.966 83.5945 565.667 82.1361 Q567.369 80.6778 569.435 75.2496 L570.772 71.8468 L552.421 27.2059 L560.32 27.2059 L574.498 62.6918 L588.677 27.2059 L596.576 27.2059 L576.645 76.7889 Z" fill="#000000" fill-rule="nonzero" fill-opacity="1" /><path clip-path="url(#clip180)" d="M662.16 28.5427 L662.16 35.5912 Q659 33.9709 655.598 33.1607 Q652.195 32.3505 648.549 32.3505 Q642.999 32.3505 640.204 34.0519 Q637.449 35.7533 637.449 39.156 Q637.449 41.7486 639.434 43.2475 Q641.419 44.7058 647.415 46.0426 L649.967 46.6097 Q657.907 48.3111 661.228 51.4303 Q664.591 54.509 664.591 60.0587 Q664.591 66.3781 659.567 70.0644 Q654.585 73.7508 645.835 73.7508 Q642.189 73.7508 638.219 73.0216 Q634.29 72.3329 629.915 70.9151 L629.915 63.2184 Q634.047 65.3654 638.057 66.4591 Q642.068 67.5124 645.997 67.5124 Q651.263 67.5124 654.099 65.73 Q656.934 63.9071 656.934 60.6258 Q656.934 57.5877 654.868 55.9673 Q652.843 54.3469 645.916 52.8481 L643.323 52.2405 Q636.396 50.7821 633.318 47.7845 Q630.239 44.7463 630.239 39.4801 Q630.239 33.0797 634.776 29.5959 Q639.313 26.1121 647.658 26.1121 Q651.79 26.1121 655.435 26.7198 Q659.081 27.3274 662.16 28.5427 Z" fill="#000000" fill-rule="nonzero" fill-opacity="1" /><path clip-path="url(#clip180)" d="M683.832 14.324 L683.832 27.2059 L699.185 27.2059 L699.185 32.9987 L683.832 32.9987 L683.832 57.6282 Q683.832 63.1779 685.331 64.7578 Q686.871 66.3376 691.529 66.3376 L699.185 66.3376 L699.185 72.576 L691.529 72.576 Q682.901 72.576 679.619 69.3758 Q676.338 66.1351 676.338 57.6282 L676.338 32.9987 L670.869 32.9987 L670.869 27.2059 L676.338 27.2059 L676.338 14.324 L683.832 14.324 Z" fill="#000000" fill-rule="nonzero" fill-opacity="1" /><path clip-path="url(#clip180)" d="M729.608 49.7694 Q720.574 49.7694 717.09 51.8354 Q713.606 53.9013 713.606 58.8839 Q713.606 62.8538 716.199 65.2034 Q718.832 67.5124 723.329 67.5124 Q729.527 67.5124 733.253 63.1374 Q737.021 58.7219 737.021 51.4303 L737.021 49.7694 L729.608 49.7694 M744.474 46.6907 L744.474 72.576 L737.021 72.576 L737.021 65.6895 Q734.469 69.8214 730.661 71.8063 Q726.853 73.7508 721.344 73.7508 Q714.376 73.7508 710.244 69.8619 Q706.153 65.9325 706.153 59.3701 Q706.153 51.7138 711.257 47.825 Q716.402 43.9361 726.569 43.9361 L737.021 43.9361 L737.021 43.2069 Q737.021 38.0623 733.618 35.2672 Q730.256 32.4315 724.139 32.4315 Q720.25 32.4315 716.564 33.3632 Q712.877 34.295 709.475 36.1584 L709.475 29.2718 Q713.566 27.692 717.414 26.9223 Q721.263 26.1121 724.908 26.1121 Q734.752 26.1121 739.613 31.2163 Q744.474 36.3204 744.474 46.6907 Z" fill="#000000" fill-rule="nonzero" fill-opacity="1" /><path clip-path="url(#clip180)" d="M767.2 14.324 L767.2 27.2059 L782.553 27.2059 L782.553 32.9987 L767.2 32.9987 L767.2 57.6282 Q767.2 63.1779 768.699 64.7578 Q770.238 66.3376 774.897 66.3376 L782.553 66.3376 L782.553 72.576 L774.897 72.576 Q766.268 72.576 762.987 69.3758 Q759.706 66.1351 759.706 57.6282 L759.706 32.9987 L754.237 32.9987 L754.237 27.2059 L759.706 27.2059 L759.706 14.324 L767.2 14.324 Z" fill="#000000" fill-rule="nonzero" fill-opacity="1" /><path clip-path="url(#clip180)" d="M831.164 48.0275 L831.164 51.6733 L796.893 51.6733 Q797.379 59.3701 801.511 63.421 Q805.684 67.4314 813.097 67.4314 Q817.391 67.4314 821.401 66.3781 Q825.452 65.3249 829.422 63.2184 L829.422 70.267 Q825.411 71.9684 821.198 72.8596 Q816.986 73.7508 812.651 73.7508 Q801.795 73.7508 795.435 67.4314 Q789.115 61.1119 789.115 50.3365 Q789.115 39.1965 795.111 32.6746 Q801.147 26.1121 811.355 26.1121 Q820.51 26.1121 825.817 32.0264 Q831.164 37.9003 831.164 48.0275 M823.71 45.84 Q823.629 39.7232 820.267 36.0774 Q816.945 32.4315 811.436 32.4315 Q805.197 32.4315 801.43 35.9558 Q797.703 39.4801 797.136 45.8805 L823.71 45.84 Z" fill="#000000" fill-rule="nonzero" fill-opacity="1" /><path clip-path="url(#clip180)" d="M898.692 28.5427 L898.692 35.5912 Q895.533 33.9709 892.13 33.1607 Q888.727 32.3505 885.081 32.3505 Q879.532 32.3505 876.736 34.0519 Q873.982 35.7533 873.982 39.156 Q873.982 41.7486 875.967 43.2475 Q877.952 44.7058 883.947 46.0426 L886.499 46.6097 Q894.439 48.3111 897.761 51.4303 Q901.123 54.509 901.123 60.0587 Q901.123 66.3781 896.1 70.0644 Q891.117 73.7508 882.367 73.7508 Q878.721 73.7508 874.751 73.0216 Q870.822 72.3329 866.447 70.9151 L866.447 63.2184 Q870.579 65.3654 874.589 66.4591 Q878.6 67.5124 882.529 67.5124 Q887.795 67.5124 890.631 65.73 Q893.467 63.9071 893.467 60.6258 Q893.467 57.5877 891.401 55.9673 Q889.375 54.3469 882.448 52.8481 L879.856 52.2405 Q872.929 50.7821 869.85 47.7845 Q866.771 44.7463 866.771 39.4801 Q866.771 33.0797 871.308 29.5959 Q875.845 26.1121 884.19 26.1121 Q888.322 26.1121 891.968 26.7198 Q895.614 27.3274 898.692 28.5427 Z" fill="#000000" fill-rule="nonzero" fill-opacity="1" /><path clip-path="url(#clip180)" d="M920.203 65.7705 L920.203 89.8329 L912.708 89.8329 L912.708 27.2059 L920.203 27.2059 L920.203 34.0924 Q922.552 30.0415 926.117 28.0971 Q929.722 26.1121 934.705 26.1121 Q942.969 26.1121 948.113 32.6746 Q953.298 39.2371 953.298 49.9314 Q953.298 60.6258 948.113 67.1883 Q942.969 73.7508 934.705 73.7508 Q929.722 73.7508 926.117 71.8063 Q922.552 69.8214 920.203 65.7705 M945.561 49.9314 Q945.561 41.7081 942.158 37.0496 Q938.796 32.3505 932.882 32.3505 Q926.968 32.3505 923.565 37.0496 Q920.203 41.7081 920.203 49.9314 Q920.203 58.1548 923.565 62.8538 Q926.968 67.5124 932.882 67.5124 Q938.796 67.5124 942.158 62.8538 Q945.561 58.1548 945.561 49.9314 Z" fill="#000000" fill-rule="nonzero" fill-opacity="1" /><path clip-path="url(#clip180)" d="M986.273 49.7694 Q977.239 49.7694 973.756 51.8354 Q970.272 53.9013 970.272 58.8839 Q970.272 62.8538 972.864 65.2034 Q975.497 67.5124 979.994 67.5124 Q986.192 67.5124 989.919 63.1374 Q993.686 58.7219 993.686 51.4303 L993.686 49.7694 L986.273 49.7694 M1001.14 46.6907 L1001.14 72.576 L993.686 72.576 L993.686 65.6895 Q991.134 69.8214 987.326 71.8063 Q983.518 73.7508 978.009 73.7508 Q971.041 73.7508 966.91 69.8619 Q962.818 65.9325 962.818 59.3701 Q962.818 51.7138 967.922 47.825 Q973.067 43.9361 983.235 43.9361 L993.686 43.9361 L993.686 43.2069 Q993.686 38.0623 990.283 35.2672 Q986.921 32.4315 980.804 32.4315 Q976.915 32.4315 973.229 33.3632 Q969.543 34.295 966.14 36.1584 L966.14 29.2718 Q970.231 27.692 974.08 26.9223 Q977.928 26.1121 981.574 26.1121 Q991.417 26.1121 996.279 31.2163 Q1001.14 36.3204 1001.14 46.6907 Z" fill="#000000" fill-rule="nonzero" fill-opacity="1" /><path clip-path="url(#clip180)" d="M1023.87 14.324 L1023.87 27.2059 L1039.22 27.2059 L1039.22 32.9987 L1023.87 32.9987 L1023.87 57.6282 Q1023.87 63.1779 1025.36 64.7578 Q1026.9 66.3376 1031.56 66.3376 L1039.22 66.3376 L1039.22 72.576 L1031.56 72.576 Q1022.93 72.576 1019.65 69.3758 Q1016.37 66.1351 1016.37 57.6282 L1016.37 32.9987 L1010.9 32.9987 L1010.9 27.2059 L1016.37 27.2059 L1016.37 14.324 L1023.87 14.324 Z" fill="#000000" fill-rule="nonzero" fill-opacity="1" /><path clip-path="url(#clip180)" d="M1049.02 27.2059 L1056.48 27.2059 L1056.48 72.576 L1049.02 72.576 L1049.02 27.2059 M1049.02 9.54393 L1056.48 9.54393 L1056.48 18.9825 L1049.02 18.9825 L1049.02 9.54393 Z" fill="#000000" fill-rule="nonzero" fill-opacity="1" /><path clip-path="url(#clip180)" d="M1092.69 49.7694 Q1083.66 49.7694 1080.17 51.8354 Q1076.69 53.9013 1076.69 58.8839 Q1076.69 62.8538 1079.28 65.2034 Q1081.91 67.5124 1086.41 67.5124 Q1092.61 67.5124 1096.34 63.1374 Q1100.1 58.7219 1100.1 51.4303 L1100.1 49.7694 L1092.69 49.7694 M1107.56 46.6907 L1107.56 72.576 L1100.1 72.576 L1100.1 65.6895 Q1097.55 69.8214 1093.74 71.8063 Q1089.94 73.7508 1084.43 73.7508 Q1077.46 73.7508 1073.33 69.8619 Q1069.24 65.9325 1069.24 59.3701 Q1069.24 51.7138 1074.34 47.825 Q1079.48 43.9361 1089.65 43.9361 L1100.1 43.9361 L1100.1 43.2069 Q1100.1 38.0623 1096.7 35.2672 Q1093.34 32.4315 1087.22 32.4315 Q1083.33 32.4315 1079.65 33.3632 Q1075.96 34.295 1072.56 36.1584 L1072.56 29.2718 Q1076.65 27.692 1080.5 26.9223 Q1084.35 26.1121 1087.99 26.1121 Q1097.83 26.1121 1102.7 31.2163 Q1107.56 36.3204 1107.56 46.6907 Z" fill="#000000" fill-rule="nonzero" fill-opacity="1" /><path clip-path="url(#clip180)" d="M1122.91 9.54393 L1130.36 9.54393 L1130.36 72.576 L1122.91 72.576 L1122.91 9.54393 Z" fill="#000000" fill-rule="nonzero" fill-opacity="1" /><path clip-path="url(#clip180)" d="M1198.62 34.1734 Q1197.37 33.4443 1195.87 33.1202 Q1194.41 32.7556 1192.63 32.7556 Q1186.31 32.7556 1182.9 36.8875 Q1179.54 40.9789 1179.54 48.6757 L1179.54 72.576 L1172.05 72.576 L1172.05 27.2059 L1179.54 27.2059 L1179.54 34.2544 Q1181.89 30.1225 1185.66 28.1376 Q1189.43 26.1121 1194.81 26.1121 Q1195.58 26.1121 1196.51 26.2337 Q1197.45 26.3147 1198.58 26.5172 L1198.62 34.1734 Z" fill="#000000" fill-rule="nonzero" fill-opacity="1" /><path clip-path="url(#clip180)" d="M1243.42 48.0275 L1243.42 51.6733 L1209.15 51.6733 Q1209.64 59.3701 1213.77 63.421 Q1217.94 67.4314 1225.36 67.4314 Q1229.65 67.4314 1233.66 66.3781 Q1237.71 65.3249 1241.68 63.2184 L1241.68 70.267 Q1237.67 71.9684 1233.46 72.8596 Q1229.25 73.7508 1224.91 73.7508 Q1214.06 73.7508 1207.7 67.4314 Q1201.38 61.1119 1201.38 50.3365 Q1201.38 39.1965 1207.37 32.6746 Q1213.41 26.1121 1223.62 26.1121 Q1232.77 26.1121 1238.08 32.0264 Q1243.42 37.9003 1243.42 48.0275 M1235.97 45.84 Q1235.89 39.7232 1232.53 36.0774 Q1229.21 32.4315 1223.7 32.4315 Q1217.46 32.4315 1213.69 35.9558 Q1209.96 39.4801 1209.4 45.8805 L1235.97 45.84 Z" fill="#000000" fill-rule="nonzero" fill-opacity="1" /><path clip-path="url(#clip180)" d="M1284.58 28.5427 L1284.58 35.5912 Q1281.42 33.9709 1278.02 33.1607 Q1274.62 32.3505 1270.97 32.3505 Q1265.42 32.3505 1262.63 34.0519 Q1259.87 35.7533 1259.87 39.156 Q1259.87 41.7486 1261.86 43.2475 Q1263.84 44.7058 1269.84 46.0426 L1272.39 46.6097 Q1280.33 48.3111 1283.65 51.4303 Q1287.01 54.509 1287.01 60.0587 Q1287.01 66.3781 1281.99 70.0644 Q1277.01 73.7508 1268.26 73.7508 Q1264.61 73.7508 1260.64 73.0216 Q1256.71 72.3329 1252.34 70.9151 L1252.34 63.2184 Q1256.47 65.3654 1260.48 66.4591 Q1264.49 67.5124 1268.42 67.5124 Q1273.68 67.5124 1276.52 65.73 Q1279.36 63.9071 1279.36 60.6258 Q1279.36 57.5877 1277.29 55.9673 Q1275.26 54.3469 1268.34 52.8481 L1265.74 52.2405 Q1258.82 50.7821 1255.74 47.7845 Q1252.66 44.7463 1252.66 39.4801 Q1252.66 33.0797 1257.2 29.5959 Q1261.73 26.1121 1270.08 26.1121 Q1274.21 26.1121 1277.86 26.7198 Q1281.5 27.3274 1284.58 28.5427 Z" fill="#000000" fill-rule="nonzero" fill-opacity="1" /><path clip-path="url(#clip180)" d="M1306.09 65.7705 L1306.09 89.8329 L1298.6 89.8329 L1298.6 27.2059 L1306.09 27.2059 L1306.09 34.0924 Q1308.44 30.0415 1312.01 28.0971 Q1315.61 26.1121 1320.59 26.1121 Q1328.86 26.1121 1334 32.6746 Q1339.19 39.2371 1339.19 49.9314 Q1339.19 60.6258 1334 67.1883 Q1328.86 73.7508 1320.59 73.7508 Q1315.61 73.7508 1312.01 71.8063 Q1308.44 69.8214 1306.09 65.7705 M1331.45 49.9314 Q1331.45 41.7081 1328.05 37.0496 Q1324.69 32.3505 1318.77 32.3505 Q1312.86 32.3505 1309.45 37.0496 Q1306.09 41.7081 1306.09 49.9314 Q1306.09 58.1548 1309.45 62.8538 Q1312.86 67.5124 1318.77 67.5124 Q1324.69 67.5124 1328.05 62.8538 Q1331.45 58.1548 1331.45 49.9314 Z" fill="#000000" fill-rule="nonzero" fill-opacity="1" /><path clip-path="url(#clip180)" d="M1369.12 32.4315 Q1363.13 32.4315 1359.64 37.1306 Q1356.16 41.7891 1356.16 49.9314 Q1356.16 58.0738 1359.6 62.7728 Q1363.09 67.4314 1369.12 67.4314 Q1375.08 67.4314 1378.56 62.7323 Q1382.05 58.0333 1382.05 49.9314 Q1382.05 41.8701 1378.56 37.1711 Q1375.08 32.4315 1369.12 32.4315 M1369.12 26.1121 Q1378.85 26.1121 1384.4 32.4315 Q1389.95 38.7509 1389.95 49.9314 Q1389.95 61.0714 1384.4 67.4314 Q1378.85 73.7508 1369.12 73.7508 Q1359.36 73.7508 1353.81 67.4314 Q1348.3 61.0714 1348.3 49.9314 Q1348.3 38.7509 1353.81 32.4315 Q1359.36 26.1121 1369.12 26.1121 Z" fill="#000000" fill-rule="nonzero" fill-opacity="1" /><path clip-path="url(#clip180)" d="M1440.01 45.1919 L1440.01 72.576 L1432.56 72.576 L1432.56 45.4349 Q1432.56 38.994 1430.05 35.7938 Q1427.54 32.5936 1422.51 32.5936 Q1416.48 32.5936 1413 36.4419 Q1409.51 40.2903 1409.51 46.9338 L1409.51 72.576 L1402.02 72.576 L1402.02 27.2059 L1409.51 27.2059 L1409.51 34.2544 Q1412.18 30.163 1415.79 28.1376 Q1419.44 26.1121 1424.18 26.1121 Q1431.99 26.1121 1436 30.9732 Q1440.01 35.7938 1440.01 45.1919 Z" fill="#000000" fill-rule="nonzero" fill-opacity="1" /><path clip-path="url(#clip180)" d="M1483.8 28.5427 L1483.8 35.5912 Q1480.65 33.9709 1477.24 33.1607 Q1473.84 32.3505 1470.19 32.3505 Q1464.64 32.3505 1461.85 34.0519 Q1459.09 35.7533 1459.09 39.156 Q1459.09 41.7486 1461.08 43.2475 Q1463.06 44.7058 1469.06 46.0426 L1471.61 46.6097 Q1479.55 48.3111 1482.87 51.4303 Q1486.24 54.509 1486.24 60.0587 Q1486.24 66.3781 1481.21 70.0644 Q1476.23 73.7508 1467.48 73.7508 Q1463.83 73.7508 1459.86 73.0216 Q1455.93 72.3329 1451.56 70.9151 L1451.56 63.2184 Q1455.69 65.3654 1459.7 66.4591 Q1463.71 67.5124 1467.64 67.5124 Q1472.91 67.5124 1475.74 65.73 Q1478.58 63.9071 1478.58 60.6258 Q1478.58 57.5877 1476.51 55.9673 Q1474.49 54.3469 1467.56 52.8481 L1464.97 52.2405 Q1458.04 50.7821 1454.96 47.7845 Q1451.88 44.7463 1451.88 39.4801 Q1451.88 33.0797 1456.42 29.5959 Q1460.96 26.1121 1469.3 26.1121 Q1473.43 26.1121 1477.08 26.7198 Q1480.73 27.3274 1483.8 28.5427 Z" fill="#000000" fill-rule="nonzero" fill-opacity="1" /><path clip-path="url(#clip180)" d="M1536.91 48.0275 L1536.91 51.6733 L1502.64 51.6733 Q1503.13 59.3701 1507.26 63.421 Q1511.43 67.4314 1518.85 67.4314 Q1523.14 67.4314 1527.15 66.3781 Q1531.2 65.3249 1535.17 63.2184 L1535.17 70.267 Q1531.16 71.9684 1526.95 72.8596 Q1522.73 73.7508 1518.4 73.7508 Q1507.54 73.7508 1501.18 67.4314 Q1494.86 61.1119 1494.86 50.3365 Q1494.86 39.1965 1500.86 32.6746 Q1506.9 26.1121 1517.1 26.1121 Q1526.26 26.1121 1531.57 32.0264 Q1536.91 37.9003 1536.91 48.0275 M1529.46 45.84 Q1529.38 39.7232 1526.02 36.0774 Q1522.69 32.4315 1517.18 32.4315 Q1510.95 32.4315 1507.18 35.9558 Q1503.45 39.4801 1502.88 45.8805 L1529.46 45.84 Z" fill="#000000" fill-rule="nonzero" fill-opacity="1" /><path clip-path="url(#clip180)" d="M1578.07 28.5427 L1578.07 35.5912 Q1574.91 33.9709 1571.51 33.1607 Q1568.1 32.3505 1564.46 32.3505 Q1558.91 32.3505 1556.11 34.0519 Q1553.36 35.7533 1553.36 39.156 Q1553.36 41.7486 1555.34 43.2475 Q1557.33 44.7058 1563.32 46.0426 L1565.88 46.6097 Q1573.82 48.3111 1577.14 51.4303 Q1580.5 54.509 1580.5 60.0587 Q1580.5 66.3781 1575.48 70.0644 Q1570.49 73.7508 1561.74 73.7508 Q1558.1 73.7508 1554.13 73.0216 Q1550.2 72.3329 1545.82 70.9151 L1545.82 63.2184 Q1549.96 65.3654 1553.97 66.4591 Q1557.98 67.5124 1561.91 67.5124 Q1567.17 67.5124 1570.01 65.73 Q1572.84 63.9071 1572.84 60.6258 Q1572.84 57.5877 1570.78 55.9673 Q1568.75 54.3469 1561.83 52.8481 L1559.23 52.2405 Q1552.31 50.7821 1549.23 47.7845 Q1546.15 44.7463 1546.15 39.4801 Q1546.15 33.0797 1550.69 29.5959 Q1555.22 26.1121 1563.57 26.1121 Q1567.7 26.1121 1571.34 26.7198 Q1574.99 27.3274 1578.07 28.5427 Z" fill="#000000" fill-rule="nonzero" fill-opacity="1" /><path clip-path="url(#clip180)" d="M1636.32 32.4315 Q1630.33 32.4315 1626.84 37.1306 Q1623.36 41.7891 1623.36 49.9314 Q1623.36 58.0738 1626.8 62.7728 Q1630.29 67.4314 1636.32 67.4314 Q1642.28 67.4314 1645.76 62.7323 Q1649.24 58.0333 1649.24 49.9314 Q1649.24 41.8701 1645.76 37.1711 Q1642.28 32.4315 1636.32 32.4315 M1636.32 26.1121 Q1646.04 26.1121 1651.59 32.4315 Q1657.14 38.7509 1657.14 49.9314 Q1657.14 61.0714 1651.59 67.4314 Q1646.04 73.7508 1636.32 73.7508 Q1626.56 73.7508 1621.01 67.4314 Q1615.5 61.0714 1615.5 49.9314 Q1615.5 38.7509 1621.01 32.4315 Q1626.56 26.1121 1636.32 26.1121 Z" fill="#000000" fill-rule="nonzero" fill-opacity="1" /><path clip-path="url(#clip180)" d="M1692.47 9.54393 L1692.47 15.7418 L1685.34 15.7418 Q1681.33 15.7418 1679.75 17.3622 Q1678.21 18.9825 1678.21 23.1955 L1678.21 27.2059 L1690.48 27.2059 L1690.48 32.9987 L1678.21 32.9987 L1678.21 72.576 L1670.71 72.576 L1670.71 32.9987 L1663.58 32.9987 L1663.58 27.2059 L1670.71 27.2059 L1670.71 24.0462 Q1670.71 16.471 1674.24 13.0277 Q1677.76 9.54393 1685.42 9.54393 L1692.47 9.54393 Z" fill="#000000" fill-rule="nonzero" fill-opacity="1" /><path clip-path="url(#clip180)" d="M1732.45 14.324 L1732.45 27.2059 L1747.8 27.2059 L1747.8 32.9987 L1732.45 32.9987 L1732.45 57.6282 Q1732.45 63.1779 1733.95 64.7578 Q1735.49 66.3376 1740.15 66.3376 L1747.8 66.3376 L1747.8 72.576 L1740.15 72.576 Q1731.52 72.576 1728.24 69.3758 Q1724.96 66.1351 1724.96 57.6282 L1724.96 32.9987 L1719.49 32.9987 L1719.49 27.2059 L1724.96 27.2059 L1724.96 14.324 L1732.45 14.324 Z" fill="#000000" fill-rule="nonzero" fill-opacity="1" /><path clip-path="url(#clip180)" d="M1795.32 45.1919 L1795.32 72.576 L1787.87 72.576 L1787.87 45.4349 Q1787.87 38.994 1785.35 35.7938 Q1782.84 32.5936 1777.82 32.5936 Q1771.78 32.5936 1768.3 36.4419 Q1764.82 40.2903 1764.82 46.9338 L1764.82 72.576 L1757.32 72.576 L1757.32 9.54393 L1764.82 9.54393 L1764.82 34.2544 Q1767.49 30.163 1771.1 28.1376 Q1774.74 26.1121 1779.48 26.1121 Q1787.3 26.1121 1791.31 30.9732 Q1795.32 35.7938 1795.32 45.1919 Z" fill="#000000" fill-rule="nonzero" fill-opacity="1" /><path clip-path="url(#clip180)" d="M1848.99 48.0275 L1848.99 51.6733 L1814.72 51.6733 Q1815.21 59.3701 1819.34 63.421 Q1823.51 67.4314 1830.93 67.4314 Q1835.22 67.4314 1839.23 66.3781 Q1843.28 65.3249 1847.25 63.2184 L1847.25 70.267 Q1843.24 71.9684 1839.03 72.8596 Q1834.82 73.7508 1830.48 73.7508 Q1819.62 73.7508 1813.26 67.4314 Q1806.95 61.1119 1806.95 50.3365 Q1806.95 39.1965 1812.94 32.6746 Q1818.98 26.1121 1829.18 26.1121 Q1838.34 26.1121 1843.65 32.0264 Q1848.99 37.9003 1848.99 48.0275 M1841.54 45.84 Q1841.46 39.7232 1838.1 36.0774 Q1834.78 32.4315 1829.27 32.4315 Q1823.03 32.4315 1819.26 35.9558 Q1815.53 39.4801 1814.97 45.8805 L1841.54 45.84 Z" fill="#000000" fill-rule="nonzero" fill-opacity="1" /><path clip-path="url(#clip180)" d="M1916.52 28.5427 L1916.52 35.5912 Q1913.36 33.9709 1909.96 33.1607 Q1906.56 32.3505 1902.91 32.3505 Q1897.36 32.3505 1894.57 34.0519 Q1891.81 35.7533 1891.81 39.156 Q1891.81 41.7486 1893.8 43.2475 Q1895.78 44.7058 1901.78 46.0426 L1904.33 46.6097 Q1912.27 48.3111 1915.59 51.4303 Q1918.95 54.509 1918.95 60.0587 Q1918.95 66.3781 1913.93 70.0644 Q1908.95 73.7508 1900.2 73.7508 Q1896.55 73.7508 1892.58 73.0216 Q1888.65 72.3329 1884.28 70.9151 L1884.28 63.2184 Q1888.41 65.3654 1892.42 66.4591 Q1896.43 67.5124 1900.36 67.5124 Q1905.63 67.5124 1908.46 65.73 Q1911.3 63.9071 1911.3 60.6258 Q1911.3 57.5877 1909.23 55.9673 Q1907.21 54.3469 1900.28 52.8481 L1897.69 52.2405 Q1890.76 50.7821 1887.68 47.7845 Q1884.6 44.7463 1884.6 39.4801 Q1884.6 33.0797 1889.14 29.5959 Q1893.68 26.1121 1902.02 26.1121 Q1906.15 26.1121 1909.8 26.7198 Q1913.44 27.3274 1916.52 28.5427 Z" fill="#000000" fill-rule="nonzero" fill-opacity="1" /><path clip-path="url(#clip180)" d="M1938.19 14.324 L1938.19 27.2059 L1953.55 27.2059 L1953.55 32.9987 L1938.19 32.9987 L1938.19 57.6282 Q1938.19 63.1779 1939.69 64.7578 Q1941.23 66.3376 1945.89 66.3376 L1953.55 66.3376 L1953.55 72.576 L1945.89 72.576 Q1937.26 72.576 1933.98 69.3758 Q1930.7 66.1351 1930.7 57.6282 L1930.7 32.9987 L1925.23 32.9987 L1925.23 27.2059 L1930.7 27.2059 L1930.7 14.324 L1938.19 14.324 Z" fill="#000000" fill-rule="nonzero" fill-opacity="1" /><path clip-path="url(#clip180)" d="M1983.97 49.7694 Q1974.94 49.7694 1971.45 51.8354 Q1967.97 53.9013 1967.97 58.8839 Q1967.97 62.8538 1970.56 65.2034 Q1973.19 67.5124 1977.69 67.5124 Q1983.89 67.5124 1987.62 63.1374 Q1991.38 58.7219 1991.38 51.4303 L1991.38 49.7694 L1983.97 49.7694 M1998.84 46.6907 L1998.84 72.576 L1991.38 72.576 L1991.38 65.6895 Q1988.83 69.8214 1985.02 71.8063 Q1981.22 73.7508 1975.71 73.7508 Q1968.74 73.7508 1964.61 69.8619 Q1960.52 65.9325 1960.52 59.3701 Q1960.52 51.7138 1965.62 47.825 Q1970.76 43.9361 1980.93 43.9361 L1991.38 43.9361 L1991.38 43.2069 Q1991.38 38.0623 1987.98 35.2672 Q1984.62 32.4315 1978.5 32.4315 Q1974.61 32.4315 1970.93 33.3632 Q1967.24 34.295 1963.84 36.1584 L1963.84 29.2718 Q1967.93 27.692 1971.78 26.9223 Q1975.63 26.1121 1979.27 26.1121 Q1989.11 26.1121 1993.98 31.2163 Q1998.84 36.3204 1998.84 46.6907 Z" fill="#000000" fill-rule="nonzero" fill-opacity="1" /><path clip-path="url(#clip180)" d="M2044.04 49.3643 Q2044.04 41.2625 2040.68 36.8065 Q2037.36 32.3505 2031.33 32.3505 Q2025.33 32.3505 2021.97 36.8065 Q2018.65 41.2625 2018.65 49.3643 Q2018.65 57.4256 2021.97 61.8816 Q2025.33 66.3376 2031.33 66.3376 Q2037.36 66.3376 2040.68 61.8816 Q2044.04 57.4256 2044.04 49.3643 M2051.5 66.9452 Q2051.5 78.5308 2046.35 84.1616 Q2041.21 89.8329 2030.6 89.8329 Q2026.67 89.8329 2023.18 89.2252 Q2019.7 88.6581 2016.42 87.4428 L2016.42 80.1917 Q2019.7 81.9741 2022.9 82.8248 Q2026.1 83.6755 2029.42 83.6755 Q2036.75 83.6755 2040.4 79.8271 Q2044.04 76.0193 2044.04 68.282 L2044.04 64.5957 Q2041.74 68.6061 2038.13 70.5911 Q2034.53 72.576 2029.5 72.576 Q2021.16 72.576 2016.05 66.2161 Q2010.95 59.8562 2010.95 49.3643 Q2010.95 38.832 2016.05 32.472 Q2021.16 26.1121 2029.5 26.1121 Q2034.53 26.1121 2038.13 28.0971 Q2041.74 30.082 2044.04 34.0924 L2044.04 27.2059 L2051.5 27.2059 L2051.5 66.9452 Z" fill="#000000" fill-rule="nonzero" fill-opacity="1" /><path clip-path="url(#clip180)" d="M2105.66 48.0275 L2105.66 51.6733 L2071.39 51.6733 Q2071.87 59.3701 2076.01 63.421 Q2080.18 67.4314 2087.59 67.4314 Q2091.89 67.4314 2095.9 66.3781 Q2099.95 65.3249 2103.92 63.2184 L2103.92 70.267 Q2099.91 71.9684 2095.69 72.8596 Q2091.48 73.7508 2087.15 73.7508 Q2076.29 73.7508 2069.93 67.4314 Q2063.61 61.1119 2063.61 50.3365 Q2063.61 39.1965 2069.61 32.6746 Q2075.64 26.1121 2085.85 26.1121 Q2095.01 26.1121 2100.31 32.0264 Q2105.66 37.9003 2105.66 48.0275 M2098.21 45.84 Q2098.12 39.7232 2094.76 36.0774 Q2091.44 32.4315 2085.93 32.4315 Q2079.69 32.4315 2075.93 35.9558 Q2072.2 39.4801 2071.63 45.8805 L2098.21 45.84 Z" fill="#000000" fill-rule="nonzero" fill-opacity="1" /><path clip-path="url(#clip180)" d="M2146.82 28.5427 L2146.82 35.5912 Q2143.66 33.9709 2140.25 33.1607 Q2136.85 32.3505 2133.21 32.3505 Q2127.66 32.3505 2124.86 34.0519 Q2122.11 35.7533 2122.11 39.156 Q2122.11 41.7486 2124.09 43.2475 Q2126.08 44.7058 2132.07 46.0426 L2134.62 46.6097 Q2142.56 48.3111 2145.88 51.4303 Q2149.25 54.509 2149.25 60.0587 Q2149.25 66.3781 2144.22 70.0644 Q2139.24 73.7508 2130.49 73.7508 Q2126.85 73.7508 2122.88 73.0216 Q2118.95 72.3329 2114.57 70.9151 L2114.57 63.2184 Q2118.7 65.3654 2122.71 66.4591 Q2126.72 67.5124 2130.65 67.5124 Q2135.92 67.5124 2138.76 65.73 Q2141.59 63.9071 2141.59 60.6258 Q2141.59 57.5877 2139.52 55.9673 Q2137.5 54.3469 2130.57 52.8481 L2127.98 52.2405 Q2121.05 50.7821 2117.97 47.7845 Q2114.9 44.7463 2114.9 39.4801 Q2114.9 33.0797 2119.43 29.5959 Q2123.97 26.1121 2132.31 26.1121 Q2136.45 26.1121 2140.09 26.7198 Q2143.74 27.3274 2146.82 28.5427 Z" fill="#000000" fill-rule="nonzero" fill-opacity="1" /><polyline clip-path="url(#clip182)" style="stroke:#009af9; stroke-linecap:round; stroke-linejoin:round; stroke-width:4; stroke-opacity:1; fill:none" points="175.59,1446.11 205.786,1445.94 235.983,1445.63 266.179,1445.2 296.376,1444.63 326.572,1443.9 356.769,1442.99 386.965,1441.87 417.162,1440.49 447.358,1438.8 477.555,1436.74 507.751,1434.22 537.948,1431.16 568.144,1427.44 598.34,1422.92 628.537,1417.45 658.733,1410.84 688.93,1402.86 719.126,1393.26 749.323,1381.71 779.519,1367.87 809.716,1351.32 839.912,1331.58 870.109,1308.13 900.305,1280.35 930.502,1247.58 960.698,1209.1 990.895,1164.16 1021.09,1111.98 1051.29,1051.8 1081.48,982.959 1111.68,904.945 1141.88,817.516 1172.07,720.849 1202.27,615.72 1232.47,503.743 1262.66,387.662 1292.86,271.71 1323.06,162.047 1353.25,249.121 1383.45,444.592 1413.65,713.32 1443.84,908.304 1474.04,1051.2 1504.23,1156.4 1534.43,1233.97 1564.63,1291.15 1594.82,1333.24 1625.02,1364.18 1655.22,1386.86 1685.41,1403.47 1715.61,1415.6 1745.81,1424.45 1776,1430.9 1806.2,1435.58 1836.4,1438.99 1866.59,1441.45 1896.79,1443.24 1926.99,1444.53 1957.18,1445.46 1987.38,1446.13 2017.57,1446.62 2047.77,1446.96 2077.97,1447.21 2108.16,1447.38 2138.36,1447.51 2168.56,1447.59 2198.75,1447.65 2228.95,1447.68 2259.15,1447.7 2289.34,1447.71 "/>
<polyline clip-path="url(#clip182)" style="stroke:#e26f46; stroke-linecap:round; stroke-linejoin:round; stroke-width:4; stroke-opacity:1; fill:none" points="175.59,1447.19 205.786,1447.13 235.983,1447.01 266.179,1446.85 296.376,1446.63 326.572,1446.35 356.769,1446 386.965,1445.56 417.162,1445.02 447.358,1444.36 477.555,1443.54 507.751,1442.55 537.948,1441.34 568.144,1439.86 598.34,1438.07 628.537,1435.89 658.733,1433.24 688.93,1430.03 719.126,1426.16 749.323,1421.48 779.519,1415.84 809.716,1409.07 839.912,1400.95 870.109,1391.24 900.305,1379.65 930.502,1365.88 960.698,1349.56 990.895,1330.31 1021.09,1307.7 1051.29,1281.29 1081.48,1250.63 1111.68,1215.29 1141.88,1174.89 1172.07,1129.17 1202.27,1078.04 1232.47,1021.68 1262.66,960.672 1292.86,896.105 1323.06,829.772 1353.25,809.883 1383.45,942.113 1413.65,1073.9 1443.84,1171.77 1474.04,1244.43 1504.23,1298.29 1534.43,1338.14 1564.63,1367.53 1594.82,1389.17 1625.02,1405.06 1655.22,1416.7 1685.41,1425.21 1715.61,1431.42 1745.81,1435.95 1776,1439.24 1806.2,1441.63 1836.4,1443.36 1866.59,1444.62 1896.79,1445.53 1926.99,1446.18 1957.18,1446.66 1987.38,1447 2017.57,1447.24 2047.77,1447.42 2077.97,1447.55 2108.16,1447.63 2138.36,1447.7 2168.56,1447.74 2198.75,1447.77 2228.95,1447.79 2259.15,1447.8 2289.34,1447.8 "/>
<polyline clip-path="url(#clip182)" style="stroke:#3da44d; stroke-linecap:round; stroke-linejoin:round; stroke-width:4; stroke-opacity:1; fill:none" points="175.59,1447.66 205.786,1447.64 235.983,1447.6 266.179,1447.55 296.376,1447.48 326.572,1447.39 356.769,1447.28 386.965,1447.13 417.162,1446.95 447.358,1446.74 477.555,1446.46 507.751,1446.13 537.948,1445.72 568.144,1445.23 598.34,1444.62 628.537,1443.87 658.733,1442.96 688.93,1441.85 719.126,1440.51 749.323,1438.87 779.519,1436.88 809.716,1434.47 839.912,1431.56 870.109,1428.04 900.305,1423.79 930.502,1418.68 960.698,1412.55 990.895,1405.2 1021.09,1396.42 1051.29,1385.97 1081.48,1373.57 1111.68,1358.93 1141.88,1341.72 1172.07,1321.61 1202.27,1298.29 1232.47,1271.47 1262.66,1240.96 1292.86,1206.71 1323.06,1168.96 1353.25,1139.71 1383.45,1210 1413.65,1271.69 1443.84,1317.93 1474.04,1352.37 1504.23,1377.88 1534.43,1396.71 1564.63,1410.55 1594.82,1420.7 1625.02,1428.13 1655.22,1433.54 1685.41,1437.48 1715.61,1440.35 1745.81,1442.44 1776,1443.95 1806.2,1445.04 1836.4,1445.83 1866.59,1446.4 1896.79,1446.82 1926.99,1447.11 1957.18,1447.33 1987.38,1447.48 2017.57,1447.6 2047.77,1447.68 2077.97,1447.73 2108.16,1447.77 2138.36,1447.8 2168.56,1447.82 2198.75,1447.83 2228.95,1447.84 2259.15,1447.85 2289.34,1447.85 "/>
<polyline clip-path="url(#clip182)" style="stroke:#c271d2; stroke-linecap:round; stroke-linejoin:round; stroke-width:4; stroke-opacity:1; fill:none" points="175.59,1447.84 205.786,1447.84 235.983,1447.83 266.179,1447.82 296.376,1447.8 326.572,1447.78 356.769,1447.76 386.965,1447.73 417.162,1447.69 447.358,1447.64 477.555,1447.59 507.751,1447.51 537.948,1447.42 568.144,1447.31 598.34,1447.17 628.537,1447 658.733,1446.79 688.93,1446.54 719.126,1446.22 749.323,1445.83 779.519,1445.35 809.716,1444.77 839.912,1444.04 870.109,1443.16 900.305,1442.07 930.502,1440.74 960.698,1439.1 990.895,1437.09 1021.09,1434.62 1051.29,1431.6 1081.48,1427.89 1111.68,1423.34 1141.88,1417.76 1172.07,1410.92 1202.27,1402.52 1232.47,1392.23 1262.66,1379.6 1292.86,1364.11 1323.06,1345.11 1353.25,1324.66 1383.45,1357.06 1413.65,1382.46 1443.84,1400.75 1474.04,1413.94 1504.23,1423.43 1534.43,1430.27 1564.63,1435.2 1594.82,1438.75 1625.02,1441.31 1655.22,1443.15 1685.41,1444.48 1715.61,1445.43 1745.81,1446.12 1776,1446.62 1806.2,1446.97 1836.4,1447.23 1866.59,1447.41 1896.79,1447.54 1926.99,1447.64 1957.18,1447.71 1987.38,1447.76 2017.57,1447.79 2047.77,1447.82 2077.97,1447.84 2108.16,1447.85 2138.36,1447.86 2168.56,1447.86 2198.75,1447.87 2228.95,1447.87 2259.15,1447.87 2289.34,1447.87 "/>
<path clip-path="url(#clip180)" d="M1999.87 428.105 L2278.07 428.105 L2278.07 168.905 L1999.87 168.905  Z" fill="#ffffff" fill-rule="evenodd" fill-opacity="1"/>
<polyline clip-path="url(#clip180)" style="stroke:#000000; stroke-linecap:round; stroke-linejoin:round; stroke-width:4; stroke-opacity:1; fill:none" points="1999.87,428.105 2278.07,428.105 2278.07,168.905 1999.87,168.905 1999.87,428.105 "/>
<polyline clip-path="url(#clip180)" style="stroke:#009af9; stroke-linecap:round; stroke-linejoin:round; stroke-width:4; stroke-opacity:1; fill:none" points="2024.76,220.745 2174.14,220.745 "/>
<path clip-path="url(#clip180)" d="M2212.87 240.432 Q2211.07 245.062 2209.36 246.474 Q2207.64 247.886 2204.77 247.886 L2201.37 247.886 L2201.37 244.321 L2203.87 244.321 Q2205.63 244.321 2206.6 243.488 Q2207.57 242.654 2208.75 239.552 L2209.52 237.608 L2199.03 212.099 L2203.55 212.099 L2211.65 232.377 L2219.75 212.099 L2224.26 212.099 L2212.87 240.432 Z" fill="#000000" fill-rule="nonzero" fill-opacity="1" /><path clip-path="url(#clip180)" d="M2231.55 234.089 L2239.19 234.089 L2239.19 207.724 L2230.88 209.391 L2230.88 205.131 L2239.15 203.465 L2243.82 203.465 L2243.82 234.089 L2251.46 234.089 L2251.46 238.025 L2231.55 238.025 L2231.55 234.089 Z" fill="#000000" fill-rule="nonzero" fill-opacity="1" /><polyline clip-path="url(#clip180)" style="stroke:#e26f46; stroke-linecap:round; stroke-linejoin:round; stroke-width:4; stroke-opacity:1; fill:none" points="2024.76,272.585 2174.14,272.585 "/>
<path clip-path="url(#clip180)" d="M2212.87 292.272 Q2211.07 296.902 2209.36 298.314 Q2207.64 299.726 2204.77 299.726 L2201.37 299.726 L2201.37 296.161 L2203.87 296.161 Q2205.63 296.161 2206.6 295.328 Q2207.57 294.494 2208.75 291.392 L2209.52 289.448 L2199.03 263.939 L2203.55 263.939 L2211.65 284.217 L2219.75 263.939 L2224.26 263.939 L2212.87 292.272 Z" fill="#000000" fill-rule="nonzero" fill-opacity="1" /><path clip-path="url(#clip180)" d="M2234.77 285.929 L2251.09 285.929 L2251.09 289.865 L2229.15 289.865 L2229.15 285.929 Q2231.81 283.175 2236.39 278.545 Q2241 273.893 2242.18 272.55 Q2244.42 270.027 2245.3 268.291 Q2246.21 266.531 2246.21 264.842 Q2246.21 262.087 2244.26 260.351 Q2242.34 258.615 2239.24 258.615 Q2237.04 258.615 2234.59 259.379 Q2232.16 260.143 2229.38 261.694 L2229.38 256.971 Q2232.2 255.837 2234.66 255.258 Q2237.11 254.68 2239.15 254.68 Q2244.52 254.68 2247.71 257.365 Q2250.91 260.05 2250.91 264.541 Q2250.91 266.67 2250.1 268.592 Q2249.31 270.49 2247.2 273.082 Q2246.62 273.754 2243.52 276.971 Q2240.42 280.166 2234.77 285.929 Z" fill="#000000" fill-rule="nonzero" fill-opacity="1" /><polyline clip-path="url(#clip180)" style="stroke:#3da44d; stroke-linecap:round; stroke-linejoin:round; stroke-width:4; stroke-opacity:1; fill:none" points="2024.76,324.425 2174.14,324.425 "/>
<path clip-path="url(#clip180)" d="M2212.87 344.112 Q2211.07 348.742 2209.36 350.154 Q2207.64 351.566 2204.77 351.566 L2201.37 351.566 L2201.37 348.001 L2203.87 348.001 Q2205.63 348.001 2206.6 347.168 Q2207.57 346.334 2208.75 343.232 L2209.52 341.288 L2199.03 315.779 L2203.55 315.779 L2211.65 336.057 L2219.75 315.779 L2224.26 315.779 L2212.87 344.112 Z" fill="#000000" fill-rule="nonzero" fill-opacity="1" /><path clip-path="url(#clip180)" d="M2244.91 323.07 Q2248.27 323.788 2250.14 326.057 Q2252.04 328.325 2252.04 331.658 Q2252.04 336.774 2248.52 339.575 Q2245 342.376 2238.52 342.376 Q2236.35 342.376 2234.03 341.936 Q2231.74 341.519 2229.29 340.663 L2229.29 336.149 Q2231.23 337.283 2233.55 337.862 Q2235.86 338.441 2238.38 338.441 Q2242.78 338.441 2245.07 336.705 Q2247.39 334.969 2247.39 331.658 Q2247.39 328.603 2245.23 326.89 Q2243.11 325.154 2239.29 325.154 L2235.26 325.154 L2235.26 321.311 L2239.47 321.311 Q2242.92 321.311 2244.75 319.946 Q2246.58 318.557 2246.58 315.964 Q2246.58 313.302 2244.68 311.89 Q2242.8 310.455 2239.29 310.455 Q2237.36 310.455 2235.17 310.871 Q2232.97 311.288 2230.33 312.168 L2230.33 308.001 Q2232.99 307.26 2235.3 306.89 Q2237.64 306.52 2239.7 306.52 Q2245.03 306.52 2248.13 308.95 Q2251.23 311.358 2251.23 315.478 Q2251.23 318.348 2249.59 320.339 Q2247.94 322.307 2244.91 323.07 Z" fill="#000000" fill-rule="nonzero" fill-opacity="1" /><polyline clip-path="url(#clip180)" style="stroke:#c271d2; stroke-linecap:round; stroke-linejoin:round; stroke-width:4; stroke-opacity:1; fill:none" points="2024.76,376.265 2174.14,376.265 "/>
<path clip-path="url(#clip180)" d="M2212.87 395.952 Q2211.07 400.582 2209.36 401.994 Q2207.64 403.406 2204.77 403.406 L2201.37 403.406 L2201.37 399.841 L2203.87 399.841 Q2205.63 399.841 2206.6 399.008 Q2207.57 398.174 2208.75 395.072 L2209.52 393.128 L2199.03 367.619 L2203.55 367.619 L2211.65 387.897 L2219.75 367.619 L2224.26 367.619 L2212.87 395.952 Z" fill="#000000" fill-rule="nonzero" fill-opacity="1" /><path clip-path="url(#clip180)" d="M2243.59 363.059 L2231.79 381.508 L2243.59 381.508 L2243.59 363.059 M2242.36 358.985 L2248.24 358.985 L2248.24 381.508 L2253.17 381.508 L2253.17 385.397 L2248.24 385.397 L2248.24 393.545 L2243.59 393.545 L2243.59 385.397 L2227.99 385.397 L2227.99 380.883 L2242.36 358.985 Z" fill="#000000" fill-rule="nonzero" fill-opacity="1" /></svg>
